<svg xmlns="http://www.w3.org/2000/svg" xmlns:xlink="http://www.w3.org/1999/xlink" width="114" height="114" viewBox="0 0 114 114"><defs><clipPath id="a"><circle cx="57" cy="57" r="57" transform="translate(13775.044 9300)" fill="#fff"/></clipPath></defs><g transform="translate(-13775.044 -9300)" clip-path="url(#a)"><circle cx="57" cy="57" r="57" transform="translate(13775.044 9300)" fill="#285977"/><g transform="translate(13818.934 9295.597) rotate(22)"><path d="M1.226,50.08C-1.869,37.259.96,25.708,8.969,15.422,14.836,7.888,22.288,2.562,31.824.661a35.4,35.4,0,0,1,39.5,21.593,36.326,36.326,0,0,1,.148,27.288c-.19.5-.756,1.121.248,1.439-.629,3.946-2.946,6.662-6.274,8.658a76.986,76.986,0,0,1-18.4,7.5,109.074,109.074,0,0,1-12.981,2.8,49.467,49.467,0,0,1-15.94.46,7.321,7.321,0,0,1-3.881-1.6c-1.515-1.165-3.038-2.32-4.54-3.5a4.281,4.281,0,0,1-1.358-1.486,37.042,37.042,0,0,1-3.28-4.945c-.3-.564-.907-1.1-.4-1.856a6.1,6.1,0,0,0,4.769-.26,2.341,2.341,0,0,1,.663-.161c6.862-1.093,13.576-2.89,20.352-4.375,7.718-1.691,15.446-3.352,23.152-5.1a2.435,2.435,0,0,0,2.108-2.64A22.792,22.792,0,0,0,47.83,26.106c-6.346-5.794-14.062-7.731-22.362-6.576C12.083,21.394,1.765,32.5,2.079,45.577A40.574,40.574,0,0,0,2.872,50.8a2.912,2.912,0,0,1-.051,2.158c-.851.071-.777-.633-.918-1.127-.319-1.119-.213-2.293-.46-3.334C1.179,48.925,2.119,49.654,1.226,50.08Z" transform="translate(0 20.366)" fill="#679a71"/><path d="M40.511,47.838c-2.883.621-5.7,1.517-8.645,1.91-1.4.186-3.06.156-3.971,1.674a.883.883,0,0,1-.948-.171,100.409,100.409,0,0,1-10.631-7.914Q9.743,37.921,3.1,32.6a11.49,11.49,0,0,1-1.219-1.19c-2.356-2.556-2.369-2.564-.742-5.642a8.773,8.773,0,0,0,.877-3.437,10.605,10.605,0,0,1,.2-2.875.852.852,0,0,1,1.31-.319c1.838,1.037,3.8.78,5.664.344,5.655-1.321,11.383-2.256,17.069-3.412A25.654,25.654,0,0,0,30.5,14.776c.764-.3,1.479-.686,1.3-1.721a6.769,6.769,0,0,1-.044-1.2c-.207-2.686-1.007-5.293-1.056-8a3.665,3.665,0,0,1,.1-1.819A14.52,14.52,0,0,1,39.131.041c.755.8.049,1.482-.2,2.178a13.282,13.282,0,0,0,1.932,13.356c2.343,3.076,6.979,4.874,10.906,1.388a2.458,2.458,0,0,1,.874-.52,3.654,3.654,0,0,1,3.129,2.005c-.445,1.742-1.869,2.828-2.885,4.168A73.649,73.649,0,0,0,42.848,40.964a31.453,31.453,0,0,0-1.627,5.565A1.816,1.816,0,0,1,40.511,47.838Z" transform="translate(27.577 132.932)" fill="#679a71"/><path d="M1.508,17.82c8.779,3,17.482,1.177,26.141-.555A81.875,81.875,0,0,0,50.836,9.18c3.51-1.9,6.721-4.122,7.479-8.476.068-.391.364-.55.672-.7,1.847.726,2.506,1.7,2.336,3.573-.05.553-.319,1.108.371,1.449a4.728,4.728,0,0,0,1.924,2.8c1.687,1.28,1.769,1.854.76,3.83a1.03,1.03,0,0,1-.582.465,1.652,1.652,0,0,1-.722-.195c-1.069-.468-1.861.2-2.664.694A57.238,57.238,0,0,0,48.9,22.4a16.026,16.026,0,0,1-3.155,2.839A33.76,33.76,0,0,1,42.8,26.958,91.4,91.4,0,0,1,29.792,32.37a3.028,3.028,0,0,1-1.647.294.8.8,0,0,1-.464-.635c.14-1.739.526-3.457-.108-5.216-1.242-3.443-4.6-5.572-7.672-4.749A7.207,7.207,0,0,0,14.761,30.2c.248,1.572,1.147,2.823,1.658,4.258a.772.772,0,0,1-.177.5c-2.719.946-5.45.452-8.181.069a5.285,5.285,0,0,1-2.316-1.188,5.026,5.026,0,0,0-3.793-2.507C-.018,29.986-.561,27.967.618,26.079A8.548,8.548,0,0,0,1.673,19,9.062,9.062,0,0,1,1.508,17.82Z" transform="translate(12.73 72.244)" fill="#1f4a29"/><path d="M28.637.056c1.608,4.788,3.227,9.572,4.817,14.366.428,1.291-.22,1.825-1.452,2.116-7.357,1.741-14.7,3.539-22.047,5.317q-3.728.9-7.458,1.8C.375,24.164-.321,23.568.132,21.4a19.62,19.62,0,0,1,4.925-9.573c2.015-.331,4-.8,6.009-1.185a22.592,22.592,0,0,1,11.1.616c.662.2,1.686.669,1.963-.2.33-1.038-.865-1.141-1.551-1.364A20.725,20.725,0,0,0,12,8.968a43.779,43.779,0,0,1-6.81,1.208L3.731,6A34.4,34.4,0,0,0,14.609,5.06c.963-.131,1.909-.351,2.863-.527a7.051,7.051,0,0,0,2.4-.678A49.483,49.483,0,0,0,27.5.252,1.331,1.331,0,0,1,28.637.056Z" transform="translate(69.333 179.208)" fill="#3a8b2e"/><path d="M29.944,0c.925,3.155,1.836,6.313,2.78,9.462.44,1.469.922,2.926,1.421,4.377.635,1.847.114,2.893-1.765,3.211q-15.217,2.576-30.444,5.1c-1.647.273-2.148-.385-1.859-1.994C1,15.012,4.03,11.19,7.664,7.722a.8.8,0,0,1,.482-.144,3.622,3.622,0,0,0,1.522.086c5.29-1.266,10.1.629,14.948,2.264.161.055.309.149.47.2.614.209,1.391.784,1.752-.143.318-.817-.524-1.15-1.127-1.449A29.95,29.95,0,0,0,20.226,6.67a6.933,6.933,0,0,1-1.768-.612c-.389-.231-.643-.511-.174-.918,2.144-.7,4.307-1.323,6.5-1.835.769-.18,1.544-.327,2.3-.553A3.7,3.7,0,0,0,29.944,0Z" transform="translate(26.582 187.914)" fill="#3a8b2e"/><path d="M0,.3C4.474-.536,8.36.286,11.636,3.778c2.845,3.032,4.283,6.665,5.314,10.531,2.346,8.8,5.3,17.391,8.483,25.91a5.574,5.574,0,0,0-.438,2.311A5.355,5.355,0,0,1,21.751,47.6c-1.033.387-1.32-.373-1.631-1.022a30.429,30.429,0,0,1-1.9-5.833C15.7,30.629,11.06,21.478,5.718,12.63a14.577,14.577,0,0,0-1.285-1.808c-1.17-1.4-1.925-2.734-1.07-4.742C4.046,4.475,2.84,3.2,1.635,2.133,1.023,1.592.075,1.331,0,.3Z" transform="translate(76.632 76.892)" fill="#3a8b2e"/><path d="M4.936,47.042a4.111,4.111,0,0,0-1.083-2.42A9,9,0,0,1,1.86,40.535a68.475,68.475,0,0,1,0-31.707C2.548,5.818,3.009,2.672,4.793,0c.618.5.55,1.232.586,1.889C5.794,9.445,6.9,16.93,7.768,24.437A91.749,91.749,0,0,0,11.28,40.413c.707,2.343.982,4.793,1.875,7.086a1.057,1.057,0,0,1-.433,1.476A9.6,9.6,0,0,1,4.936,47.042Z" transform="translate(8.688 108.465)" fill="#679a71"/><path d="M7.386,49.389c1.326-.174.523-1.016.39-1.495C5.85,40.961,3.75,34.058,2.737,26.921Q1.572,18.7.791,10.42C.478,7.157.184,3.9,0,.627L.22.276c.864-.692,1.48.1,2.188.36,3.859,3.3,6.455,7.565,8.933,11.9A12.3,12.3,0,0,1,12.507,15,46.04,46.04,0,0,0,13.3,19.77a3.652,3.652,0,0,1,.026,1.976,1.815,1.815,0,0,1-1.6.7,1.4,1.4,0,0,1-.541-.139,4.525,4.525,0,0,1-.626-2.929c-.076-2.953-1.549-5.263-3.293-7.877a61.6,61.6,0,0,0,.712,11.615,6.811,6.811,0,0,0-.213,3.224c.029,2.064-.073,4.144.736,6.113a1.043,1.043,0,0,1,.366.62c-.348.967.185,1.884.164,2.834-.1.243-.26.453-.354.7.851,3.177,1.363,6.43,2.259,9.59a3.032,3.032,0,0,1-.318,3.056,3.691,3.691,0,0,1-1.987.685C8.14,49.928,7.574,50.084,7.386,49.389Z" transform="translate(13.481 107.836)" fill="#54765e"/><path d="M9,25.1A11.481,11.481,0,0,1,7,20.119a8.228,8.228,0,0,0-2.333-4.759c-1.653-1.484-2.345-3.592-3.008-5.632S.545,5.577,0,3.5C.389,2.386.658,1.237,1.027.118,2.051-.267,2.8.369,3.5.9,6.847,3.42,10.311,5.781,13.821,8.07a78.951,78.951,0,0,1,10.949,8.315c.565.528,1.3.983,1.111,1.955a2.554,2.554,0,0,1-1.671,1.1c-4.88,1.289-9.755,1.639-14.617-.1-.51-.183-1.109-.632-1.58-.117-.423.462-.114,1.095.043,1.632.288.985.78,1.9,1.094,2.87C9.29,24.152,9.864,24.736,9,25.1Z" transform="translate(24.529 166.952)" fill="#679a71"/><path d="M3.9,28.169c-.235-.572-.517-1.13-.7-1.719-.745-2.415-.734-2.418-3.2-2.1.218-1.159,1.208-.961,1.95-.994a3.567,3.567,0,0,0,1.775-.212c7.023-.374,13.43-2.736,19.558-6.015a2.132,2.132,0,0,0,1.3-2.182,7.489,7.489,0,0,1,.843-3.625c.454-.987.4-1.722-.77-2.16a7.877,7.877,0,0,1-3.292-2.894,2.54,2.54,0,0,0-2.123-1.2,3.874,3.874,0,0,1-3.815-2.629A1.322,1.322,0,0,1,15.77,1.2c.553-.472.835-1.367,1.817-1.176.485,1.283,1.183,2.259,2.756,2.3.868.021,1.372.7,1.8,1.4a13.6,13.6,0,0,0,2.344,2.887c1.338,1.235,2.814,1.846,4.6,1a5.056,5.056,0,0,1-.547,3.61c-1.732,3.24-1.25,6.385-.033,9.584a4.751,4.751,0,0,1,.159.826c-.927-.374-1.54.362-2.283.651a29.657,29.657,0,0,1-9.419,3.37C13.221,26.5,9.6,28.066,5.652,27.985a4.421,4.421,0,0,0-1.168.241A.92.92,0,0,1,3.9,28.169Z" transform="translate(68.967 156.329)" fill="#54765e"/><path d="M1.218,0C1.99.842,3.091,1.252,3.869,2.116c1.535,1.7,1.81,3.024.744,5.06A1.034,1.034,0,0,0,4.7,8.529c3.308,3.933,5.449,8.583,7.957,13.007a84.289,84.289,0,0,1,6.672,16.623c.774,2.472,1.408,5,2.212,7.465.56,1.719.727,1.78,2.075.714,1.509-1.2,2.9-2.412,2.053-4.689-.292-.79.185-1.418.981-1.732l.413.281c.433,1.045.639,2.163,1.055,3.217a3.166,3.166,0,0,1-.436,3.06c-.432.714-1.2,1.042-1.8,1.57-1.51.874-2.724,2.325-4.649,2.4a4.371,4.371,0,0,1-1.746-2.447c-1.8-4.494-3.234-9.113-4.731-13.709A92.477,92.477,0,0,0,3.112,11.2a4.054,4.054,0,0,1-.5-.916c.01-1.145-1.036-1.936-1.041-3.079l.264-.393c1.676-2,1.636-2.465-.507-3.832C.239,2.286-.339,1.473.211.166Z" transform="translate(75.414 77.217)" fill="#346d30"/><path d="M4.162,28.5c-.306.249-.007,1.4-1.1.525-.6-.481-1.709-.066-2.447.533L0,29.653c2.2-10.258,7.054-19.2,13.543-27.334.531-.665,1.049-1.341,1.573-2.011A.842.842,0,0,1,15.6,0c1.358.087,1.6,1.1,1.607,2.133a16.746,16.746,0,0,1-.5,4.475l-.547.821A1.918,1.918,0,0,1,15.563,8.8,62.1,62.1,0,0,0,4.932,27.229C4.768,27.7,4.662,28.228,4.162,28.5Z" transform="translate(68.209 151.117)" fill="#204a29"/><path d="M11.485.715C13.3,3.221,13.616,6.088,13.6,9.072a4.089,4.089,0,0,1-2.512,4.186A6.869,6.869,0,0,1,4.492,9.347a2.059,2.059,0,0,0-2.41-1.123C.639,8.5.025,7.917,0,6.348S.094,3.186.208,1.6a.967.967,0,0,1,.326-.477A3.247,3.247,0,0,1,2.325.672,48.635,48.635,0,0,0,8.092.153C9.238-.033,10.481-.223,11.485.715Z" transform="translate(86.962 149.824)" fill="#3a8b2d"/><path d="M12.444,1.587A19.449,19.449,0,0,1,9.377,12.1a39.815,39.815,0,0,1-6.443,7.021,1.7,1.7,0,0,1-2,.478,1.628,1.628,0,0,1-.916-1.843A23.96,23.96,0,0,1,5.775,4.709,29.3,29.3,0,0,1,10.15.414C11.2-.408,12.151,0,12.444,1.587Z" transform="translate(25.355 0)" fill="#3a8b2d"/><path d="M14.167,12.352c.24,1.279-.365,1.951-1.729,1.768a10.584,10.584,0,0,1-4.732-1.838,21.4,21.4,0,0,1-7.542-9.9A1.84,1.84,0,0,1,.528.325C1.048-.244,1.64.08,2.262.213,7.708,1.377,13.454,9.269,14.167,12.352Z" transform="translate(9.242 7.386)" fill="#3b8b2e"/><path d="M1.833,7.177C1.768,5.4.4,4.039.24,2.293.188,1.717-.341,1.05.361.58.936.193,1.5.472,2.111.737A18.447,18.447,0,0,0,12.572,1.893c2.057-.331,4.352-.169,6.041-1.827a.669.669,0,0,1,.667.063A17.026,17.026,0,0,1,21.874,2.26a2.635,2.635,0,0,1,.523.65c.4.832,0,1.328-.747,1.559-1.133.349-2.223.808-3.394,1.066A116.123,116.123,0,0,1,2.316,7.808.794.794,0,0,1,1.833,7.177Z" transform="translate(31.73 184.872)" fill="#54765e"/><path d="M.136,2.042C6.2-.021,12.321-.966,18.543,1.359c.687.257,1.681.55,1.385,1.61-.32,1.146-1.253,1.181-2.209.829C12.3,1.8,6.91,2.531,1.533,3.938.922,4.1.449,4.184,0,3.695.311,3.166.111,2.595.136,2.042Z" transform="translate(74.389 187.342)" fill="#336e31"/><path d="M6.881,9.764A5.318,5.318,0,0,1,.646,6.14,11.143,11.143,0,0,1,.167.647C1.915-.56,3.618.185,5.328.763a2.954,2.954,0,0,1,.624,1.892A20.1,20.1,0,0,0,6.922,8.3,1.653,1.653,0,0,1,6.881,9.764Z" transform="translate(16.26 159.411)" fill="#3b8b2e"/><path d="M12.758,5.536c-3.724-.356-7.369.547-11.062.7C.7,5.571-.128,4.809.016,3.456a1.644,1.644,0,0,1,1.448-.765C4.55,2.638,7.317,1.428,10.131.381A4.275,4.275,0,0,1,12.294.033c1.124,1.035,1.437,3.431.695,5.307A.32.32,0,0,1,12.758,5.536Z" transform="translate(85.689 144.893)" fill="#1f4a29"/><path d="M0,7.128a2.1,2.1,0,0,1,.264-.094c2-.4,4.036-.367,6.048-.737A86.959,86.959,0,0,0,20.751,1.972,5.433,5.433,0,0,0,22.73.668C23.4.409,24.039-.648,24.771.586q.166.654.332,1.308a33.269,33.269,0,0,1-8.62,4.116c-.675.488-1.512.379-2.256.608a13.177,13.177,0,0,0-3.08.761,56.537,56.537,0,0,1-9.6,1.232C.763,8.676.61,8.147.2,7.84Z" transform="translate(72.866 177.369)" fill="#1f4a29"/><path d="M.806,15.8a15.988,15.988,0,0,0-.641-5.062.873.873,0,0,1-.037-.963c1.015-1.483,1.161-3.241,1.619-4.9C4.824,4.44,6.664,2.269,8.48.064A.492.492,0,0,1,8.951.056L8.932,2.121C8.233,3.842,7.623,5.6,5.782,6.54,4.874,7.005,4.63,8,4.3,8.922c-.646,1.8-.562,3.818-1.662,5.476A3.989,3.989,0,0,1,.806,15.8Z" transform="translate(97.872 134.392)" fill="#336e31"/><path d="M19.056,1.772,18.7,1.483C18.925.208,20.133.139,20.96.009s.328,1.141.863,1.555l.216.636c.563,1.574-.234,2.336-1.624,2.792a96.049,96.049,0,0,1-10.263,2.67A1.4,1.4,0,0,1,8.833,8.2a13.592,13.592,0,0,0-6.358.015C1.68,8.4.8,8.72.131,7.871a.2.2,0,0,1-.125-.24C.112,6.181,1.3,6.618,2.046,6.589,7.7,6.372,13.164,5.064,18.621,3.735,20,3.4,20.048,2.955,19.056,1.772Z" transform="translate(34.51 185.713)" fill="#204a29"/><path d="M.4,6.227a3.391,3.391,0,0,0,.075-3.8A2.592,2.592,0,0,1,.2,0L.985.261c.206.192.562.34.615.56C2.415,4.163,5.488,6.312,6.242,9.7a6.078,6.078,0,0,1,.264,2.96,3.734,3.734,0,0,1-1.193,2.711c-.977.61-1.319-.138-1.605-.812a11.392,11.392,0,0,1-.6-2.627A10.578,10.578,0,0,0,.4,6.227Z" transform="translate(102.276 117.678)" fill="#33542c"/><path d="M5.521,12.4C4.8,9.035,3.767,5.815,1.065,3.451c-.5-.441-.349-.9-.344-1.384A4.856,4.856,0,0,0,0,0,7.824,7.824,0,0,1,6.488,8.292,10,10,0,0,1,5.521,12.4Z" transform="translate(103.261 117.92)" fill="#376428"/><path d="M0,12.276C.488,10.19.949,8.1,1.484,6.023c.136-.527.392-1.276.791-1.441C4.406,3.706,4.867,1.44,6.293,0,6.612,4,4.9,7.248,2.42,10.164A20.914,20.914,0,0,1,0,12.276Z" transform="translate(100.511 136.511)" fill="#3b8b2f"/><path d="M1.864,0c2.188.517,2.22,2.587,2.844,4.145a19.7,19.7,0,0,1,.78,3.792c.134.736.391,1.306,1.29,1.209a2.478,2.478,0,0,1-.766,1.21l-.377.054C4.394,10.567,3.78,9.925,3.426,8.8A15.622,15.622,0,0,0,.444,2.945C0,2.438-.25,1.888.382,1.322.641.619,1.524.614,1.864,0Z" transform="translate(100.81 123.939)" fill="#366228"/><path d="M1.756,9.252C.452,6.4.533,3.278,0,.276A.635.635,0,0,1,.44,0C2.931.117,3.222.316,3.3,2.66a10.6,10.6,0,0,0,.877,3.372.993.993,0,0,1-.095.778,3.347,3.347,0,0,1-1.1,3.274C2.656,9.689,2.392,9.2,1.756,9.252Z" transform="translate(21.494 159.931)" fill="#346e30"/><path d="M1,0A20.263,20.263,0,0,1,.917,4.381C.876,6.13,1.251,6.431,2.9,5.949c1.164-.34,1.8.413,2.4,1.176S6.369,8.72,6.956,9.478A3.109,3.109,0,0,0,9.9,10.814c.695-.08,1.379-.094,1.712.713a.612.612,0,0,1,.012.335c-1.122,1.746-2.508.827-3.687.218A9.276,9.276,0,0,1,4.4,8.288,2.528,2.528,0,0,0,2.143,6.829C.609,6.767-.026,5.861.094,4.372-.029,2.827-.232,1.265,1,0Z" transform="translate(86.435 151.571)" fill="#346e30"/><path d="M8.1,4.333l-.345.094c-1.658.139-3.289-.66-4.957-.14a1.134,1.134,0,0,0-.775-.82C.526,2.8.1,1.492,0,0,2.356.818,4.634,1.968,7.243,1.72c.325.294.713.186,1.086.169C8.9,2.763,8.443,3.543,8.1,4.333Z" transform="translate(13.625 155.687)" fill="#204b2a"/><path d="M19.5,0a1.018,1.018,0,0,1,.872,1.383c-.178.757-.78,1.035-1.511,1.172-3.075.577-6.151,1.158-9.215,1.788a31.955,31.955,0,0,1-7.578.834c-.6-.021-1.286-.032-1.618.681L0,5.2c.69-.9,1.752-.733,2.656-.789A75.28,75.28,0,0,0,19.206,1.46C20.5,1.082,19.717.546,19.5,0Z" transform="translate(34.055 187.484)" fill="#25452f"/><path d="M0,2.115C.554,1.458-.258.706.13,0c.79,1.589.313,3.5,1.449,4.949a4.651,4.651,0,0,1,1.861,4.1C3.82,10.941,5,12.41,6,13.975c.39.611,1.038,1.07,1.112,1.87A29.112,29.112,0,0,1,0,2.115Z" transform="translate(1.226 69.103)" fill="#6b9e76"/><path d="M5.545,3.383c-.566-.236-.347-.908-.8-1.374C4.22,2.893,3.03,2.5,2.42,3.3L0,1.325C1.024-.114,2.441-.177,3.98.188L4.622.46A8.76,8.76,0,0,1,5.545,3.383Z" transform="translate(50.838 183.894)" fill="#26452f"/><path d="M1.96,4.334C1.271,4.221.8,3.468,0,3.681A11.291,11.291,0,0,1,1.122.006a3.042,3.042,0,0,1,2.9,1.818C3.612,2.887,2.548,3.414,1.96,4.334Z" transform="translate(13.702 104.068)" fill="#355d2a"/><path d="M0,.543C1.281.931,2.463.328,3.687.161a9,9,0,0,1,4.991.41,1.606,1.606,0,0,1-1.451.707c-2.135.122-4.256.416-6.4.461a.873.873,0,0,1-.7-.535Z" transform="translate(34.613 193.041)" fill="#24462e"/><path d="M.845,0A3.128,3.128,0,0,0,2.55,2.816C4.7,3.98,4.609,5.11,2.47,6.648,3.523,4.483,3.5,4.51,1.564,2.943.67,2.219-.442,1.517.181.035Z" transform="translate(74.623 77.157)" fill="#24452e"/><path d="M2.947,2.263A10.614,10.614,0,0,0,.143.38.682.682,0,0,1,0,.086,3.4,3.4,0,0,1,4.011,2.41C3.588,2.853,3.251,2.675,2.947,2.263Z" transform="translate(14.681 103.682)" fill="#22482b"/><path d="M.515,0,.943.256c.4.688.06.971-.594,1.08l-.341.055C-.013.858-.033.326.515,0Z" transform="translate(34.217 194.244)" fill="#9fada2"/><path d="M3.091,38.406,1.23,34.3C.2,30.193-.49,26.062.428,21.828A25.948,25.948,0,0,1,15.984,2.783c9.891-4.4,19.594-3.624,28.455,2.656,7.043,4.992,10.492,12.053,10.2,20.81a2.438,2.438,0,0,1-2.245,2.662c-6.569,1.353-13.136,2.729-19.671,4.238C24.529,35.04,16.334,36.931,8.091,38.6c-.719.146-1.412.421-2.116.639A2.423,2.423,0,0,1,3.091,38.406Z" transform="translate(1.575 39.481)" fill="#1f4a29"/><path d="M.258,1.939C1.549.828,3.215.56,4.755.1,6.039-.29,6.79.523,6.8,1.861a33.811,33.811,0,0,1-.109,3.383c-.077.826.221.923.957.853,2.345-.222,2.809.244,2.773,2.556-.032,2.087-.046,4.175-.068,6.263-.038.169-.133.426-.248.411-1.559-.2-2.8.746-4.192,1.138a2.361,2.361,0,0,1-.522,0,2.076,2.076,0,0,1-1.751-1.047c-.41-1.052-.021-2.111-.012-3.167.016-1.846-.218-2.13-2-2.206-.4-.017-.8,0-1.015-.43.285-.658.9-.388,1.383-.558A1.849,1.849,0,0,1,.44,8.932a1.457,1.457,0,0,1-.369-.65A2.419,2.419,0,0,1,.005,7.53c.084-.722.2-1.441.26-2.166A13.587,13.587,0,0,0,.3,3.736C.434,3.134.1,2.541.258,1.939Z" transform="translate(58.404 40.538)" fill="#1f4a29"/><path d="M9.326,13.66a8.521,8.521,0,0,1-4.283,2.219c-1.782.381-2.942-.475-3.381-2.24a7.016,7.016,0,0,1-.084-2.368c.1-1.114.165-2.14-.985-2.838C.065,8.112.049,7.426.033,6.879A19.032,19.032,0,0,1,.71,0c.848.53.56,1.378.56,2.121,0,.946-.2,1.882-.216,2.827C1,5.58.865,6.228,1.433,6.727a1.086,1.086,0,0,0,.446.223C4.317,7.2,4.317,7.2,4.187,9.731c-.014.278-.007.557-.025.836-.1,3.635-.1,3.63,3.363,3A2.181,2.181,0,0,1,9.326,13.66Z" transform="translate(55.962 45.278)" fill="#54765d"/><path d="M.1,7.969C-.294,6.23.626,4.488.09,2.749.43,1.6.221.066,2.063,0c.371.532.863,1.05.2,1.706A15.341,15.341,0,0,0,1.49,6.234a2.391,2.391,0,0,0,.241,1.76,1.3,1.3,0,0,0,.537.3c.15.019.3.043.444.062.642.04,1.328-.267,1.9.256a8.816,8.816,0,0,1-.31,5.589c-.373.058-.345-.322-.522-.48.033.176.158.331.13.52-.047.322-.187.512-.548.352a2.008,2.008,0,0,1-.143-1.318c-.039-.335-.105-.669-.113-1-.027-1.085,1.1-3.124-1.65-1.9A.838.838,0,0,1,.425,9.722,2.422,2.422,0,0,1,.1,7.969Z" transform="translate(56.572 42.495)" fill="#234a2e"/><path d="M.231.378.5,1.74c.386.215.629.663,1.132.688a3.7,3.7,0,0,0,2.645-.27c.448-.2.4-.454.224-.789C6,.74,7.394-.284,9.168.074A2.247,2.247,0,0,1,7.095,2.927a6.9,6.9,0,0,0-1.38.579c-1.045.244-2.1.441-3.132.744C.777,4.782-.052,4.233.062,2.366.1,1.709-.191,1,.231.378Z" transform="translate(59.592 55.512)" fill="#254630"/><path d="M32.291,39.729c-1.337.345-2.762.38-3.98,1.136l-.428-.281A46.557,46.557,0,0,0,21.5,35.019c-5.039-3.839-10.593-6.94-15.6-10.839a5.472,5.472,0,0,0-2.7-1.36l-.156-.708c-.831-1.774-.513-3.684-.656-5.539A11.611,11.611,0,0,0,5.348,12.8c1.269-3.07.3-5.512-1.788-7.748A3.977,3.977,0,0,1,3.221,4.7a10.419,10.419,0,0,0-2.5-2.221,1.94,1.94,0,0,1-.5-.591C-.017,1.282-.2.678.414.162,1.339-.288,2.041.3,2.728.73A10.127,10.127,0,0,1,6.439,4.751c.5,1.162,1.3,2.247.941,3.631a9.9,9.9,0,0,1-1.659,7.61c-.752,1.016-.385,1.591.238,2.343,2.048,2.474,4.678,4.286,7.132,6.292,4.873,3.985,9.844,7.852,14.672,11.89C29.2,37.72,31.223,38.049,32.291,39.729Z" transform="translate(22.419 144.354)" fill="#204a29"/><path d="M1.054,7.2C.728,4.842-.181,2.565.032.126a.563.563,0,0,1,.6-.07C2.975,1.257,3.763,3.3,4.18,5.8c.964,5.777,2.174,11.513,3.3,17.263.388,1.977.422,1.961,2.467,1.893a28.282,28.282,0,0,0,4.716-.718c5.066-1.031,10.193-1.781,15.176-3.2.779-.027,1.561.006,2.34-.08a1.688,1.688,0,0,1,1.714.83q.062.494.123.986c-.247,1.043-1.048,1.371-1.974,1.622-7.733,2.1-15.644,3.351-23.494,4.887-2.837.555-3.643-.1-4.313-2.893-.69-2.874-1.081-5.8-1.65-8.695C1.993,14.982,1.5,12.251.974,9.528A3.317,3.317,0,0,1,1.054,7.2Z" transform="translate(25.765 122.411)" fill="#24442e"/><path d="M11.324,11.829c-2-.387-3.806.552-5.7.86a24.148,24.148,0,0,0-2.738.767,2.073,2.073,0,0,1-.792-1.439C1.238,8.513.951,4.9.055,1.4A1.932,1.932,0,0,1,.136.237C.68-.312,1,.217,1.075.572c.4,1.964,1.686,1.754,3.085,1.339a3.253,3.253,0,0,1,.5-.079C7.208,1.372,9.738.847,12.278.374A3.942,3.942,0,0,1,14.109.268,2.666,2.666,0,0,1,15.377,2.2c.418,1.589.872,3.17,1.2,4.781a1.529,1.529,0,0,1-.25.8C14.523,8.949,13.165,10.688,11.324,11.829Z" transform="translate(55.624 120.714)" fill="#345b2a"/><path d="M1.887,4.05A12.309,12.309,0,0,1,6.616,0C7.9.178,7.592,1.315,7.883,2.093a1.162,1.162,0,0,1-.354.713c-5.48,2.287-6.073,11.774-.87,16.02,1.959,1.6,4.115,1.292,6.757-.814a1.261,1.261,0,0,1,.5-.145,2.235,2.235,0,0,1,1.657,1.86.891.891,0,0,1-.167.491c-4.655,4.761-10.318,2.724-13.06-1.7A13.467,13.467,0,0,1,1.887,4.05Z" transform="translate(65.111 128.652)" fill="#1f4a29"/><path d="M4.757.569C5.377,3.736,6.032,6.9,6.6,10.075a1.905,1.905,0,0,0,2.548,1.753c7.169-1.506,14.448-2.475,21.532-4.4a23.919,23.919,0,0,1,3.009-.6,2.82,2.82,0,0,0,2-1.141,1.817,1.817,0,0,1-1.319,2.267,20.353,20.353,0,0,1-3.724,1.13c-5.238,1.062-10.488,2.063-15.735,3.076a30.331,30.331,0,0,1-4.28.861,5.617,5.617,0,0,1-3.75-.706c-.525-.372-.877-.423-1.147.227A20.748,20.748,0,0,0,4.346,8.952c-.432-2.1-1.265-4.079-1.9-6.119a1.465,1.465,0,0,0-1.5-1.139c-.407-.009-.972.041-.952-.66A3.642,3.642,0,0,1,2.2.206C3.085.089,4.017-.346,4.757.569Z" transform="translate(24.087 139.564)" fill="#54765e"/><path d="M6.995,23.2q-.012-.143-.024-.286a2.5,2.5,0,0,0-.19-2.85,33.541,33.541,0,0,1-2.958-5.307C3.344,13.8,3.157,12.727,2.6,11.8A51.463,51.463,0,0,1,.278,5.365a6.329,6.329,0,0,1-.236-2.3A3.785,3.785,0,0,0,.235,1.406C.181.889,0,.239.767,0c.783.521.591,1.549,1.145,2.189,1.255,2.733,1.781,5.7,2.775,8.526a56.122,56.122,0,0,0,3.05,7.349c1.015,1.95,2.816,3.048,4.165,4.614.316,1.491-1.02,1.706-1.812,2.343l-.157.032-.159.023A10.362,10.362,0,0,0,6.995,23.2Z" transform="translate(73.557 125.653)" fill="#53755d"/><path d="M1.807,1.65,4.369,15.108Q5.038,19.389,5.7,23.67a1.817,1.817,0,0,1-.046,1.324c-.53-.082-.942-.587-1.539-.429a2.442,2.442,0,0,1-.433-1.092C2.169,16.563,1.467,9.51.046,2.582a3.177,3.177,0,0,1-.034-.846C.2.9.435.089,1.5,0A1.273,1.273,0,0,1,1.807,1.65Z" transform="translate(54.097 119.127)" fill="#1f4a29"/><path d="M1.773,4.194c.137.838.289,1.674.406,2.514.059.423-.043.822-.547.89a.671.671,0,0,1-.743-.557A19.493,19.493,0,0,1,.006,1.524C.048.359.8.264,1.639.928a10.376,10.376,0,0,1,.92.921c.153-.1.275-.141.32-.222.333-.6.213-1.655,1.2-1.627C5.118.03,5.123,1.068,5.314,1.788c.318,1.2.544,2.432.768,3.658.082.446.1.988-.526,1.054-.489.053-.639-.392-.721-.79C4.622,4.676,4.429,3.637,4.188,2.4c-.8.586-.666,1.831-1.771,1.634C2.172,3.967,1.761,3.245,1.773,4.194Z" transform="translate(48.28 153.176)" fill="#fbfcfc"/><path d="M4.5,4.071c.107.552.174.774.189,1,.037.529.471,1.3-.245,1.5-.826.226-.693-.685-.844-1.169-.2-.651-.223-1.355-1.282-1.133-.9.189-1.058.713-1,1.465.026.34.072.679.094,1.02s-.026.756-.4.847c-.451.11-.532-.32-.606-.644A14.61,14.61,0,0,1,.122,1.708C.228.932.544.08,1.525.006A1.934,1.934,0,0,1,3.518,1.332C3.928,2.329,4.25,3.362,4.5,4.071Z" transform="translate(42.707 154.727)" fill="#fbfdfc"/><path d="M.559,4.045a10.475,10.475,0,0,1-.3-1.672c-.018-.739-.826-1.8.53-2.1,1.246-.281,2.673-.7,3.436.882.515,1.069.488,2.2-.707,2.8-1.069.541-1.556,1.155-1.14,2.377.174.51.236,1.273-.547,1.353-.665.068-.663-.665-.774-1.132C.857,5.723.72,4.881.559,4.045Z" transform="translate(55.046 151.765)" fill="#fbfdfc"/><path d="M.153,4.464A4.653,4.653,0,0,1,.593.864,1.657,1.657,0,0,1,2.647.113a.862.862,0,0,1,.624.918c-.1.7-.492.39-.845.2-.4-.219-.621.051-.824.342-.68.977-.277,3.831.66,4.631.727.621.8-.052.977-.5s.274-1.14.967-.851c.565.236.465.856.289,1.35-.272.764-.645,1.5-1.549,1.638a1.932,1.932,0,0,1-1.83-1.027A4.965,4.965,0,0,1,.153,4.464Z" transform="translate(37.334 155.558)" fill="#fafbfb"/><path d="M.218,1.126,0,0C.552.161.67.593.863.963Z" transform="translate(49.83 156.224)" fill="#8bb394"/><path d="M8.367,13.711c2.689-2.585,5.347-5.2,8.076-7.744a38.552,38.552,0,0,1,7.4-5.393C24.5.2,25.32-.526,26.019.611c.31.468-.106.713-.328.994-1.209,1.541-1.208,1.576.448,2.824-.329,1.4-1.564,2.009-2.552,2.793A70.266,70.266,0,0,0,8.077,23.851a47.149,47.149,0,0,0-4.071,7.86c-.213.52-.291,1.111-.807,1.466a4.11,4.11,0,0,1-2.665.435C-.492,32.462.271,31.165.3,29.953a36.61,36.61,0,0,1,.864-4.277,4.016,4.016,0,0,1,.272-1.226q.666-1.642,1.448-3.233C4.591,18.627,6.439,16.139,8.367,13.711Z" transform="translate(50.343 83.514)" fill="#345b2a"/><path d="M2.074,12.941C-1.526,8.511-.309,2.773,4.714.491c3.233-1.468,7.656.5,8.9,3.983a7.377,7.377,0,0,1,.113,5.883,7.9,7.9,0,0,1-9.977,3.4A8.5,8.5,0,0,1,2.074,12.941Z" transform="translate(27.037 93.881)" fill="#3a8b2d"/><path d="M.454,8.108a30.432,30.432,0,0,0,8.4.157c.712-.3,1.179.255,1.7.531A6.356,6.356,0,0,0,18.98,7.34c.478-.526.758-1.293,1.612-1.385A93.207,93.207,0,0,0,34.493.335,8.14,8.14,0,0,1,35.44,0c.178,1.487-1.145,2.237-1.655,3.389A6.4,6.4,0,0,1,32.034,4.9a42.378,42.378,0,0,1-8.122,2.979A8.932,8.932,0,0,0,19.98,9.735,8.1,8.1,0,0,1,17.038,11.4a1.673,1.673,0,0,1-1.03-.014c-.583-.143-1.187-.522-1.673.212a1.64,1.64,0,0,0,.092,1.768A7.615,7.615,0,0,0,18.9,17.307a.539.539,0,0,1,.214.431c-1,1.3-2.048,1.467-3.431.446a13.888,13.888,0,0,1-3.291-3.828,1.859,1.859,0,0,1,.018-1.327c.122-.661.092-1.279-.6-1.609s-1.175.125-1.65.551a6.605,6.605,0,0,0-1.637,2.561c-.225.556-.27,1.259-1,1.481-2.352-1.231-2.507-2.086-.768-4.755-1.676.032-3.281-.026-4.886-.119A4.551,4.551,0,0,1,.3,9.288C.058,8.915-.3,8.4.454,8.108Z" transform="translate(20.295 98.983)" fill="#54765e"/><path d="M4.942,1.108c-.175,1.355,1.1,1.916,1.591,2.906a1.085,1.085,0,0,1,.688.462c2.141,3.4,4.11,6.884,4.794,10.928-.382.679-1.052.688-1.707.733l-.354.071C8.923,14.47,7.922,12.715,6.855,11A37.757,37.757,0,0,0,0,2.445C-.053,1.058,1.215.736,1.968,0L3.032.148Z" transform="translate(15.66 106.047)" fill="#366228"/><path d="M11.781.617A17.97,17.97,0,0,1,9.188,3.476,6.453,6.453,0,0,1,1.351,3.7c-.422-.276-.869-.515-1.3-.771L0,2.584c.792-.259,1.429.22,2.084.49C4.96,4.26,7.456,3.542,9.74,1.644c.647-.538,1.279-1.1,1.918-1.644Z" transform="translate(29.118 104.3)" fill="#336e31"/><path d="M1.141,4.8,2.972,1.661,5.771,0c.439.376,0,.56-.175.8L.616,7.654C-.363,7.62.082,6.977.23,6.6.471,5.972.919,5.438,1.141,4.8Z" transform="translate(52.89 97.24)" fill="#608f6a"/><path d="M1.964,3.831C.819,4.215.55,3.129.116,2.568c-.385-.5.279-.952.662-1.343S1.512.41,1.877,0l.411.277c.54.9,1.587,1.583,1.241,2.868C3.177,3.762,2.743,4.189,1.964,3.831Z" transform="translate(74.539 83.982)" fill="#33542c"/><path d="M0,.893C.847.1,1.989.287,2.988,0q.178.082.139.2C3.1.27,3.071.31,3.034.317Z" transform="translate(83.898 183.856)" fill="#396f41"/><path d="M.046.794C.029.688.013.583,0,.477L2.349,0C1.756.771.813.528.046.794Z" transform="translate(86.897 183.379)" fill="#448547"/><path d="M0,2.205c.222-.347.7-.552.593-1.08C3.263.5,6.03.766,8.71.236L10.052,0c2.477,1.124,5.272,1.316,7.69,2.616.347.187.723.323,1.058.528a1.247,1.247,0,0,1,.541,1.865c-.445.8-1.129.71-1.768.4A40.593,40.593,0,0,0,7.361,2.382,12.936,12.936,0,0,0,1.992,2.6C1.28,2.756.528,3.021,0,2.205Z" transform="translate(34.603 193.375)" fill="#336e31"/><path d="M5.664,10.111l-2.34.5a1.153,1.153,0,0,1-1.663.257l-.421-.221C.52,9.7.634,8.52.52,7.461a22.429,22.429,0,0,1-.2-3.3C.3,3.074-.621,1.861.756.96A4.2,4.2,0,0,1,4.07.016q.151.008.3.009c.365,2.9,1.006,5.744,1.5,8.616A2.041,2.041,0,0,1,5.664,10.111Z" transform="translate(20.71 129.988)" fill="#345b2a"/><path d="M4.41,11.7a9.493,9.493,0,0,1-3.313.944,1.242,1.242,0,0,1-.605-1.075A85.56,85.56,0,0,1,.015,1.462,12.9,12.9,0,0,1,.232,0,16.347,16.347,0,0,1,4.41,11.7Z" transform="translate(20.367 118.185)" fill="#669a72"/><path d="M1.254,1.871l.4.273a3.235,3.235,0,0,0,2.535,2.29h0a16.494,16.494,0,0,1,1.7,3.328,5.272,5.272,0,0,1-.592,5.5c-.7.908-.994,2.2-2.25,2.637a2.125,2.125,0,0,1-.656-2.775,4.175,4.175,0,0,0-.049-2.947C1.332,7.057,1.1,3.734.011.617-.046.453.128.207.195,0,.917.414.521,1.462,1.254,1.871Z" transform="translate(21.678 143.971)" fill="#2f4c2a"/><path d="M1.583,10.537C1.112,8.108.667,5.674.156,3.253A4.532,4.532,0,0,1,.291.45L1.952,0Q2.968,5.225,3.985,10.451C3.17,10.06,2.383,10.487,1.583,10.537Z" transform="translate(24.81 129.553)" fill="#324f2e"/><path d="M.6.257,2.266,0C4.848.3,4.814.308,5.7,3.27,6.15,4.758,6.975,6.154,6.6,7.8A9.092,9.092,0,0,0,1.213,3.254c-.181-.023-.384-.008-.443-.249C.279,2.116-.595,1.25.6.257Z" transform="translate(21.775 140.69)" fill="#669a72"/><path d="M2.373,0c.328.862.025,1.933.864,2.627.128.052.18.118.157.2s-.054.126-.092.133c.6,1.916,0,3.92.429,5.849a5.344,5.344,0,0,1-1.075-3.9c.006-1.28-.471-1.829-1.726-1.8A2.677,2.677,0,0,1,.15,2.888C-.293,2.026.389,1.266.374.443Z" transform="translate(21.689 157.183)" fill="#24442e"/><path d="M.153,0c.555,2.125.265,4.37.918,6.482C.779,6.495.4,6.464.406,6.137.425,4.086-.31,2.066.153,0Z" transform="translate(20.772 134.165)" fill="#33512c"/><path d="M.672,0l.442.249c-.528.583-.092,1.2-.055,1.8C-.221,1.949.354.8,0,.177Z" transform="translate(21.868 143.685)" fill="#274930"/><path d="M0,21.076A49.449,49.449,0,0,1,6.54,7.358,64.881,64.881,0,0,1,11.992,0c1.129,1.576,2.351,2.879,4.608,2.349.679-.16.97.677,1.35,1.15,1.136,1.415,2.188,2.9,4.146,3.325.959.207.835.984.549,1.638-.733,1.671-1.461,3.314-1.073,5.228.136.668-.491,1-.971,1.268A48.35,48.35,0,0,1,9.07,19.778c-2.026.525-4.037,1.094-6.1,1.48A4.769,4.769,0,0,1,0,21.076Z" transform="translate(72.513 158.546)" fill="#679a71"/><path d="M22.465,0c-.816,1.492-2.392,1.872-3.78,2.384A80.35,80.35,0,0,1,8.727,5.645,25.717,25.717,0,0,1,0,6.366a1.366,1.366,0,0,1,1.192-.534c6.062-.535,11.8-2.467,17.579-4.165A28.328,28.328,0,0,0,22.465,0Z" transform="translate(73.131 178.038)" fill="#24452e"/><path d="M0,2.189C.263,1.239,1.518,1.127,1.731.136A.191.191,0,0,1,2.066.073L3.6,2.571c.014.108.03.214.048.321l-.9,4.372c-.751.129-.892.961-1.478,1.28-.541-1.438.108-2.85.091-4.277C1.35,3.281,1.294,2.332,0,2.189Z" transform="translate(83.668 148.611)" fill="#25442e"/><path d="M15.3,60.223l-.168.027-.167.036c-4.543-2.91-6.155-7.616-7.634-12.414-.847-2.748-1.752-5.48-2.63-8.218-.559-1.087-.442-2.429-1.292-3.4a3.681,3.681,0,0,1-.362-1.591,3.309,3.309,0,0,0-.316-2.005,2.567,2.567,0,0,1-.136-.543,45.064,45.064,0,0,0-1.423-7.165,30.936,30.936,0,0,1-.663-6.921C.342,14.856-.048,11.7,0,8.517A8.084,8.084,0,0,1,.221,7.158,6,6,0,0,1,2.606,4.587C4.548,3.169,6.252,1.477,8.138,0A82.341,82.341,0,0,1,18.308,18.617c2.333,6.132,4.321,12.395,6.48,18.594a6.008,6.008,0,0,0,1.555,2.415,1.65,1.65,0,0,1,.31.458A42.831,42.831,0,0,1,29.266,50.4a.849.849,0,0,1-.095.537c.372,2.214-.915,3.949-1.68,5.835-2.035.274-3.785,1.4-5.754,1.91a17.784,17.784,0,0,1-5.1.974A1.359,1.359,0,0,0,15.3,60.223Z" transform="translate(70.545 88.138)" fill="#679a71"/><path d="M16.967,8.756c.287,4,.782,8,.8,12,.013,3.352,1.193,6.423,1.663,9.651a11.338,11.338,0,0,1,.209,2.87,4.21,4.21,0,0,1-3.423.342l-9.738,1.84c.106-1.029,1-.941,1.65-1.087,1.994-.447,4.011-.791,6.015-1.193.819-.164,1.382-.5,1.205-1.483-1.036-5.744-2.828-11.317-3.593-16.935-.419-.222-.587-.176-.7-.05C7.652,18.521,4.134,22.245,2,26.99a5.149,5.149,0,0,1-1.46,2.068A.6.6,0,0,1,0,29.1c.525-3.088,2.2-5.69,3.771-8.269A66.289,66.289,0,0,1,19.293,3.687c1.188-.952,2.3-2,3.448-3L24.306,0l.456.618c-1.475,2.61-4.3,3.751-6.3,5.8-.432.444-.913.841-1.371,1.26-1.215,1.465-2.738,2.621-3.848,3.848,1.154-.823,2-2.361,3.528-3.12.031-.015.1.033.144.063C17.005,8.53,17.019,8.629,16.967,8.756Z" transform="translate(53.724 87.328)" fill="#54765e"/><path d="M.025,2.928Q.012,2.751,0,2.573L4.306,0c-.067.374-.266.745.116,1.092A11.914,11.914,0,0,1,7.537,6.586a3.218,3.218,0,0,0,2.023,2.5c-.64,2.456-4.342,5.094-6.729,4.794L2.7,13.559c.259-.453.749-.455,1.167-.6a1.731,1.731,0,0,0,1.326-1.925A21.438,21.438,0,0,0,3.686,4.816C2.916,3.124,1.62,2.828.025,2.928Z" transform="translate(96.887 125.3)" fill="#33542c"/><path d="M37.774,18.8c-8.1,1.5-16.081,3.5-24.127,5.227-1.83.392-3.645.856-5.467,1.287a34.522,34.522,0,0,1-4.625,1.018c-.967.22-1.5-.3-1.775-1.149A19.093,19.093,0,0,1,1.137,22.2C.67,19.183.231,16.162.029,13.114a4.725,4.725,0,0,1,.22-2.176c.488-.845,1.347-.685,2.118-.783C4.913,9.83,7.481,9.55,9.327,7.434a1.3,1.3,0,0,1,1.832-.165,5,5,0,0,0,4.265.44q3.423-1,6.778-2.222a2.924,2.924,0,0,0,1.9-1.574,5.912,5.912,0,0,0,.572-2.463C24.686.89,24.642.2,25.318.027c.657-.167.96.487,1.3.91.774.959,1.265,2.173,2.491,2.719,1.379.7,2.736.142,4.1-.065,1.033-.158,2.079-.581,3.084.115a4.488,4.488,0,0,1,1.185,1.851,45.18,45.18,0,0,1,3.492,10.321,3.079,3.079,0,0,1-.021,2.007C39.978,18.493,38.754,18.222,37.774,18.8Z" transform="translate(10.229 48.339)" fill="#f8ccad"/><path d="M0,8.908C6.364,1.015,18.649-2.158,28.539,1.534c.478.178.966.33,1.448.494a1.733,1.733,0,0,1,.676.3c.847,1.043,1.956,1.839,2.785,2.888.319.4,1.187,1.042-.023,1.52-1.716-.485-3.048-1.723-4.7-2.353C20.867,1.4,13.341,2.245,6.036,6.159c-1.661.891-3.113,2.087-4.689,3.1a1.853,1.853,0,0,1-.53.155C.448,9.4.047,9.439,0,8.908Z" transform="translate(9.911 42.239)" fill="#669a72"/><path d="M3.289,4.314c-.053-1-.854-1.444-1.474-2.048A5.965,5.965,0,0,1,0,.1c1.141-.38,1.925.429,2.749.917A19.7,19.7,0,0,1,9.934,8.27a16.006,16.006,0,0,0,1.658,3.119,22.045,22.045,0,0,1,2.083,7.45c.272,2.473-.3,2.986-2.852,2.811A45.562,45.562,0,0,0,6.011,7.585,7.574,7.574,0,0,1,5.268,6.8,5.43,5.43,0,0,0,3.952,5.385C3.645,5.081,3.151,4.891,3.289,4.314Z" transform="translate(40.506 44.536)" fill="#54765e"/><path d="M3.191,7.32c-.12,4.9.884,9.657,1.811,14.426.173.89.56,1.224,1.523.978,1.418-.362,2.874-.578,4.314-.856-.695.732-1.673.588-2.529.777-1.921.425-3.863.755-5.8,1.124A7.817,7.817,0,0,1,.95,19.547c-.472-3.915-1.2-7.813-.867-11.81.14-1.7.439-3.352.694-5.022C1.235,1.655,1.224.244,2.785,0c.7.85.169,1.742.014,2.581a4.022,4.022,0,0,0,.565,3.231A1.742,1.742,0,0,1,3.191,7.32Z" transform="translate(7.571 51.818)" fill="#32542e"/><path d="M4.023,0c.188,1.815-.55,3.519-.565,5.345A82.339,82.339,0,0,0,4,14.6c.243,2.33,1.081,4.473,1.4,6.749l-2.4.437a13.31,13.31,0,0,1-2.7-6.66A21.468,21.468,0,0,1,2.2,2.073C2.6,1.26,2.916.248,4.023,0Z" transform="translate(4.69 54.259)" fill="#356329"/><path d="M4.521,2.944C1.7,6.523,1.049,10.716.955,15.117.881,18.594,2.393,21.6,3.492,24.732c-.976.345-1.187-.465-1.441-1.041A20.963,20.963,0,0,1,3.384,3.208C4.064,2.1,4.3.59,5.719,0a.721.721,0,0,0,.734.192c.133.27.035.4-.253.4C5.183,1.051,4.94,2.061,4.521,2.944Z" transform="translate(4.192 51.291)" fill="#659971"/><path d="M10.315,9.483A29.975,29.975,0,0,0,3.943,3.234,20.778,20.778,0,0,0,.381,1.311L0,1A1.943,1.943,0,0,1,3.178.685C6.037,3.226,8.79,5.858,10.315,9.483Z" transform="translate(40.115 43.278)" fill="#24442e"/><path d="M3.1,10.261c2.815-.606,2.553.064,2.373-3.5A23.392,23.392,0,0,0,3.867,0c1.89,2.759,2.319,5.98,2.724,9.16.143,1.121-.282,2.254-2.061,1.583-1.486-.56-3.011.3-4.53.413C.952,10.579,2.085,10.629,3.1,10.261Z" transform="translate(48.256 56.023)" fill="#25452f"/><path d="M6.171,8.075l.973.215c-1.233,1.479-2.633,1.808-4.094,1a.784.784,0,0,1-.2-1.218c.1-1.9.6-3.785.144-5.7-.675-.306-1.306.257-1.974.1l-.351-.1C.166,1.536-.638.671.872,0l.181.665a.637.637,0,0,1,.174.649,5.425,5.425,0,0,0,.808.027c2-.22,2.663.415,2.555,2.455-.062,1.174-.118,2.349-.177,3.523.108,1.048.877.8,1.529.78A.138.138,0,0,0,6.171,8.075Z" transform="translate(57.909 48.749)" fill="#e7eae8"/><path d="M1.045,4.493C.163,5.216.762,6.065.845,6.87L.4,6.694A3.031,3.031,0,0,1,.052,4.679C.144,3.269.223,1.858.335.45c.037-.466.5-.334.781-.45A2.308,2.308,0,0,1,1.24,1.708,4.522,4.522,0,0,0,.972,3.831Q1.009,4.161,1.045,4.493Z" transform="translate(57.719 44.2)" fill="#b9babc"/><path d="M1.6.78C.782,1.116-.277,1.934.067,0Z" transform="translate(62.262 56.124)" fill="#1b4422"/><path d="M.249,2.193C-.314,1.485.259.763.227.048.226.033.322,0,.37,0A.451.451,0,0,1,.517.071,3.941,3.941,0,0,1,.249,2.193Z" transform="translate(58.444 45.844)" fill="#cacecc"/><path d="M.222.649C-.056.492-.019.25.047,0L1.807.182,1.83.337Z" transform="translate(58.905 49.398)" fill="#1a4422"/><path d="M.207,0,.53,1.752A1.289,1.289,0,0,1,.207,0Z" transform="translate(56.456 50.519)" fill="#294833"/><path d="M.681.889l.2,1.218c-1.1.551-.622-.526-.878-.846C.365.976.119.544.323,0Z" transform="translate(60.074 55.99)" fill="#1c4623"/><path d="M0,.241C.659.228,1.3-.222,1.974.141,1.316.184.679.629,0,.241Z" transform="translate(58.922 50.984)" fill="#2b5637"/><path d="M.219,0,.571,2.015A1.578,1.578,0,0,1,.219,0Z" transform="translate(57.549 48.918)" fill="#294833"/><path d="M.065,11.652Q.032,11.486,0,11.32A6.357,6.357,0,0,1,1.128,9.346c1.933-2.207,2.057-4.4.5-6.935A8.315,8.315,0,0,1,.936,0,6.786,6.786,0,0,1,2.883,8.949C2.224,10.1,1.961,11.755.065,11.652Z" transform="translate(24.944 148.419)" fill="#2f5626"/><path d="M2.535,2.29a.433.433,0,0,0-.161-.032C.462,2.683.031,1.553,0,0A4.857,4.857,0,0,1,2.535,2.29Z" transform="translate(23.335 146.032)" fill="#2e5425"/><path d="M27.416.158,27.765.09c.521-.281.7.158.955.447.179.517.1.909-.548.859a1.608,1.608,0,0,0-1.455.611,3.723,3.723,0,0,0-.646.829,7.624,7.624,0,0,0,.238,3.028c1.2,6.223,2.419,12.442,3.605,18.668.165.867.529,1.762-.019,2.635-5.271,1.66-10.762,2.3-16.133,3.493-1.892.421-3.814.5-5.718.758-1.195.163-1.117-.69-1.251-1.371q-2.013-10.3-4-20.6c-.076-.391-.15-.782-.238-1.17-.063-.277-.157-.673-.46-.632C.66,7.836.574,6.556,0,5.81c.363-.645,1.067-.464,1.613-.666A2.17,2.17,0,0,1,3.22,4.3C9.848,3.017,16.456,1.632,23.111.491a1.97,1.97,0,0,1,1.307.224Z" transform="translate(26.145 116.602)" fill="#1f4a29"/><path d="M4.577,25.028Q2.382,13.712.192,2.394C.024,1.524-.332.583.762,0,1.848-.055,1.813,1.32,2.7,1.518c.045.06.089.122.133.183q1.92,10.8,3.847,21.6a3.233,3.233,0,0,1-.028,1.676A3.4,3.4,0,0,1,4.577,25.028Z" transform="translate(51.556 118.716)" fill="#366328"/><path d="M.816,16.211,0,15.613C2.48,9.77,6.65,5.12,10.717.4c.516-.6.821-.514.993.235.026.111.052.222.069.334.909,5.786,2.528,11.42,3.713,17.148.293,1.416-.07,1.914-1.458,2.114-2.137.307-4.25.787-6.368,1.218-.539.109-1.161.051-1.54.594-.108.026-.215.057-.324.08-2.745.591-2.743.59-3.618-2a1.634,1.634,0,0,0-.294-.4q-.2-.8-.394-1.607C.677,17.689,1.349,16.734.816,16.211Z" transform="translate(54.042 100.829)" fill="#679a71"/><path d="M0,.471C1.134.289,2.233-.244,3.423.13l.006.008a2.336,2.336,0,0,1,.339,1.686q.146.839.292,1.677a1.179,1.179,0,0,1,.232,1.3c-.333.528-.073,1.058,0,1.585s.3,1.1-.429,1.373c-.521-.554-1.28.026-1.832-.383Z" transform="translate(69.955 120.683)" fill="#324f2e"/><path d="M.273.536C.832.91,1.89-1.11,2.1.919l.417,2.3a1.087,1.087,0,0,1-1.393-.067C.4,2.594.8,1.461,0,.933Z" transform="translate(71.715 127.567)" fill="#24452d"/><path d="M3.488.078A2.346,2.346,0,0,1,4.881.145L7.2,6.672a13.722,13.722,0,0,0,1.164,3.382,34.568,34.568,0,0,0,1.59,3.49c.306.825.8,1.694-.259,2.38l-.334.07c-4.4,2.9-9.518-1.355-9.352-5.77A9.23,9.23,0,0,1,2,4.718,4.891,4.891,0,0,0,3.21.469Z" transform="translate(69.372 130.775)" fill="#33542c"/><path d="M4.8,0a2.307,2.307,0,0,1,.049,3.209c-1.382,1.936-2.755,3.836-2.8,6.429A6.032,6.032,0,0,0,9.1,15.883c.615-.113,1.228-.238,1.842-.357-2.581,3-5.9,2.812-8.473-.186C-.711,11.638-.735,5.333,1.912,1.918A4.433,4.433,0,0,1,4.8,0Z" transform="translate(67.778 131.255)" fill="#366228"/><path d="M1.6,6.356c.595-.974.034-1.825-.334-2.664A10.893,10.893,0,0,1,.1.389C-.115.066.046-.013.349,0A35.957,35.957,0,0,0,3.573,5.726c.659,1.1.662,1.878-.535,2.492A4.1,4.1,0,0,0,1.6,6.356Z" transform="translate(77.479 140.383)" fill="#25462e"/><path d="M1.321,2.9l-.254.387C.545,2.248-.254,1.294.078,0,.754.854.8,1.977,1.321,2.9Z" transform="translate(76.493 137.42)" fill="#2d4e2f"/><path d="M.232,1.3,0,0C.932,1.039.641,2.434,1.053,3.625.26,3.032.559,2.055.232,1.3Z" transform="translate(74.024 124.196)" fill="#54765e"/><path d="M1.89,0c.734.451.5,1.248.681,1.9L1.46,3.15l-.009,0A5.645,5.645,0,0,1,0,1C.191.359.547,0,1.256.276,1.575.4,1.919.645,1.89,0Z" transform="translate(52.925 117.102)" fill="#24472e"/><path d="M.448,0a1.337,1.337,0,0,1,.941,1.151c.124.519-.23.689-.642.777-.685.146-.707-.347-.741-.8A1.2,1.2,0,0,1,.448,0Z" transform="translate(43.991 156.03)" fill="#78a683"/><path d="M.45.009c.763-.068,1.138.238,1.2.807.061.535-.342.779-.807.9C.148,1.9.159,1.351.067.938-.036.477-.091.013.45.009Z" transform="translate(56.622 153.12)" fill="#70a07b"/><path d="M2.916,1.286,2.756,2.32A27.778,27.778,0,0,0,1.288,8.006c-.04.438,0,1.09-.777,1.05A1.9,1.9,0,0,1,.022,7.331,18.441,18.441,0,0,1,2.111.064C3.522-.285,2.62.9,2.916,1.286Z" transform="translate(49.104 106.81)" fill="#54765d"/><path d="M.375,6.731C.951,4.442,1.231,2.058,2.53,0A59.028,59.028,0,0,0,1.3,7.924l-1.059.19A.95.95,0,0,1,.375,6.731Z" transform="translate(49.329 109.15)" fill="#345130"/><path d="M.689,5.95C-.03,5.766.825,4.857.1,4.676-.346,3.3.8,2.435,1.19,1.329L2.673,0c.375,1.054-1.142,1.761-.525,2.859Z" transform="translate(51.342 102.078)" fill="#597f62"/><path d="M6.338.078A2.354,2.354,0,0,1,5.184,1.728c-1.091.793-1.234,1.589-.363,2.644.38.46.881,1.176.235,1.641-.721.519-1.033-.353-1.411-.8C3.464,5,3.321,4.752,3.15,4.5c-.705.086-.722.795-1.082,1.18-.331.353-.545.994-1.192.595C.267,5.9.65,5.38.8,4.912A.524.524,0,0,1,.87,4.758C1.8,3.5,1.976,2.375.434,1.415A.773.773,0,0,1,.183.231.612.612,0,0,1,1.1.187C2.473,1.894,3.806,1.3,5.2.233,5.43.06,5.848.136,6.338.078Z" transform="translate(30.939 98.334)" fill="#fafcfa"/><path d="M30.08,0c.262,1.319-1.051,2.125-1.087,3.347-.64,2.278-1.655,4.45-1.837,6.857a6.412,6.412,0,0,0,.108,2.181l-.129,1.384L5.388,18.009A59.02,59.02,0,0,0,1.679,9.493C1.1,8.523.559,7.533,0,6.552c.632-.738,1.361-.1,2.042-.136,1.175-.064,2.353-.1,3.206-.133a14.5,14.5,0,0,0-1.34,2.61c-.388,1.29.985,1.7,1.591,2.492.9,2.21,1.531,2.269,3.18.337.574-.673.844-1.616,1.748-2,1.224.741,1.708,2.127,2.7,3.086,1.527,1.48,2.643,1.584,3.817.2a6.13,6.13,0,0,0-1.768-5.22c-.259-.276-.616-.522-.483-1C18.62,3.355,23.738,2.574,28.363.69,28.934.457,29.508.23,30.08,0Z" transform="translate(22.344 103.491)" fill="#679a71"/><path d="M5.026,3.423a7.872,7.872,0,0,1-2.2,3C2.2,6.891,1.723,7.881.671,7.364S.13,5.886.1,5.085C.809,3.649,1.132,2.025,2.43.876,3.157.232,3.77-.352,4.751.256c.961.595.817,1.49.572,2.386A8.133,8.133,0,0,1,5.026,3.423Z" transform="translate(27.736 109.798)" fill="#3a8b2d"/><path d="M2.272.208A7.759,7.759,0,0,1,4.946,4.329a1.761,1.761,0,0,1-.423,2.094l-.016-.085A9.4,9.4,0,0,1,.3,2.232C-.364.828.072.154,1.574,0Z" transform="translate(34.79 110.082)" fill="#3a8b2d"/><path d="M2.441.4c-1.274.2-1.434.994-.963,1.988a8.246,8.246,0,0,0,2.8,3.12,2.556,2.556,0,0,1,1.091,1.23C2.639,6.654,1.5,4.655.332,2.624A1.639,1.639,0,0,1,.478.471C1.119-.263,1.771-.021,2.441.4Z" transform="translate(33.919 109.681)" fill="#336e31"/><path d="M0,0A2.193,2.193,0,0,1,.448,1.59C-.07,1.261.093.769,0,0Z" transform="translate(24.687 152.498)" fill="#2f5525"/><path d="M.1.295C2.479-.6,4.063.528,4.911,3.783,5.2,4.878,5.357,6,5.573,7.116c.546,2.822-.032,3.608-2.8,3.809a1.273,1.273,0,0,1-.484-1.2C2.267,6.9,1.184,4.34.291,1.738.124,1.253-.146.82.1.295Z" transform="translate(96.815 127.942)" fill="#366328"/><path d="M1.713,1.394C1.3,1.28.978,1.208.669,1.1S-.051.879.005.466C.078-.072.539-.018.94.026c.449.049.9.1,1.345.164,1.638.226,1.8.549.787,1.846-.838,1.076-1.016,1.794.7,1.894a2.331,2.331,0,0,1,.962.3c.226.126.525.382.53.587a.609.609,0,0,1-.714.566C3.4,5.3,2.1,5.625,1.231,4.557S1.266,2.549,1.713,1.394Z" transform="translate(88.679 122.001)" fill="#f8faf9"/><path d="M4.024,1.569C4,2.6,4.529,3.949,2.76,3.887,1.524,3.844-.119,2.029.007.875.038.589.107.287.45.253.84.215,1.065.5,1.227.8c.377.705.53,1.6,1.652,1.886-.011-.338-.027-.54-.022-.742C2.875,1.22,2.051.155,3.55,0c.912-.092,2.594,1.4,2.538,2.179-.043.609-.387.632-.8.312C4.909,2.194,4.659,1.708,4.024,1.569Z" transform="translate(76.707 96.83)" fill="#f7faf8"/><path d="M4.653,2.15C5,3.395,4.173,3.784,3.236,3.993A2.485,2.485,0,0,1,.047,2.26,1.743,1.743,0,0,1,1.443.089,2.689,2.689,0,0,1,4.653,2.15Z" transform="translate(86.154 116.297)" fill="#fbfcfc"/><path d="M3.146.916c-.1-.288-.216-.673.173-.853.527-.244.66.278.849.587a14.644,14.644,0,0,1,.8,1.493c.2.425.855.828.359,1.326-.456.458-.746-.287-1.124-.369a1.516,1.516,0,0,0-1.9.806c-.356.986-.689.735-1.032.1C.835,3.213.508,2.364.144,1.536,0,1.217-.13.839.239.627c.5-.29.639.234.9.5.375.382.207,1.289.962,1.231C2.838,2.3,3.873,2.229,3.146.916Z" transform="translate(79.351 101.282)" fill="#f6f9f7"/><path d="M5.156,3.313c-.009.459-.479.751-.743.415-.929-1.183-1.8-.416-2.716-.1a6.623,6.623,0,0,1-1,.215C.388,3.9.077,3.8.011,3.505s.173-.511.465-.626a10.034,10.034,0,0,1,1.262-.507c.943-.231,1.645-.533.984-1.7C2.595.452,2.558.073,2.95,0a.674.674,0,0,1,.568.242C4.076,1.231,4.59,2.241,5.156,3.313Z" transform="translate(82.322 106.205)" fill="#f5f8f5"/><path d="M4.49,1.419c.081.4.111.778-.228.967-.443.247-.494-.222-.71-.448-1-1.045-1.84-.875-2.272.495-.224.709-.562.4-.814.152A1.342,1.342,0,0,1,.188.888,2.036,2.036,0,0,1,2.406.025,2.268,2.268,0,0,1,4.49,1.419Z" transform="translate(84.532 111.926)" fill="#f6f9f7"/><path d="M4.008,1.077c-1.191,0-1.483,1.179-2.263,1.718C1.156,3.2.809,3.911,0,4.072A23.207,23.207,0,0,1,4.136,0C4.2.371,4.34.753,4.008,1.077Z" transform="translate(66.683 94.922)" fill="#597f62"/><path d="M.339,1.687,0,0A1.242,1.242,0,0,1,.339,1.687Z" transform="translate(73.388 120.784)" fill="#54765e"/><path d="M.648,5.6l.253-.4q.161-.021.323-.036C2.5,5.812,2.207,6.923,2.048,8c-.291,1.964-.176,2.048,1.81,1.725C6.151,9.347,8,8.487,8.539,5.94a3.221,3.221,0,0,1,.809-1.488,1.852,1.852,0,0,1,3.3.762c.667,2.3.759,2.377,3.034,1.846A46.227,46.227,0,0,0,21.2,5.272a2.785,2.785,0,0,0,1.8-2.3c.281-1.436.931-2.613,2.491-2.914A3.179,3.179,0,0,1,28.895,1.83a3.24,3.24,0,0,0,3.93,1.581,2.711,2.711,0,0,1,1.841.1A2.133,2.133,0,0,1,36,4.982a11.434,11.434,0,0,1-6.787,1.041C27.4,5.41,27.357,3.205,25.778,2.277c-.347,1.245.109,2.645-.724,3.767A2.911,2.911,0,0,1,23.413,7.19c-3.21.7-6.344,1.723-9.572,2.349-1.476.286-2.331-.4-2.86-2.176A3.78,3.78,0,0,1,9.944,9.628a2.893,2.893,0,0,1-1.766.939c-1.83.388-3.665.752-5.509,1.062a2.011,2.011,0,0,1-1.637-.2C-.2,10.835-.049,9.744.091,8.7S.459,6.629.648,5.6Z" transform="translate(9.744 46.197)" fill="#713427"/><path d="M5.414,11.21A4.019,4.019,0,0,1,.653,8.188C.184,6.493-.321,4.819.262,3.067a3.9,3.9,0,0,1,3.119-3A3.816,3.816,0,0,1,7.218,1.721a7.662,7.662,0,0,1,1.3,6.732A3.5,3.5,0,0,1,5.414,11.21Z" transform="translate(34.428 55.549)" fill="#fefefe"/><path d="M7.932,5.036c.13.667.218,1.055.278,1.448.323,2.109-.5,3.9-2,4.4-2.414.8-4.427.058-5.394-2.126A8.356,8.356,0,0,1,.357,2.778,3.6,3.6,0,0,1,3.308.025C5.042-.175,6.19.865,7,2.259A6.308,6.308,0,0,1,7.932,5.036Z" transform="translate(15.779 60.031)" fill="#fefefd"/><path d="M2.661,9.214C.513,9.705-.066,9.283.006,7.139.069,5.274.2,3.41.33,1.547.38.853.539.15,1.4.019a1.473,1.473,0,0,1,1.621.987Q4.255,3.8,5.389,6.634A1.484,1.484,0,0,1,4.455,8.7,13.245,13.245,0,0,1,2.661,9.214Z" transform="translate(26.018 59.799)" fill="#cf6a43"/><path d="M.077,3.6,1,0C2.2,3.619,2.2,3.625,5.763,2.826A63.3,63.3,0,0,0,15.084.3a2.363,2.363,0,0,1-1.709,1.741c-2.564.882-5.128,1.777-7.733,2.521a4.339,4.339,0,0,1-4.477-.785c-.457-.437-.7-.024-1,.19Q-.02,3.883,0,3.745C.018,3.652.043,3.6.077,3.6Z" transform="translate(19.826 51.98)" fill="#ac9481"/><path d="M9.029,0l.088.376c-1.879,2.65-4.814,2.67-7.6,3.043-.5.067-1.009.062-1.514.09Q.007,2.8.014,2.094C2.457,1.638,4.9,1.177,7.345.73A3.354,3.354,0,0,0,9.029,0Z" transform="translate(10.761 55.61)" fill="#ab927f"/><path d="M0,1.041,6.786,0a1.094,1.094,0,0,1,.548.935c-1.49-.307-2.863.348-4.3.522A3.773,3.773,0,0,1,0,1.041Z" transform="translate(39.161 51.206)" fill="#a9907e"/><path d="M33.442,5.3l-2.509.483a2.905,2.905,0,0,1-3.311-1.462,4.522,4.522,0,0,0-1.692-1.869C24.485,1.723,22.607,2.376,22.462,4c-.224,2.51-1.677,3.578-3.793,4.088-1.705.412-3.293,1.189-5.053,1.436-1.875.263-2.551-.088-2.6-1.971-.026-1-.329-1.531-1.235-1.682-.861-.144-1.342.439-1.7,1.125a1.642,1.642,0,0,0-.172.479c-.588,3.5-3.2,4.3-6.166,4.691-1.248.166-1.8-.074-1.545-1.489C.419,9.44,1.023,8.133,0,6.944,9.015-.16,18.776-2.2,29.524,2.641A32.785,32.785,0,0,1,32.6,4.435Z" transform="translate(10.968 44.389)" fill="#92301f"/><path d="M1.179,9.966c-.369-1.9-.723-3.8-1.11-5.7C-.165,3.12.178,2.376,1.388,2.138,4.17,1.589,6.937,1,9.678.239,12.051-.419,12.84.244,13.332,2.7c.594,2.958,1.154,5.923,1.723,8.885.474,2.469-.007,3.374-2.415,4-2.466.643-5,.957-7.444,1.773-1.693.566-2.62-.209-2.982-2.029-.356-1.786-.7-3.576-1.042-5.365Z" transform="translate(34.592 124.273)" fill="#366328"/><path d="M.611,0A2.47,2.47,0,0,1,2.062,2.157C.743,2.355.68,1.031,0,.454A.722.722,0,0,1,.611,0Z" transform="translate(52.309 118.103)" fill="#31532c"/><path d="M.567,0l.95,4.9C-.043,3.816-.471,1.974.567,0Z" transform="translate(72.403 138.914)" fill="#346028"/><path d="M0,0,1.818,4.566C-.058,3.352.111,1.6,0,0Z" transform="translate(75.918 139.711)" fill="#346028"/><path d="M.7,0A1.562,1.562,0,0,1,2.254.778c.248.553-.265.66-.65.729C.946,1.626.3,1.534.043.829-.127.37.228.109.7,0Z" transform="translate(87.378 117.611)" fill="#76a581"/><path d="M.116,5.41A6.8,6.8,0,0,1,.589,1.222,1.755,1.755,0,0,1,3.526.538,5.522,5.522,0,0,1,5.815,5.56C5.684,6.806,5.3,8,3.894,8.242A2.976,2.976,0,0,1,.549,6.472,11.021,11.021,0,0,1,.116,5.41Z" transform="translate(35.829 56.954)" fill="#3b8b2e"/><path d="M5.051,5.177c.055,1.592-.629,2.694-2.263,2.817S.552,6.92.231,5.548A6.152,6.152,0,0,1,.448,1.539,2.316,2.316,0,0,1,2.52,0,1.742,1.742,0,0,1,4.309,1.5C4.5,2.738,4.841,3.944,5.051,5.177Z" transform="translate(17.305 61.511)" fill="#3b8b2e"/><path d="M.839,3.675A4.655,4.655,0,0,1,.1,0,5.719,5.719,0,0,1,.839,3.675Z" transform="translate(21.535 63.014)" fill="#378729"/><path d="M0,1.679,3.421,0l.2.336L.235,2.069Z" transform="translate(16.283 46.833)" fill="#903024"/><path d="M3.079,3.432c.476-1.11.851-1.99,1.232-2.867.135-.311.269-.671.713-.536a.615.615,0,0,1,.4.824,15.459,15.459,0,0,1-.8,2.59c-.411.876-.454,1.479.577,1.836a1.525,1.525,0,0,1,.431.27c.5.4,1.482.662,1.026,1.481-.473.85-1.257.18-1.757-.153-1.025-.68-1.812-.721-2.468.444a2.352,2.352,0,0,1-.6.6c-.484.394-1.1.954-1.632.445-.514-.487.082-1.127.47-1.44C2.165,5.716,2.1,4.476.956,3.1a3.611,3.611,0,0,1-.388-.755c-.238-.491-.393-1.031.2-1.33.521-.263.823.22,1.085.579C2.218,2.094,2.542,2.622,3.079,3.432Z" transform="translate(38.271 128.428)" fill="#fbfcfc"/></g></g></svg>