<svg id="e259d672-8ff2-4de0-b7a2-24ee0b5d6d7d" data-name="圖層 1" xmlns="http://www.w3.org/2000/svg" viewBox="0 0 514.36 386.91"><defs><style>.a70fa231-b018-4a04-adeb-3aa608a09b63{fill:#8a8b8e;}.ae9f8439-8f80-42c4-b54d-ed3aba789d80{fill:#0067b4;}.fa847a3a-24b3-45ac-a604-d9369c1ddfab{fill:#221e1f;}.a888313c-dbef-4211-9b40-41dc2b714eb0{fill:#faa818;}</style></defs><path class="a70fa231-b018-4a04-adeb-3aa608a09b63" d="M153.3,85.18q-32.22,0-46.41,20t-14.17,65.5q0,39.54,13.6,55.72t47,16.16h97.18l23.74,42.26H150.78q-29,0-45.55-4.84A91.15,91.15,0,0,1,74.1,263.62q-18.93-14.75-28.38-38.46t-9.45-56.68q0-64,28.28-94.39t87.74-30.42h384L476.23,85.18Z" transform="translate(-33.08 -43.67)"/><path class="ae9f8439-8f80-42c4-b54d-ed3aba789d80" d="M432,148.71c-1.56-.09-3.25-.15-5.1-.19s-4.58-.05-8.25-.05q-39,0-59.84,12.26T338,195.88q0,23.16,20.78,35.41t59.84,12.26c3.67,0,6.43,0,8.34-.05s3.56-.07,5-.07v41.35h-6.18q-31.28,0-54.68-3.72t-39.48-11.28Q305.4,257.26,291.1,238t-14.3-42.16q0-22.9,14.21-42t40.64-31.62q16.08-7.56,39.48-11.28t54.68-3.73H432Z" transform="translate(-33.08 -43.67)"/><path class="ae9f8439-8f80-42c4-b54d-ed3aba789d80" d="M529.48,284.78H475.69V102.84h53.79Z" transform="translate(-33.08 -43.67)"/><path class="fa847a3a-24b3-45ac-a604-d9369c1ddfab" d="M34.33,341.77a64.48,64.48,0,0,0,8.77.44h.48a56.45,56.45,0,0,0-.48-6.77c1.65.15,3.76.39,6.33.76,2,.28,3,.62,3,1s-.56.87-1.69,1.19c-.87.21-1.3.63-1.3,1.2v2.63h1a19.64,19.64,0,0,0,1.63-1.75c1.18-1.35,1.89-2,2.1-2,.62,0,1.64.67,3,2s2.18,2.09,2.18,2.34c0,.59-.34.89-1,.89h-9v4.58H50a14.72,14.72,0,0,0,1.68-1.59c1.19-1.24,1.9-1.86,2.11-1.86.62,0,1.59.62,2.92,1.86s2,2,2,2.29c0,.55-.34.82-1.06.82H49.49v5h1.8A14.5,14.5,0,0,0,53.15,353c1.33-1.38,2.09-2.07,2.3-2.07.71,0,1.77.66,3.17,2s2.05,2.24,2.05,2.56c0,.59-.31.88-.92.88h-18c-3.6,0-6.17.06-7.71.22l-1-2.24a67.6,67.6,0,0,0,8.7.44h1.8v-5c-3.11,0-5.36.11-6.77.21l-1-2.17a73.11,73.11,0,0,0,7.77.44v-4.58H43.1a69.74,69.74,0,0,0-7.71.27Zm1.3,16.8a50.21,50.21,0,0,1,7,2.19h8.64c.46-.57.83-1,1.11-1.36,1-1,1.69-1.47,2.05-1.47.59,0,1.75.54,3.49,1.63s2.48,1.84,2.48,2.24-.39.78-1.18,1.36c-1,.58-1.56,1.17-1.56,1.75v16.58c0,1.76-1,3.06-3,3.94a10.6,10.6,0,0,1-4.11,1.1c-.38,0-.67-.64-.93-1.93-.37-1.48-1.8-2.76-4.29-3.8l.26-.83a40.51,40.51,0,0,0,5,.39c1,0,1.43-.5,1.43-1.49v-4.58H41.78v10.86c0,.67-.85,1.13-2.55,1.43a12,12,0,0,1-1.61.16c-1.2,0-1.81-.53-1.81-1.59a45.08,45.08,0,0,0,.26-4.79V365.12A47.49,47.49,0,0,0,35.63,358.57Zm6.15,8.24H52v-4.58H41.78Zm0,6H52V368.4H41.78ZM82.6,340.83q-8.14,2.1-21.93,2.41l-.5-1.26a85.82,85.82,0,0,0,11.88-2.5,38.34,38.34,0,0,0,7.83-3.88c1.9,1.17,3.33,2,4.28,2.51,1.9,1.13,2.86,2,2.86,2.52s-.39.65-1.18.65Zm-21.12,12.5a97.05,97.05,0,0,0,10.18.45h6c.69-.61,1.36-1.19,2-1.69a4,4,0,0,1,1.92-1.15c.74,0,1.94.6,3.61,1.8,1.94,1.31,2.91,2.15,2.91,2.51,0,.55-.41,1-1.24,1.47s-1.24,1.09-1.24,1.64v3.05h.25A23.24,23.24,0,0,1,87,359.18c.62-1,1.16-1.53,1.62-1.53s1,.48,1.67,1.41a6.19,6.19,0,0,1,1.56,3c0,.61-.34.93-1,.93H85.59c0,3.3.1,5.51.19,6.6s.06,1.77.06,2.34-1,1.21-3,1.54a19.1,19.1,0,0,1-1.92.17c-1.2,0-1.81-.5-1.81-1.48V371H75.15v8.14c0,3-.89,4.93-2.67,5.78a8.82,8.82,0,0,1-3.85,1.42c-.5,0-.94-.66-1.31-2-.54-1.9-2.75-3.5-6.65-4.8l.32-1.15a32.68,32.68,0,0,0,6.89.93c.33,0,.49-.59.49-1.75V371c-2.39,0-4.37.12-5.89.22l-1-2.19a49.79,49.79,0,0,0,6.89.48V363h-.68c-1.9,0-3.88.06-6,.21L60.67,361q4.67.43,7,.43h.68v-6.16c-2.64,0-4.62.13-5.89.27Zm0-8.72a17.14,17.14,0,0,1,5.6,2A2.92,2.92,0,0,1,68.37,349,4,4,0,0,1,67,351.75a3.77,3.77,0,0,1-2.56.88c-.46,0-.87-.62-1.24-1.86A17.59,17.59,0,0,0,61,345.42Zm8.2-.92a24.88,24.88,0,0,1,5.41,2.12c1.52.91,2.3,1.72,2.3,2.46a3.85,3.85,0,0,1-4,3.92,1.49,1.49,0,0,1-1.12-.44,4.14,4.14,0,0,1-.94-2,16.72,16.72,0,0,0-2.36-5.57Zm5.47,11.56v6.16h3.91v-6.16Zm0,7.7v6.53h3.91V363Zm5.47-21.4c1.69.52,3.27,1.05,4.73,1.64,2,.61,3,1.22,3,1.8,0,.36-.47.6-1.42.71s-1.39.37-1.55.65a27.85,27.85,0,0,1-7,5.46l-1-.65A26.91,26.91,0,0,0,80.62,341.55Z" transform="translate(-33.08 -43.67)"/><path class="fa847a3a-24b3-45ac-a604-d9369c1ddfab" d="M108.67,350.67a55,55,0,0,1,8.58,2.66h17.33c.79-.68,1.51-1.34,2.12-2,1-.91,1.63-1.37,2-1.37.8,0,2.1.67,3.92,2,2.07,1.38,3.12,2.25,3.12,2.63,0,.65-.45,1.22-1.31,1.73s-1.39,1-1.43,1.6v24.43h.24a21.23,21.23,0,0,0,2.37-2.44c1.74-1.85,2.77-2.79,3.1-2.79.87,0,2.25.89,4.18,2.63s2.78,2.85,2.78,3.22c0,.62-.43.92-1.31.92H107.73a67.09,67.09,0,0,0-8.5.44l-1-2.63a91.29,91.29,0,0,0,10.43.65h.75V361.41A57.31,57.31,0,0,0,108.67,350.67Zm14.17-14c3,.3,5.87.64,8.64,1,1.74.07,2.61.45,2.61,1.15,0,.29-.52.65-1.55,1.08s-1.74,1-1.74,1.59v3.06h13.74c.81-.69,1.54-1.25,2.17-1.69a3.88,3.88,0,0,1,2-1.15q.88,0,4.36,2.5c2,1.5,3.1,2.54,3.1,3.11s-.54.77-1.61.89a4.35,4.35,0,0,0-2.12.27,67.91,67.91,0,0,1-7.94,3.65l-1.06-.38a41,41,0,0,0,2-5.68H107.87a26.4,26.4,0,0,1-.38,3.44,6.69,6.69,0,0,1-2,3.66,3.06,3.06,0,0,1-1.8.55,5.32,5.32,0,0,1-3.59-1.21,3.09,3.09,0,0,1-1.37-2.78q0-.81,2.1-2.13a10.62,10.62,0,0,0,3.55-2.78,12.33,12.33,0,0,0,2-4.48l1.55.23c0,1.48,0,2.81-.06,4H123.4V342A26.52,26.52,0,0,0,122.84,336.69Zm-6.4,26h19.33v-7.92H116.44Zm0,9.39h19.33V364.2H116.44Zm0,10.24h19.33v-8.77H116.44Z" transform="translate(-33.08 -43.67)"/><path class="fa847a3a-24b3-45ac-a604-d9369c1ddfab" d="M163.39,350.48a85.92,85.92,0,0,0,10.44.71H187a74.53,74.53,0,0,0,.5-7.7c0-3.05-.09-5.6-.25-7.63,2.2.25,4.37.57,6.54,1,2.92.46,4.39,1,4.39,1.41s-.45,1-1.36,1.42c-1.07.39-1.61.8-1.61,1.2-.3,3.82-.66,7.27-1.12,10.32h13.85a18.73,18.73,0,0,0,2.5-2.56c1.81-2,2.89-2.95,3.21-2.95q1.38,0,4.29,2.84c2,1.82,2.93,2.93,2.93,3.33s-.44.81-1.31.81H196.27a47.46,47.46,0,0,0,4.09,10.26,30,30,0,0,0,7.71,9.12,47.67,47.67,0,0,0,13.05,7.32l-.25,1.25c-2.24.8-3.71,1.79-4.42,3-.79,1.54-1.49,2.31-2.11,2.31s-2-.8-3.9-2.41a39.71,39.71,0,0,1-7-6.93,35.53,35.53,0,0,1-5.15-8.9c-1.58-3.5-2.86-8.49-3.85-15h-.56c-1,5.75-2.36,10.12-4,13.1A35.56,35.56,0,0,1,179.42,378c-3.72,2.94-8.91,5.73-15.53,8.35l-.5-1.15a56.76,56.76,0,0,0,13.3-10.37,36.51,36.51,0,0,0,8.21-13.53,48.27,48.27,0,0,0,1.92-8.63H172.9a57.85,57.85,0,0,0-8.45.51Z" transform="translate(-33.08 -43.67)"/><path class="fa847a3a-24b3-45ac-a604-d9369c1ddfab" d="M245.76,335.82c1.59.81,2.93,1.47,4.05,2,1.57.73,2.35,1.31,2.35,1.74s-.39.48-1.18.55a3.3,3.3,0,0,0-1.79.27c-1.08.23-2.2.41-3.36.55s-2.47.24-4.29.38l.11,4.32h.88a14.28,14.28,0,0,0,1.31-1.14c1.12-1.14,1.84-1.7,2.18-1.7s1.3.68,2.91,2c1,.78,1.55,1.27,1.55,1.53,0,.59-.27.88-.8.88h-8l.2,5.62h.94a13.43,13.43,0,0,0,1.25-1.16c1.14-1.11,1.89-1.69,2.22-1.69s1.31.69,2.93,2c1,.8,1.54,1.3,1.54,1.53a.72.72,0,0,1-.8.82h-8.08L242,359h30.46l.3-4.8c-2.73,0-4.94.06-6.65.17l-.93-2.18a57.29,57.29,0,0,0,7.65.43l.36-5.23c-2.89,0-5.26.06-7.08.22l-.93-2.2a62.8,62.8,0,0,0,8.15.44l.25-4.57c-2.78,0-5.17.08-7.15.26l-1.06-2.18c3,.29,5.52.43,7.52.43.7-.65,1.4-1.25,2.11-1.81,1-.85,1.66-1.3,2.11-1.3.67,0,1.82.59,3.49,1.76s2.73,2.07,2.73,2.4c0,.57-.64,1.1-1.93,1.57-1.12.55-1.72,1.14-1.8,1.76l-.69,12.93a2.78,2.78,0,0,1,1.43-.71c.54,0,1.78.74,3.73,2.24,1.78,1.31,2.67,2.24,2.67,2.77s-.48.72-1.42.82c-1.17,0-1.83.1-2,.29a70.76,70.76,0,0,1-7.71,3.49l-1-.45a32.74,32.74,0,0,0,2.73-5H234.76a21.22,21.22,0,0,1-.3,2.72,5.14,5.14,0,0,1-1.37,2.74,2.26,2.26,0,0,1-1.24.37,5.23,5.23,0,0,1-3.17-.92,2.74,2.74,0,0,1-1.05-2.29c0-.44.52-.95,1.6-1.59a7.27,7.27,0,0,0,4.3-5.18l1.3.22c0,.87,0,1.66-.07,2.39h1.5l-.44-12.88a35.68,35.68,0,0,0-1-8.14l6,1.92a14.69,14.69,0,0,0,2.12-1.36A10.2,10.2,0,0,0,245.76,335.82Zm-7,28.38a48.32,48.32,0,0,0,8.7.71H262.6c.71-.54,1.24-1,1.62-1.31a5.18,5.18,0,0,1,2.67-1.37c.71,0,2,.76,3.92,2.24s3,2.47,3,3.06-.83.74-2.5.82a8.62,8.62,0,0,0-2.72.43c-2.16.91-4.12,1.68-5.9,2.31.28.17.43.36.43.53,0,.55-.51,1-1.55,1.37a2.22,2.22,0,0,0-1.55.82h13.79a15.07,15.07,0,0,0,2.11-2.23c1.5-1.72,2.39-2.56,2.68-2.56.82,0,2.11.8,3.84,2.44s2.62,2.66,2.62,3.06c0,.58-.41.88-1.24.88H259.94v5.4c0,2.28-.83,3.87-2.49,4.74a10.59,10.59,0,0,1-5.53,1.64c-.58,0-1-.53-1.12-1.59-.3-1.66-2.56-3.34-6.83-5l.24-1a53.87,53.87,0,0,0,7.52.82c1,0,1.5-.28,1.5-.82V375.4H237q-5.4,0-7.65.15l-1-2.18a64.12,64.12,0,0,0,8.7.44h16.23c0-1.06-.24-2.66-.57-4.79,3.36.45,5.55.82,6.59,1.06,0,.06,0,.07.06.07a34.91,34.91,0,0,0,3.54-3.77H247.44a61.81,61.81,0,0,0-7.64.45Zm20.2-17.42c1.46.67,2.69,1.24,3.73,1.76,1.49.65,2.23,1.15,2.23,1.46s-.38.68-1.17.78-1.43.12-1.55.38c-.38.29-.73.57-1.07.87a7.47,7.47,0,0,1,2.11,1.53,2.81,2.81,0,0,1,1.19,2.19,2.44,2.44,0,0,1-.94,1.86,2.2,2.2,0,0,1-1.8,1q-.93,0-3.73-3.28c-.25-.24-.49-.49-.74-.75a43.53,43.53,0,0,1-8.45,3.38l-.25-.71a36.87,36.87,0,0,0,6.09-4.74h0a34.44,34.44,0,0,0-3.91-2.48l.5-.81a46.2,46.2,0,0,1,5.41,1.15A16.34,16.34,0,0,0,258.94,346.78Zm.25-11.17,3.73,1.79c1.49.62,2.23,1.11,2.23,1.48s-.39.66-1.18.7-1.43.16-1.55.44-.41.38-.62.61a6,6,0,0,1,1.49,1.31,2.92,2.92,0,0,1,1.12,2.24,2.42,2.42,0,0,1-.94,1.85,2.21,2.21,0,0,1-1.8,1c-.57,0-1.69-1.14-3.35-3.38a32.24,32.24,0,0,1-7.09,3.6l-.25-.65a34,34,0,0,0,4.85-5,.68.68,0,0,0,.19-.31,33.07,33.07,0,0,0-4.29-3.06l.43-.83a52,52,0,0,1,5.53,1.31A13.53,13.53,0,0,0,259.19,335.61Z" transform="translate(-33.08 -43.67)"/><path class="fa847a3a-24b3-45ac-a604-d9369c1ddfab" d="M313.38,345l.51.65a58,58,0,0,1-10.63,7.81c-2.37,1.12-3.55,1.81-3.55,2.07v1.53c-.08.88-.35,1.31-.8,1.31s-1.51-1-2.91-3.11c-.76-1-1.7-2.34-2.82-4.09A132.39,132.39,0,0,0,313.38,345ZM294.5,340.4a68.81,68.81,0,0,0,8.89.43,11.78,11.78,0,0,0,2.05-1.9c1.41-1.5,2.22-2.24,2.49-2.24q1,0,3.36,2.19t2.34,2.67c0,.59-.33.87-1,.87h-9.25c-3.7,0-6.34.08-7.95.22Zm17.58,37c1.75.83,3.27,1.59,4.6,2.24,1.77.81,2.67,1.43,2.67,1.9s-.41.76-1.24.82c-1,0-1.62.16-1.75.44a73.52,73.52,0,0,1-7.33,1.92,120.9,120.9,0,0,1-13.79,2.07l-.49-.87A81.26,81.26,0,0,0,305,382Q310.15,379.55,312.08,377.35ZM302.44,355a50,50,0,0,1,8.65,2.62H333c.75-.55,1.39-1,1.92-1.48a12.65,12.65,0,0,1,1.37-1c-.9-.57-1.82-1.21-2.73-1.9a34.84,34.84,0,0,1-3.48-3.76,10.94,10.94,0,0,1-2.85,2.72,19.46,19.46,0,0,1-5.85,2.72,39.62,39.62,0,0,1-10.44,1.86l-.25-.82a35.76,35.76,0,0,0,7.69-2.78,13.88,13.88,0,0,0,4.42-3.27c1.25-1.16,2.34-3.31,3.3-6.44l4.79.93c2.11.36,3.16.78,3.16,1.25s-.37.89-1.1,1.09c-.92.12-1.46.33-1.63.65a.69.69,0,0,1-.25.33,29.38,29.38,0,0,0,7.76,3.78,62.87,62.87,0,0,0,10.32,2.29v1a5.25,5.25,0,0,0-3.3,2.62c-.36,1.05-.73,1.57-1.1,1.57a5.88,5.88,0,0,1-1.88-.49c.43.4.64.69.64.88,0,.54-.42,1.11-1.25,1.7a2.52,2.52,0,0,0-1.06,1.85v2.61l.5,11.14c0,.69-1.16,1.2-3.49,1.52a18.49,18.49,0,0,1-2.23.17,1.49,1.49,0,0,1-1.68-1.69v-.22H309.84v.66c0,.69-1.06,1.21-3.17,1.58a15.59,15.59,0,0,1-2,.15c-1.5,0-2.26-.57-2.26-1.73.34-4.23.5-7.93.5-11.15v-.87C302.94,362.36,302.78,359,302.44,355Zm7.4,8.35h24.42v-4.2H309.84Zm0,5.62h24.42v-4.09H309.84Zm0,5.95h24.42v-4.36H309.84Zm9.51-39.51c1.86.43,3.67.89,5.41,1.36s2.54.91,2.54,1.42-.45.71-1.36.82a3.37,3.37,0,0,0-1.62.54c-.4.65-.84,1.32-1.3,2h15.41c.82-.65,1.53-1.16,2.11-1.53a3.75,3.75,0,0,1,1.92-1.14c.59,0,1.9.78,4,2.34,2,1.35,2.94,2.34,2.94,2.95,0,.44-.47.73-1.44.87a6,6,0,0,0-2,.17,45.91,45.91,0,0,1-7.51,4l-.94-.43a43.73,43.73,0,0,0,2-5.74H321.9a15.08,15.08,0,0,1-2.31,2.4,39.7,39.7,0,0,1-6.69,4.8l-.82-.6a37.46,37.46,0,0,0,4.53-6.6A32,32,0,0,0,319.35,335.44Zm6.14,42.95a80.71,80.71,0,0,1,11.95.88,17.19,17.19,0,0,1,6,1.91,3.09,3.09,0,0,1,1.73,2.72,2.88,2.88,0,0,1-.87,2.19,4.2,4.2,0,0,1-2.36.65c-1,0-2.81-.83-5.35-2.51A47.88,47.88,0,0,0,325,379.54Z" transform="translate(-33.08 -43.67)"/><path class="fa847a3a-24b3-45ac-a604-d9369c1ddfab" d="M357.43,347a71.61,71.61,0,0,0,8.63.39h6a11,11,0,0,0,2.11-2.24c1.48-1.67,2.35-2.52,2.6-2.52q1.31,0,3.92,2.46c1.75,1.61,2.61,2.58,2.61,2.95,0,.62-.43.92-1.31.92h-15.9c-3.61,0-6.18.08-7.69.22Zm2.92-7.64a65.77,65.77,0,0,0,8.69.43h1.56c.11-.06.74-.73,1.86-2,1.29-1.49,2-2.23,2.3-2.23.7,0,1.8.72,3.3,2.18s2.24,2.33,2.24,2.61c0,.59-.35.89-1.07.89H369a76,76,0,0,0-7.71.26Zm0,22.21A63.75,63.75,0,0,0,369,362h1.56a18.53,18.53,0,0,0,2-1.85c1.35-1.49,2.2-2.24,2.49-2.24.7,0,1.82.73,3.34,2.18s2.37,2.25,2.37,2.62c0,.58-.36.87-1.07.87H369c-3.62,0-6.18.08-7.71.22Zm0,5.52a50.46,50.46,0,0,1,8.13,2.62h2.79c1-.91,1.84-1.69,2.62-2.36a2.37,2.37,0,0,1,1.67-1,11,11,0,0,1,3.49,1.53c2.11,1.31,3.16,2.2,3.16,2.68s-.42,1-1.24,1.53a1.8,1.8,0,0,0-1,1.48v3.76c0,1.71.1,4,.33,7,0,.7-1.1,1.23-3.25,1.58a16.09,16.09,0,0,1-2,.17,1.55,1.55,0,0,1-1.75-1.75V382h-5.72v2.82c0,.73-1,1.27-3,1.59a19.21,19.21,0,0,1-2,.17c-1.37,0-2.07-.58-2.07-1.76.17-1.89.26-3.77.26-5.66V375A61.83,61.83,0,0,0,360.35,367.1Zm.23-12.89a73.7,73.7,0,0,0,8.71.39h1.55a18.5,18.5,0,0,0,2-2c1.41-1.55,2.25-2.35,2.49-2.35.74,0,1.93.77,3.53,2.31s2.44,2.39,2.44,2.72c0,.62-.34.92-1,.92h-11q-5.39,0-7.64.23Zm7,26.15h5.72v-9.17h-5.72Zm13.18-41.48a60.38,60.38,0,0,0,7.95.49h12.12a22.8,22.8,0,0,1,2.05-2.34c.79-.81,1.36-1.21,1.74-1.21q1,0,4.6,2.46c1.91,1.26,2.85,2.2,2.85,2.77s-.57.92-1.73,1.42-1.81,1.12-1.81,1.92q0,20.24,1.13,26.42c.87,3.45,1.67,5.19,2.41,5.19.3,0,.74-1.07,1.38-3.18.29-1.2.74-2.81,1.35-4.85l1.25.43-.24,9a16.68,16.68,0,0,0,.36,3.21,13.73,13.73,0,0,1,.31,2q0,2.34-2.67,2.55a10.18,10.18,0,0,1-4.15-1.13,14.25,14.25,0,0,1-4.66-5.57A32.85,32.85,0,0,1,402.48,368q-.83-8.85-.81-27.18H394v19.48h.74c.38-.55.83-1.29,1.37-2.24.66-1.28,1.12-1.92,1.36-1.92.46,0,1.27.73,2.44,2.19s1.8,2.19,1.8,2.62a.72.72,0,0,1-.81.82H394V385c0,.71-1.12,1.25-3.36,1.57a20.11,20.11,0,0,1-2.11.16,1.52,1.52,0,0,1-1.73-1.73,71.12,71.12,0,0,0,.43-8.8V361.8H387c-1.29,0-3,.08-5,.22l-.92-2.17a51.82,51.82,0,0,0,6,.48h.19V340.85c-2.11,0-3.94.1-5.47.2Z" transform="translate(-33.08 -43.67)"/><path class="fa847a3a-24b3-45ac-a604-d9369c1ddfab" d="M440.48,335.82c1.56.81,2.92,1.47,4,2,1.59.73,2.37,1.31,2.37,1.74s-.39.48-1.18.55a3.39,3.39,0,0,0-1.81.27c-1.07.23-2.19.41-3.36.55s-2.45.24-4.27.38l.11,4.32h.87a14.28,14.28,0,0,0,1.31-1.14c1.12-1.14,1.85-1.7,2.17-1.7s1.32.68,2.93,2c1,.78,1.54,1.27,1.54,1.53,0,.59-.26.88-.8.88h-8l.2,5.62h.92a9.94,9.94,0,0,0,1.25-1.16c1.16-1.11,1.9-1.69,2.24-1.69s1.29.69,2.91,2c1,.8,1.56,1.3,1.56,1.53a.72.72,0,0,1-.81.82h-8.07l.12,4.63h30.44l.32-4.8c-2.74,0-4.95.06-6.65.17l-.93-2.18a57.23,57.23,0,0,0,7.64.43l.38-5.23c-2.91,0-5.27.06-7.09.22l-.93-2.2a62.69,62.69,0,0,0,8.15.44l.24-4.57c-2.78,0-5.16.08-7.14.26l-1.06-2.18c3,.29,5.52.43,7.5.43.72-.65,1.41-1.25,2.11-1.81,1-.85,1.67-1.3,2.13-1.3.66,0,1.82.59,3.47,1.76,1.83,1.26,2.74,2.07,2.74,2.4,0,.57-.65,1.1-1.92,1.57s-1.73,1.14-1.81,1.76l-.69,12.93a2.78,2.78,0,0,1,1.43-.71c.55,0,1.78.74,3.73,2.24,1.78,1.31,2.68,2.24,2.68,2.77s-.48.72-1.43.82c-1.16,0-1.82.1-2,.29a70.76,70.76,0,0,1-7.71,3.49l-1-.45a33.62,33.62,0,0,0,2.73-5H429.47a25.16,25.16,0,0,1-.31,2.72,5.08,5.08,0,0,1-1.37,2.74,2.28,2.28,0,0,1-1.23.37,5.24,5.24,0,0,1-3.18-.92,2.75,2.75,0,0,1-1.06-2.29c0-.44.55-.95,1.62-1.59a8.44,8.44,0,0,0,2.73-2,8.15,8.15,0,0,0,1.56-3.16l1.3.22c0,.87,0,1.66-.06,2.39H431l-.43-12.88a35.71,35.71,0,0,0-1-8.14l6,1.92a14.26,14.26,0,0,0,2.13-1.36A10.88,10.88,0,0,0,440.48,335.82Zm-7,28.38a48.43,48.43,0,0,0,8.71.71h15.16c.7-.54,1.24-1,1.61-1.31a5.18,5.18,0,0,1,2.67-1.37c.71,0,2,.76,3.91,2.24s3,2.47,3,3.06-.82.74-2.49.82a8.64,8.64,0,0,0-2.73.43c-2.15.91-4.13,1.68-5.91,2.31.3.17.45.36.45.53,0,.55-.53,1-1.55,1.37a2.27,2.27,0,0,0-1.56.82h13.79a14.79,14.79,0,0,0,2.12-2.23c1.49-1.72,2.39-2.56,2.68-2.56.81,0,2.1.8,3.84,2.44s2.61,2.66,2.61,3.06c0,.58-.41.88-1.25.88H454.63v5.4c0,2.28-.82,3.87-2.48,4.74a10.59,10.59,0,0,1-5.53,1.64c-.58,0-1-.53-1.13-1.59-.27-1.66-2.55-3.34-6.82-5l.25-1a53.61,53.61,0,0,0,7.51.82c1,0,1.5-.28,1.5-.82V375.4H431.7c-3.59,0-6.15.05-7.63.15L423,373.37a64,64,0,0,0,8.7.44h16.23c0-1.06-.24-2.66-.56-4.79,3.36.45,5.55.82,6.59,1.06,0,.06,0,.07.06.07a37,37,0,0,0,3.53-3.77H442.16a62,62,0,0,0-7.66.45Zm20.19-17.42c1.45.67,2.7,1.24,3.72,1.76,1.51.65,2.25,1.15,2.25,1.46s-.38.68-1.17.78-1.44.12-1.55.38c-.39.29-.74.57-1.08.87a7.39,7.39,0,0,1,2.12,1.53,2.84,2.84,0,0,1,1.17,2.19,2.45,2.45,0,0,1-.92,1.86,2.22,2.22,0,0,1-1.8,1c-.63,0-1.86-1.09-3.74-3.28-.25-.24-.49-.49-.74-.75a43,43,0,0,1-8.45,3.38l-.24-.71a36.36,36.36,0,0,0,6.08-4.74h.06a36.31,36.31,0,0,0-3.91-2.48l.49-.81a45.76,45.76,0,0,1,5.41,1.15A16,16,0,0,0,453.64,346.78Zm.25-11.17,3.74,1.79c1.47.62,2.23,1.11,2.23,1.48s-.39.66-1.18.7-1.43.16-1.56.44-.41.38-.62.61a5.69,5.69,0,0,1,1.49,1.31,2.88,2.88,0,0,1,1.11,2.24,2.43,2.43,0,0,1-.92,1.85,2.23,2.23,0,0,1-1.8,1c-.59,0-1.71-1.14-3.36-3.38a32.24,32.24,0,0,1-7.09,3.6l-.24-.65a32.92,32.92,0,0,0,4.84-5,.7.7,0,0,0,.2-.31,32.53,32.53,0,0,0-4.3-3.06l.44-.83a52.34,52.34,0,0,1,5.52,1.31A12.75,12.75,0,0,0,453.89,335.61Z" transform="translate(-33.08 -43.67)"/><path class="fa847a3a-24b3-45ac-a604-d9369c1ddfab" d="M505.56,335.61c.66,0,2.1.76,4.34,2.28,1.53,1.25,2.3,2.07,2.3,2.51s-.58.76-1.74,1a4.87,4.87,0,0,0-2.42,1,67.32,67.32,0,0,1-7.45,11.79,25,25,0,0,1,6.07,5.74,14.38,14.38,0,0,1,2.08,3.87,13.32,13.32,0,0,1,.72,4.38,6.18,6.18,0,0,1-1.23,4.31,8.26,8.26,0,0,1-2.92,2.61,6.59,6.59,0,0,1-2.74.88c-.53,0-.95-.59-1.23-1.76s-1.92-2.44-4.48-3.49v14.4c0,.77-1.09,1.32-3.23,1.64a16.85,16.85,0,0,1-2,.17c-1.34,0-2-.6-2-1.81.17-1.91.26-3.87.26-5.83V344.18a63.18,63.18,0,0,0-.51-8.14,84.58,84.58,0,0,1,9,2.84h2.85c1-.95,1.8-1.74,2.42-2.4A3.41,3.41,0,0,1,505.56,335.61Zm-8.7,4.79v28.76a25.56,25.56,0,0,0,3.73.34,2.93,2.93,0,0,0,2.05-.55,4.5,4.5,0,0,0,.68-2.77,15.36,15.36,0,0,0-1-5.95,24.42,24.42,0,0,0-4-6,79.32,79.32,0,0,0,3.79-13.81Zm11.68,21.18a62.46,62.46,0,0,0,8.63.44h17.47a12.93,12.93,0,0,0,2.11-2.13c1.46-1.63,2.33-2.45,2.61-2.45.79,0,2,.79,3.66,2.41s2.54,2.51,2.54,2.88q0,.87-1.29.87H533.33v14.79c0,1.1.33,1.69,1,1.81a15.54,15.54,0,0,0,2.55.16,3,3,0,0,0,2.12-.76,39.74,39.74,0,0,0,2.29-7.26l1.31.2.25,3.67a4.39,4.39,0,0,0,1.62,3.39,3.33,3.33,0,0,1,1.37,2.35,2.13,2.13,0,0,1-1.37,2.17q-2.31,1.28-7.59,1.27H533.2a15.75,15.75,0,0,1-3.54-.38q-3.23-.61-3.23-4.21V363.6h-3.79a28.65,28.65,0,0,1-2,9.44,23.81,23.81,0,0,1-3.42,5.24,18.42,18.42,0,0,1-5.41,4,49.76,49.76,0,0,1-9.5,3.82l-.81-1.32a24.18,24.18,0,0,0,5.47-3.32,21.94,21.94,0,0,0,4.54-4.75,15.25,15.25,0,0,0,2.54-5.35,27.64,27.64,0,0,0,1.18-7.75,56.67,56.67,0,0,0-5.79.22Zm12.93-26c2.68.25,5.3.56,7.83.92,1.56.07,2.35.44,2.35,1.1,0,.21-.49.52-1.49.92s-1.49.89-1.49,1.47v3.67h6.45c.81-.7,1.48-1.28,2.07-1.75.82-.89,1.47-1.31,1.93-1.31s2,.81,4.15,2.44c2,1.44,3,2.45,3,3.06,0,.45-.46.73-1.42.88a4.53,4.53,0,0,0-2,.22,47.81,47.81,0,0,1-6.41,3.33.77.77,0,0,1,.13.12c1.49,1.41,2.23,2.3,2.23,2.65,0,.59-.3.88-.92.88H520.16q-5.42,0-7.7.17l-1-2.18a65.94,65.94,0,0,0,8.7.43h8.51a11,11,0,0,0,1.93-1.85,10.79,10.79,0,0,1,2.49-2.24,3,3,0,0,1,1.3.43,28.46,28.46,0,0,0,1.68-3.76h-21.5a19.43,19.43,0,0,1-.38,3.06,5.08,5.08,0,0,1-2.11,3.05,3.29,3.29,0,0,1-1.8.49,5.37,5.37,0,0,1-3.17-.92,2.89,2.89,0,0,1-1.06-2.35c0-.52.68-1.12,2-1.81a11.87,11.87,0,0,0,3.37-2.34,9.21,9.21,0,0,0,2.05-3.76l1.19.22v2.84H522v-3.46A23.54,23.54,0,0,0,521.47,335.61Z" transform="translate(-33.08 -43.67)"/><polygon class="a888313c-dbef-4211-9b40-41dc2b714eb0" points="183.59 138.76 203.7 173.64 163.45 173.62 123.21 173.6 143.35 138.75 163.49 103.91 183.59 138.76"/><path class="a70fa231-b018-4a04-adeb-3aa608a09b63" d="M54.18,418.31l2.88.64a8.25,8.25,0,0,1-3.28,4.71,9.88,9.88,0,0,1-5.8,1.63A11.71,11.71,0,0,1,42.22,424a8,8,0,0,1-3.38-3.62,11.34,11.34,0,0,1-1.17-5.08A10,10,0,0,1,39,410.17a8.29,8.29,0,0,1,3.73-3.36A12.16,12.16,0,0,1,48,405.66a10.08,10.08,0,0,1,5.54,1.45,7.67,7.67,0,0,1,3.13,4.08l-2.87.58a5.78,5.78,0,0,0-2.21-3,6.57,6.57,0,0,0-3.66-.94,7.91,7.91,0,0,0-4.22,1.05,5.66,5.66,0,0,0-2.38,2.81,9.87,9.87,0,0,0-.7,3.65,10.33,10.33,0,0,0,.82,4.23A5.47,5.47,0,0,0,44,422.24a7.91,7.91,0,0,0,3.73.9,6.82,6.82,0,0,0,4.13-1.22A6.05,6.05,0,0,0,54.18,418.31Z" transform="translate(-33.08 -43.67)"/><path class="a70fa231-b018-4a04-adeb-3aa608a09b63" d="M59.29,418.1c0-2.55.81-4.43,2.45-5.65a8,8,0,0,1,5-1.54,7.78,7.78,0,0,1,5.35,1.86,6.52,6.52,0,0,1,2.08,5.13,8,8,0,0,1-.92,4.19,6.11,6.11,0,0,1-2.68,2.35,8.63,8.63,0,0,1-3.83.85,7.75,7.75,0,0,1-5.4-1.85A6.85,6.85,0,0,1,59.29,418.1Zm2.75,0a5.34,5.34,0,0,0,1.34,4,4.62,4.62,0,0,0,3.36,1.32,4.58,4.58,0,0,0,3.34-1.33,5.44,5.44,0,0,0,1.33-4,5.13,5.13,0,0,0-1.34-3.86,4.52,4.52,0,0,0-3.33-1.32,4.61,4.61,0,0,0-3.36,1.3A5.33,5.33,0,0,0,62,418.1Z" transform="translate(-33.08 -43.67)"/><path class="a70fa231-b018-4a04-adeb-3aa608a09b63" d="M77.27,425V406H80v19Z" transform="translate(-33.08 -43.67)"/><path class="a70fa231-b018-4a04-adeb-3aa608a09b63" d="M84.06,425V406h2.71v19Z" transform="translate(-33.08 -43.67)"/><path class="a70fa231-b018-4a04-adeb-3aa608a09b63" d="M101.83,420.55l2.75.3a5.76,5.76,0,0,1-2.43,3.27,8.1,8.1,0,0,1-4.54,1.17,7.91,7.91,0,0,1-5.54-1.85,6.7,6.7,0,0,1-2-5.22,7,7,0,0,1,2.06-5.4,7.55,7.55,0,0,1,5.35-1.91,7.36,7.36,0,0,1,5.21,1.88,6.86,6.86,0,0,1,2,5.29c0,.13,0,.33,0,.61H92.79a4.89,4.89,0,0,0,1.49,3.47,4.79,4.79,0,0,0,3.34,1.22,4.57,4.57,0,0,0,2.53-.68A4.67,4.67,0,0,0,101.83,420.55Zm-8.9-3.78h8.92a4.26,4.26,0,0,0-1-2.6,4.45,4.45,0,0,0-3.35-1.33,4.7,4.7,0,0,0-3.15,1.07A4,4,0,0,0,92.93,416.77Z" transform="translate(-33.08 -43.67)"/><path class="a70fa231-b018-4a04-adeb-3aa608a09b63" d="M107.47,426.14l2.63.3A2.12,2.12,0,0,0,111,428a5,5,0,0,0,2.76.66,5.46,5.46,0,0,0,2.9-.65,3.33,3.33,0,0,0,1.39-1.81,13.75,13.75,0,0,0,.19-3,6,6,0,0,1-4.42,1.78,6.44,6.44,0,0,1-5.1-2,7.22,7.22,0,0,1-1.8-4.93,8.13,8.13,0,0,1,.83-3.63,6,6,0,0,1,2.4-2.57,7.31,7.31,0,0,1,3.69-.91,6.07,6.07,0,0,1,4.66,2v-1.68h2.43v11.91a10.06,10.06,0,0,1-.75,4.56,5.27,5.27,0,0,1-2.4,2.11,9.36,9.36,0,0,1-4,.78,8.45,8.45,0,0,1-4.59-1.11A3.57,3.57,0,0,1,107.47,426.14Zm2.22-8.29a5.41,5.41,0,0,0,1.25,4,4.54,4.54,0,0,0,6.28,0,5.21,5.21,0,0,0,1.26-3.87,5.11,5.11,0,0,0-1.31-3.83,4.3,4.3,0,0,0-3.13-1.28A4.18,4.18,0,0,0,111,414.1,5.12,5.12,0,0,0,109.69,417.85Z" transform="translate(-33.08 -43.67)"/><path class="a70fa231-b018-4a04-adeb-3aa608a09b63" d="M135.89,420.55l2.78.3a5.84,5.84,0,0,1-2.45,3.27,8.1,8.1,0,0,1-4.54,1.17,7.91,7.91,0,0,1-5.54-1.85,6.71,6.71,0,0,1-2-5.22,7,7,0,0,1,2.06-5.4,7.6,7.6,0,0,1,5.35-1.91,7.31,7.31,0,0,1,5.21,1.88,6.86,6.86,0,0,1,2,5.29v.61H126.86a4.89,4.89,0,0,0,1.48,3.47,4.82,4.82,0,0,0,3.34,1.22,4.2,4.2,0,0,0,4.21-2.83ZM127,416.77h8.92a4.15,4.15,0,0,0-1-2.6,4.44,4.44,0,0,0-3.35-1.33,4.63,4.63,0,0,0-3.13,1.07A3.9,3.9,0,0,0,127,416.77Z" transform="translate(-33.08 -43.67)"/><path class="a70fa231-b018-4a04-adeb-3aa608a09b63" d="M149.54,418.1a6.58,6.58,0,0,1,2.46-5.65,8.07,8.07,0,0,1,5-1.54,7.78,7.78,0,0,1,5.35,1.86,6.55,6.55,0,0,1,2.07,5.13,8.14,8.14,0,0,1-.91,4.19,6.17,6.17,0,0,1-2.68,2.35,8.63,8.63,0,0,1-3.83.85,7.73,7.73,0,0,1-5.4-1.85A6.82,6.82,0,0,1,149.54,418.1Zm2.77,0a5.34,5.34,0,0,0,1.33,4,4.88,4.88,0,0,0,6.69,0,5.44,5.44,0,0,0,1.34-4,5.14,5.14,0,0,0-1.35-3.86,4.5,4.5,0,0,0-3.32-1.32,4.59,4.59,0,0,0-3.36,1.3A5.32,5.32,0,0,0,152.31,418.1Z" transform="translate(-33.08 -43.67)"/><path class="a70fa231-b018-4a04-adeb-3aa608a09b63" d="M168.22,425V413h-2.39v-1.82h2.39v-1.45a5.72,5.72,0,0,1,.29-2,3.1,3.1,0,0,1,1.38-1.47,5.62,5.62,0,0,1,2.75-.56,15.81,15.81,0,0,1,2.52.23l-.41,2a10,10,0,0,0-1.59-.12,2.6,2.6,0,0,0-1.73.45,2.19,2.19,0,0,0-.51,1.68v1.27H174V413h-3.1V425Z" transform="translate(-33.08 -43.67)"/><path class="a70fa231-b018-4a04-adeb-3aa608a09b63" d="M200.6,418.31l2.9.64a8.39,8.39,0,0,1-3.28,4.71,9.91,9.91,0,0,1-5.8,1.63,11.79,11.79,0,0,1-5.78-1.25,8.08,8.08,0,0,1-3.38-3.62,11.47,11.47,0,0,1-1.16-5.08,10,10,0,0,1,1.3-5.17,8.37,8.37,0,0,1,3.74-3.36,12.19,12.19,0,0,1,5.32-1.15,10.08,10.08,0,0,1,5.54,1.45,7.67,7.67,0,0,1,3.13,4.08l-2.87.58a5.83,5.83,0,0,0-2.21-3,6.52,6.52,0,0,0-3.64-.94,7.93,7.93,0,0,0-4.24,1.05,5.66,5.66,0,0,0-2.38,2.81,9.86,9.86,0,0,0-.69,3.65,10,10,0,0,0,.82,4.23,5.47,5.47,0,0,0,2.54,2.68,7.87,7.87,0,0,0,3.72.9,6.9,6.9,0,0,0,4.14-1.22A6.08,6.08,0,0,0,200.6,418.31Z" transform="translate(-33.08 -43.67)"/><path class="a70fa231-b018-4a04-adeb-3aa608a09b63" d="M205.72,418.1a6.6,6.6,0,0,1,2.45-5.65,8,8,0,0,1,5-1.54,7.77,7.77,0,0,1,5.36,1.86,6.52,6.52,0,0,1,2.08,5.13,8,8,0,0,1-.92,4.19,6.17,6.17,0,0,1-2.68,2.35,8.65,8.65,0,0,1-3.84.85,7.72,7.72,0,0,1-5.39-1.85A6.78,6.78,0,0,1,205.72,418.1Zm2.76,0a5.38,5.38,0,0,0,1.33,4,4.62,4.62,0,0,0,3.35,1.32,4.57,4.57,0,0,0,3.35-1.33,5.52,5.52,0,0,0,1.33-4,5.17,5.17,0,0,0-1.35-3.86,4.49,4.49,0,0,0-3.33-1.32,4.6,4.6,0,0,0-3.35,1.3A5.37,5.37,0,0,0,208.48,418.1Z" transform="translate(-33.08 -43.67)"/><path class="a70fa231-b018-4a04-adeb-3aa608a09b63" d="M223.77,425V411.22h2.42v1.93a5.53,5.53,0,0,1,2-1.63,6.36,6.36,0,0,1,2.82-.61,5.82,5.82,0,0,1,2.88.64,3.61,3.61,0,0,1,1.6,1.77,6,6,0,0,1,4.92-2.41A5.35,5.35,0,0,1,244,412a4.5,4.5,0,0,1,1.27,3.5V425h-2.69v-8.67a5.74,5.74,0,0,0-.26-2,2.11,2.11,0,0,0-1-1,3.41,3.41,0,0,0-1.63-.38,4.16,4.16,0,0,0-2.79,1,3.93,3.93,0,0,0-1.11,3.1v8H233.2V416a3.61,3.61,0,0,0-.66-2.33,2.69,2.69,0,0,0-2.15-.78,4.27,4.27,0,0,0-2.1.52,3,3,0,0,0-1.4,1.53,7.34,7.34,0,0,0-.44,2.86V425Z" transform="translate(-33.08 -43.67)"/><path class="a70fa231-b018-4a04-adeb-3aa608a09b63" d="M249.27,430.28V411.22h2.46V413a5.83,5.83,0,0,1,2-1.58,6.08,6.08,0,0,1,2.65-.52,7.08,7.08,0,0,1,3.6.91,5.89,5.89,0,0,1,2.35,2.56,8.71,8.71,0,0,1-.08,7.42,6.07,6.07,0,0,1-2.55,2.59,7.31,7.31,0,0,1-3.51.9,5.53,5.53,0,0,1-4.18-1.73v6.72Zm2.46-12.1A5.41,5.41,0,0,0,253,422.1a4,4,0,0,0,3,1.28,4.15,4.15,0,0,0,3.07-1.32,5.64,5.64,0,0,0,1.28-4.08,5.44,5.44,0,0,0-1.26-3.94,3.93,3.93,0,0,0-3-1.31,4.13,4.13,0,0,0-3.05,1.4A5.66,5.66,0,0,0,251.73,418.18Z" transform="translate(-33.08 -43.67)"/><path class="a70fa231-b018-4a04-adeb-3aa608a09b63" d="M276.72,425v-2a6.13,6.13,0,0,1-5.05,2.34,7.47,7.47,0,0,1-2.62-.46,4.35,4.35,0,0,1-1.81-1.18,4,4,0,0,1-.83-1.73,9.57,9.57,0,0,1-.17-2.18v-8.52h2.7v7.62a11.09,11.09,0,0,0,.16,2.46,2.46,2.46,0,0,0,1.08,1.45,3.71,3.71,0,0,0,2,.52,5,5,0,0,0,2.28-.53,3.29,3.29,0,0,0,1.51-1.46,6.47,6.47,0,0,0,.44-2.7v-7.36h2.69V425Z" transform="translate(-33.08 -43.67)"/><path class="a70fa231-b018-4a04-adeb-3aa608a09b63" d="M289.24,422.88l.36,2.06a11.2,11.2,0,0,1-2,.21,5.16,5.16,0,0,1-2.28-.41,2.42,2.42,0,0,1-1.15-1.05,7.2,7.2,0,0,1-.33-2.75V413h-2v-1.83h2V407.8l2.7-1.39v4.8h2.73V413h-2.73v8a3.48,3.48,0,0,0,.15,1.29,1.06,1.06,0,0,0,.45.44,2,2,0,0,0,.93.17C288.34,423,288.74,422.93,289.24,422.88Z" transform="translate(-33.08 -43.67)"/><path class="a70fa231-b018-4a04-adeb-3aa608a09b63" d="M291.86,408.66V406h2.69v2.67Zm0,16.33V411.22h2.69V425Z" transform="translate(-33.08 -43.67)"/><path class="a70fa231-b018-4a04-adeb-3aa608a09b63" d="M298.66,425V411.22h2.43v2a6,6,0,0,1,5-2.27,8,8,0,0,1,2.64.44,4.06,4.06,0,0,1,1.8,1.19,4.34,4.34,0,0,1,.85,1.72,12.58,12.58,0,0,1,.14,2.26V425h-2.7v-8.37a5.59,5.59,0,0,0-.31-2.14,2.34,2.34,0,0,0-1.12-1.12,3.8,3.8,0,0,0-1.87-.43,4.68,4.68,0,0,0-3,.95c-.83.64-1.25,1.82-1.25,3.58V425Z" transform="translate(-33.08 -43.67)"/><path class="a70fa231-b018-4a04-adeb-3aa608a09b63" d="M315.18,426.14l2.63.3a2.22,2.22,0,0,0,.91,1.56,5,5,0,0,0,2.76.66,5.48,5.48,0,0,0,2.91-.65,3.22,3.22,0,0,0,1.38-1.81,14.45,14.45,0,0,0,.19-3,6,6,0,0,1-4.41,1.78,6.41,6.41,0,0,1-5.09-2,7.18,7.18,0,0,1-1.81-4.93,8,8,0,0,1,.83-3.63,6,6,0,0,1,2.4-2.57,7.31,7.31,0,0,1,3.69-.91,6.11,6.11,0,0,1,4.67,2v-1.68h2.42v11.91a9.88,9.88,0,0,1-.77,4.56,5.13,5.13,0,0,1-2.37,2.11,9.47,9.47,0,0,1-4,.78,8.49,8.49,0,0,1-4.6-1.11A3.55,3.55,0,0,1,315.18,426.14Zm2.23-8.29a5.46,5.46,0,0,0,1.25,4,4.23,4.23,0,0,0,3.13,1.26,4.29,4.29,0,0,0,3.15-1.26A5.25,5.25,0,0,0,326.2,418a5.15,5.15,0,0,0-1.3-3.83,4.33,4.33,0,0,0-3.15-1.28,4.21,4.21,0,0,0-3.08,1.26A5.16,5.16,0,0,0,317.41,417.85Z" transform="translate(-33.08 -43.67)"/><path class="a70fa231-b018-4a04-adeb-3aa608a09b63" d="M351.64,423.27a9.8,9.8,0,0,1-2.86,1.56,9.08,9.08,0,0,1-3,.46,6.48,6.48,0,0,1-4.06-1.11,3.45,3.45,0,0,1-1.41-2.84,3.4,3.4,0,0,1,.53-1.85,4.24,4.24,0,0,1,1.39-1.34,7.19,7.19,0,0,1,2-.75,20.9,20.9,0,0,1,2.42-.37,29,29,0,0,0,4.82-.79c0-.33,0-.52,0-.61a2.38,2.38,0,0,0-.76-2,5.17,5.17,0,0,0-3.1-.78,5.62,5.62,0,0,0-2.84.57,3.46,3.46,0,0,0-1.34,2.06l-2.63-.31a5.3,5.3,0,0,1,1.18-2.37,5.43,5.43,0,0,1,2.38-1.4,12.33,12.33,0,0,1,3.61-.48,11.11,11.11,0,0,1,3.31.42,4.3,4.3,0,0,1,1.88,1A3.46,3.46,0,0,1,354,414a11.23,11.23,0,0,1,.14,2.15v3.11a30.21,30.21,0,0,0,.16,4.12,5.26,5.26,0,0,0,.65,1.65h-2.76A4.7,4.7,0,0,1,351.64,423.27Zm-.23-5.22a22.19,22.19,0,0,1-4.41.89,12.36,12.36,0,0,0-2.38.46,2.36,2.36,0,0,0-1.06.77,1.8,1.8,0,0,0-.37,1.12,1.88,1.88,0,0,0,.81,1.55,4,4,0,0,0,2.42.63,6.4,6.4,0,0,0,2.8-.58,4.14,4.14,0,0,0,1.8-1.62,5.06,5.06,0,0,0,.43-2.36Z" transform="translate(-33.08 -43.67)"/><path class="a70fa231-b018-4a04-adeb-3aa608a09b63" d="M358.27,425V411.22h2.43v2a6,6,0,0,1,5.05-2.27,7.93,7.93,0,0,1,2.63.44,3.87,3.87,0,0,1,2.64,2.91,12.32,12.32,0,0,1,.15,2.26V425h-2.7v-8.37a5.59,5.59,0,0,0-.31-2.14,2.32,2.32,0,0,0-1.11-1.12,3.88,3.88,0,0,0-1.89-.43,4.63,4.63,0,0,0-2.94.95c-.85.64-1.25,1.82-1.25,3.58V425Z" transform="translate(-33.08 -43.67)"/><path class="a70fa231-b018-4a04-adeb-3aa608a09b63" d="M385.61,425v-1.74a5.18,5.18,0,0,1-4.45,2,6.91,6.91,0,0,1-3.49-.91,6.24,6.24,0,0,1-2.46-2.53,7.68,7.68,0,0,1-.88-3.74,8.77,8.77,0,0,1,.78-3.73,5.72,5.72,0,0,1,2.39-2.57,7,7,0,0,1,3.53-.9,6,6,0,0,1,2.56.52,5.26,5.26,0,0,1,1.81,1.37V406h2.71v19Zm-8.52-6.88a5.41,5.41,0,0,0,1.29,3.95,4.17,4.17,0,0,0,3.05,1.32,4.06,4.06,0,0,0,3-1.26,5.23,5.23,0,0,0,1.24-3.81,5.79,5.79,0,0,0-1.27-4.15,4.06,4.06,0,0,0-3.1-1.32,4,4,0,0,0-3,1.26A5.69,5.69,0,0,0,377.09,418.11Z" transform="translate(-33.08 -43.67)"/><path class="a70fa231-b018-4a04-adeb-3aa608a09b63" d="M401.69,425V406h2.9v19Z" transform="translate(-33.08 -43.67)"/><path class="a70fa231-b018-4a04-adeb-3aa608a09b63" d="M409.35,425V411.22h2.44v2a6,6,0,0,1,5-2.27,7.94,7.94,0,0,1,2.64.44,4.27,4.27,0,0,1,1.81,1.19,4.19,4.19,0,0,1,.83,1.72,11.46,11.46,0,0,1,.15,2.26V425h-2.7v-8.37a5.79,5.79,0,0,0-.31-2.14,2.32,2.32,0,0,0-1.11-1.12,3.88,3.88,0,0,0-1.87-.43,4.71,4.71,0,0,0-3,.95c-.84.64-1.25,1.82-1.25,3.58V425Z" transform="translate(-33.08 -43.67)"/><path class="a70fa231-b018-4a04-adeb-3aa608a09b63" d="M427,425V413h-2.38v-1.82H427v-1.45a5.46,5.46,0,0,1,.3-2,3.1,3.1,0,0,1,1.38-1.47,5.65,5.65,0,0,1,2.74-.56,15.7,15.7,0,0,1,2.51.23l-.4,2a9.75,9.75,0,0,0-1.58-.12,2.65,2.65,0,0,0-1.74.45,2.19,2.19,0,0,0-.51,1.68v1.27h3.1V413h-3.1V425Z" transform="translate(-33.08 -43.67)"/><path class="a70fa231-b018-4a04-adeb-3aa608a09b63" d="M433.89,418.1a6.58,6.58,0,0,1,2.46-5.65,8,8,0,0,1,5-1.54,7.79,7.79,0,0,1,5.36,1.86,6.56,6.56,0,0,1,2.09,5.13,8.13,8.13,0,0,1-.94,4.19,6.06,6.06,0,0,1-2.68,2.35,8.57,8.57,0,0,1-3.83.85,7.71,7.71,0,0,1-5.39-1.85A6.82,6.82,0,0,1,433.89,418.1Zm2.76,0a5.34,5.34,0,0,0,1.34,4,4.62,4.62,0,0,0,3.35,1.32,4.51,4.51,0,0,0,3.33-1.33,5.36,5.36,0,0,0,1.34-4,5.13,5.13,0,0,0-1.34-3.86,4.51,4.51,0,0,0-3.33-1.32,4.6,4.6,0,0,0-3.35,1.3A5.33,5.33,0,0,0,436.65,418.1Z" transform="translate(-33.08 -43.67)"/><path class="a70fa231-b018-4a04-adeb-3aa608a09b63" d="M451.9,425V411.22h2.42v2.1a6.09,6.09,0,0,1,1.72-1.94,3.32,3.32,0,0,1,1.72-.47,5.79,5.79,0,0,1,2.77.76l-.93,2.15a4.35,4.35,0,0,0-2-.49,2.83,2.83,0,0,0-1.59.47,2.4,2.4,0,0,0-1,1.28,7.82,7.82,0,0,0-.46,2.71V425Z" transform="translate(-33.08 -43.67)"/><path class="a70fa231-b018-4a04-adeb-3aa608a09b63" d="M462.14,425V411.22h2.42v1.93a5.75,5.75,0,0,1,2-1.63,6.34,6.34,0,0,1,2.81-.61,5.93,5.93,0,0,1,2.9.64,3.57,3.57,0,0,1,1.58,1.77,6,6,0,0,1,4.91-2.41,5.34,5.34,0,0,1,3.66,1.13,4.47,4.47,0,0,1,1.28,3.5V425H481v-8.67a5.74,5.74,0,0,0-.26-2,2,2,0,0,0-1-1,3.3,3.3,0,0,0-1.61-.38,4.15,4.15,0,0,0-2.8,1,4,4,0,0,0-1.11,3.1v8h-2.7V416a3.56,3.56,0,0,0-.66-2.33,2.64,2.64,0,0,0-2.14-.78,4.36,4.36,0,0,0-2.1.52,3,3,0,0,0-1.4,1.53,7.34,7.34,0,0,0-.44,2.86V425Z" transform="translate(-33.08 -43.67)"/><path class="a70fa231-b018-4a04-adeb-3aa608a09b63" d="M498.05,423.27a9.88,9.88,0,0,1-2.85,1.56,9.1,9.1,0,0,1-3,.46,6.46,6.46,0,0,1-4-1.11,3.43,3.43,0,0,1-1.42-2.84,3.4,3.4,0,0,1,.53-1.85,4.41,4.41,0,0,1,1.41-1.34,6.77,6.77,0,0,1,1.95-.75A21,21,0,0,1,493,417a29.15,29.15,0,0,0,4.83-.79c0-.33,0-.52,0-.61a2.41,2.41,0,0,0-.76-2,5.15,5.15,0,0,0-3.1-.78,5.55,5.55,0,0,0-2.83.57,3.56,3.56,0,0,0-1.35,2.06l-2.63-.31a5.21,5.21,0,0,1,1.19-2.37,5.45,5.45,0,0,1,2.37-1.4,12.45,12.45,0,0,1,3.62-.48,11,11,0,0,1,3.3.42,4.25,4.25,0,0,1,1.87,1,3.4,3.4,0,0,1,.85,1.59,11.23,11.23,0,0,1,.14,2.15v3.11a28.56,28.56,0,0,0,.16,4.12,5,5,0,0,0,.64,1.65H498.6A4.9,4.9,0,0,1,498.05,423.27Zm-.23-5.22a21.87,21.87,0,0,1-4.41.89,11.75,11.75,0,0,0-2.36.46,2.34,2.34,0,0,0-1.07.77,1.8,1.8,0,0,0-.38,1.12,1.84,1.84,0,0,0,.82,1.55,4,4,0,0,0,2.41.63,6.4,6.4,0,0,0,2.8-.58,4.09,4.09,0,0,0,1.8-1.62,4.93,4.93,0,0,0,.44-2.36Z" transform="translate(-33.08 -43.67)"/><path class="a70fa231-b018-4a04-adeb-3aa608a09b63" d="M510.58,422.88l.37,2.06a11.4,11.4,0,0,1-2.05.21,5.28,5.28,0,0,1-2.28-.41,2.33,2.33,0,0,1-1.13-1.05,7.26,7.26,0,0,1-.32-2.75V413h-2v-1.83h2V407.8l2.68-1.39v4.8h2.73V413h-2.73v8a3.79,3.79,0,0,0,.14,1.29,1.06,1.06,0,0,0,.47.44,1.91,1.91,0,0,0,.92.17C509.68,423,510.09,422.93,510.58,422.88Z" transform="translate(-33.08 -43.67)"/><path class="a70fa231-b018-4a04-adeb-3aa608a09b63" d="M513.19,408.66V406h2.69v2.67Zm0,16.33V411.22h2.69V425Z" transform="translate(-33.08 -43.67)"/><path class="a70fa231-b018-4a04-adeb-3aa608a09b63" d="M530.37,419.94l2.67.3a5.79,5.79,0,0,1-2.23,3.71,7.08,7.08,0,0,1-4.4,1.34,7.4,7.4,0,0,1-5.24-1.84,6.89,6.89,0,0,1-2-5.3,8.54,8.54,0,0,1,.85-3.89,5.58,5.58,0,0,1,2.6-2.52,8.71,8.71,0,0,1,3.78-.83,7.24,7.24,0,0,1,4.23,1.15,5.12,5.12,0,0,1,2.11,3.27l-2.63.3a3.61,3.61,0,0,0-1.32-2.1,3.77,3.77,0,0,0-2.29-.69,4.48,4.48,0,0,0-3.3,1.26,5.4,5.4,0,0,0-1.27,4,5.56,5.56,0,0,0,1.23,4,4.23,4.23,0,0,0,3.2,1.27,4.12,4.12,0,0,0,2.64-.85A3.94,3.94,0,0,0,530.37,419.94Z" transform="translate(-33.08 -43.67)"/><path class="a70fa231-b018-4a04-adeb-3aa608a09b63" d="M534.23,420.89l2.67-.38a3.12,3.12,0,0,0,1.24,2.12,4.83,4.83,0,0,0,2.88.75,4.73,4.73,0,0,0,2.76-.66,1.89,1.89,0,0,0,.9-1.53,1.4,1.4,0,0,0-.81-1.25,12.66,12.66,0,0,0-2.76-.78A27.84,27.84,0,0,1,537,418a3.68,3.68,0,0,1-1.72-1.32,3,3,0,0,1-.61-1.84,3.27,3.27,0,0,1,.49-1.7,3.85,3.85,0,0,1,1.33-1.3,5.62,5.62,0,0,1,1.72-.69,9,9,0,0,1,2.31-.28,10.64,10.64,0,0,1,3.3.47,4.45,4.45,0,0,1,2.08,1.26,4.74,4.74,0,0,1,.93,2.14l-2.62.31a2.4,2.4,0,0,0-1.06-1.66,4.28,4.28,0,0,0-2.43-.59,5.07,5.07,0,0,0-2.66.52,1.52,1.52,0,0,0-.79,1.24,1.14,1.14,0,0,0,.34.82,2.41,2.41,0,0,0,1,.62c.28.1,1.07.29,2.39.6a40.37,40.37,0,0,1,4,1.08,4.06,4.06,0,0,1,1.77,1.23,3.07,3.07,0,0,1,.65,2,3.44,3.44,0,0,1-.8,2.19,5,5,0,0,1-2.26,1.6,9.23,9.23,0,0,1-3.35.56,8.44,8.44,0,0,1-4.73-1.11A5.1,5.1,0,0,1,534.23,420.89Z" transform="translate(-33.08 -43.67)"/></svg>