<?xml version="1.0" encoding="UTF-8" standalone="no"?>
<!-- Created with Inkscape (http://www.inkscape.org/) -->

<svg
   version="1.1"
   id="svg2"
   xml:space="preserve"
   width="1842.6667"
   height="1232"
   viewBox="0 0 1842.6667 1232"
   sodipodi:docname="gather.svg"
   inkscape:version="1.1 (c68e22c387, 2021-05-23)"
   xmlns:inkscape="http://www.inkscape.org/namespaces/inkscape"
   xmlns:sodipodi="http://sodipodi.sourceforge.net/DTD/sodipodi-0.dtd"
   xmlns="http://www.w3.org/2000/svg"
   xmlns:svg="http://www.w3.org/2000/svg"><defs
     id="defs6" /><sodipodi:namedview
     id="namedview4"
     pagecolor="#ffffff"
     bordercolor="#666666"
     borderopacity="1.0"
     inkscape:pageshadow="2"
     inkscape:pageopacity="0.0"
     inkscape:pagecheckerboard="0"
     showgrid="false"
     inkscape:zoom="0.62987013"
     inkscape:cx="921.61856"
     inkscape:cy="616"
     inkscape:window-width="1920"
     inkscape:window-height="1043"
     inkscape:window-x="0"
     inkscape:window-y="0"
     inkscape:window-maximized="1"
     inkscape:current-layer="g8" /><g
     id="g8"
     inkscape:groupmode="layer"
     inkscape:label="Frame 2"
     transform="matrix(1.3333333,0,0,-1.3333333,0,1232)"><g
       id="g10"
       transform="translate(240,159.29596)"><path
         d="m 333.53351,623.96521 c -3.31372,5.7395 -1.34723,13.07861 4.39227,16.39233 5.73953,3.31372 13.07861,1.34717 16.39233,-4.39233 l 21.39322,-37.05414 c 0.62528,-0.065 1.2536,-0.18011 1.88022,-0.34808 l 46.76218,-12.53296 c 6.40149,-1.7157 10.20068,-8.29614 8.48578,-14.69788 -1.71488,-6.40167 -8.29453,-10.20044 -14.69602,-8.48474 l -42.52707,11.39795 -11.0267,-41.16247 c -1.7149,-6.40174 -8.29452,-10.20044 -14.69601,-8.48474 -6.40149,1.71569 -10.20072,8.29614 -8.48581,14.69781 l 12.52716,46.76373 c 0.14911,0.55658 0.33499,1.09351 0.55432,1.60889 z M 490.3541,203.70401 V 5.015503 h 35.24966 v 70.644775 c 0,12.51001 3.21283,22.260498 9.63855,29.251402 6.60931,6.99085 14.87097,10.48633 24.78491,10.48633 10.09754,0 17.44122,-3.1275 22.03101,-9.38251 4.77337,-6.255002 7.16009,-15.269589 7.16009,-27.043698 V 5.015503 h 34.97425 v 77.267761 c 0,20.604736 -4.68165,36.242246 -14.0448,46.912536 -9.17957,10.67032 -22.2146,16.00549 -39.10505,16.00549 -10.09753,0 -19.09356,-2.20767 -26.98803,-6.62295 -7.71088,-4.23133 -13.86115,-10.11838 -18.45093,-17.66123 v 82.7869 z M 42.960503,14.122009 C 56.546303,5.843323 72.426994,1.704041 90.602592,1.704041 c 14.503758,0 26.437218,2.483581 35.800398,7.450805 9.36318,4.967224 17.16587,12.05011 23.408,21.248657 l 2.75386,-25.388 h 32.49576 V 111.25867 H 100.79194 V 84.766846 h 48.74363 C 147.69965,69.313293 142.28371,56.803284 133.2877,47.236816 124.4753,37.854309 111.34847,33.163025 93.907242,33.163025 c -17.808411,0 -31.944985,5.795105 -42.409722,17.385254 -10.281143,11.774109 -15.421714,28.331543 -15.421714,49.672121 0,21.34064 5.232368,38.08197 15.697105,50.22406 10.464737,12.32605 25.335678,18.48907 44.612824,18.48907 12.117065,0 22.031025,-2.57559 29.741885,-7.72677 7.71085,-4.96723 13.03504,-11.9581 15.97251,-20.97269 h 39.38043 c -4.40622,19.13297 -14.04477,34.12662 -28.91571,44.9809 -14.87094,10.85424 -33.59731,16.2814 -56.179115,16.2814 -19.827927,0 -36.99376,-4.32334 -51.497517,-12.96994 C 30.568054,180.06375 19.460741,168.19763 11.566289,152.92804 3.855429,137.84244 0,120.36523 0,100.4964 0,80.811523 3.763634,63.51825 11.290901,48.616577 18.818169,33.898926 29.374704,22.400757 42.960503,14.122009 Z M 236.6786,7.223145 c 7.52727,-3.679444 17.16585,-5.519104 28.91573,-5.519104 11.38269,0 20.65408,2.391601 27.81418,7.174865 7.34366,4.783203 13.03503,10.854248 17.07406,18.213074 l 3.30466,-22.076477 h 30.01727 v 84.166626 c 0,17.845211 -5.59954,31.643001 -16.79864,41.393461 -11.1991,9.75046 -26.52905,14.6257 -45.98981,14.6257 -11.38269,0 -21.66385,-2.02368 -30.84344,-6.07104 -9.1796,-3.86337 -16.70687,-9.47449 -22.58181,-16.83331 -5.69134,-7.35889 -8.996,-16.0055 -9.91395,-25.939945 h 34.42348 c 1.28514,6.622985 4.58979,11.590215 9.91395,14.901675 5.32416,3.49542 11.56629,5.24316 18.72638,5.24316 7.89444,0 14.50375,-2.20764 19.82791,-6.62292 5.32416,-4.41535 7.9863,-11.314274 7.9863,-20.696781 v -3.311462 h -34.69891 c -19.82793,0 -34.69887,-3.955384 -44.61283,-11.866089 -9.91395,-7.910767 -14.87094,-18.213135 -14.87094,-30.907105 0,-7.542847 1.83592,-14.441711 5.50777,-20.696716 3.67184,-6.255005 9.27138,-11.314209 16.79864,-15.177612 z m 60.30996,32.010925 c -5.50776,-6.622986 -13.31043,-9.934448 -23.40799,-9.934448 -6.60932,0 -11.93344,1.471801 -15.97248,4.415344 -4.03901,2.943542 -6.05856,7.082886 -6.05856,12.41803 0,4.967224 2.01955,9.106506 6.05856,12.417968 4.03904,3.495484 10.74012,5.243225 20.1033,5.243225 H 307.7287 C 306.25995,54.043762 302.6799,45.856995 296.98856,39.23407 Z M 435.30453,5.015503 c -14.32016,0 -25.79467,3.495422 -34.42349,10.486328 -8.62881,6.990906 -12.9432,19.408936 -12.9432,37.254089 v 59.60657 h -23.40802 v 29.52731 h 23.40802 l 4.13076,36.70218 h 31.11887 V 141.8898 h 36.90195 V 112.36249 H 423.18747 V 52.47998 c 0,-6.622985 1.37689,-11.222229 4.13077,-13.79779 2.93747,-2.391663 7.89447,-3.587463 14.87097,-3.587463 h 17.07406 V 5.015503 Z M 720.91907,1.704041 c -13.76941,0 -25.97821,2.943542 -36.62653,8.830566 -10.64831,5.887085 -19.00183,14.165771 -25.06036,24.83606 -6.05853,10.670349 -9.08777,22.996398 -9.08777,36.978149 0,14.165771 2.93744,26.767761 8.81238,37.806034 6.05853,11.0382 14.32019,19.59289 24.78491,25.66394 10.64831,6.255 23.13257,9.3825 37.45276,9.3825 13.40222,0 25.24389,-2.94354 35.52502,-8.83062 10.28113,-5.88706 18.2674,-13.98175 23.95874,-24.28418 5.87494,-10.11835 8.81244,-21.432559 8.81244,-33.942569 0,-2.023682 -0.0918,-4.139343 -0.27539,-6.346985 0,-2.207703 -0.0918,-4.507324 -0.27539,-6.898926 H 685.11859 c 0.73438,-10.670288 4.40631,-19.040954 11.01563,-25.111999 6.7929,-6.071045 14.96277,-9.106568 24.50952,-9.106568 7.16009,0 13.12677,1.563721 17.90014,4.691224 4.95697,3.311523 8.62885,7.542846 11.01557,12.693969 h 35.80029 C 782.78943,39.41803 778.47516,31.507324 772.41663,24.332458 766.54169,17.341553 759.198,11.822388 750.38556,7.775085 741.75671,3.727722 731.93457,1.704041 720.91907,1.704041 Z m 0.27539,114.797789 c -8.62885,0 -16.24787,-2.48364 -22.85718,-7.4508 -6.60931,-4.78327 -10.83191,-12.142094 -12.66785,-22.076543 h 68.02076 c -0.55079,9.014588 -3.85541,16.189453 -9.91394,21.524593 -6.05854,5.33515 -13.58582,8.00275 -22.58179,8.00275 z m 95.71069,25.38797 V 5.015503 h 35.2497 v 62.36615 c 0,10.486328 1.65234,18.673035 4.95697,24.560058 3.48822,5.887085 8.26159,10.026429 14.32013,12.418029 6.05853,2.39166 12.94317,3.58747 20.65405,3.58747 H 902 v 37.25408 c -11.56628,0 -21.66382,-2.6676 -30.29266,-8.00274 -8.44526,-5.15119 -15.14624,-12.14209 -20.10321,-20.97266 l -3.30475,25.66391 z M 440.09598,463.84387 c 19.76925,11.41382 26.54153,36.69464 15.12634,56.46631 -11.41519,19.77173 -36.69516,26.54712 -56.46442,15.13336 -19.76925,-11.41375 -26.54153,-36.69458 -15.12634,-56.46631 11.41519,-19.77166 36.69519,-26.54712 56.46442,-15.13336 z m -11.12393,18.60132 c 9.56585,5.52286 12.8428,17.75562 7.31927,27.32266 -5.52353,9.56705 -17.75589,12.84549 -27.32175,7.32266 -9.56585,-5.52282 -12.8428,-17.75561 -7.31927,-27.32266 5.52353,-9.56704 17.75589,-12.84549 27.32175,-7.32266 z m -60.50852,-12.22522 c 11.41519,-19.7717 4.64288,-45.05252 -15.12634,-56.46631 -19.76926,-11.41376 -45.04923,-4.6383 -56.46442,15.13336 -11.41519,19.77173 -4.64291,45.05252 15.12634,56.46631 19.76923,11.41376 45.04923,4.63834 56.46442,-15.13336 z m -18.06497,-10.04233 c 5.52353,-9.56704 2.24658,-21.79983 -7.31927,-27.32266 -9.56586,-5.52286 -21.79822,-2.24438 -27.32175,7.32266 -5.52353,9.56705 -2.24658,21.79981 7.31927,27.32266 9.56586,5.52283 21.79822,2.24439 27.32175,-7.32266 z m 95.83798,-101.33041 c 19.76926,11.41379 26.54154,36.69461 15.12635,56.46631 -11.4152,19.7717 -36.6952,26.54712 -56.46442,15.13336 -19.76926,-11.41379 -26.54154,-36.69458 -15.12635,-56.46631 11.4152,-19.7717 36.6952,-26.54712 56.46442,-15.13336 z m -9.7579,18.23529 c 9.56586,5.52286 12.8428,17.75561 7.31927,27.32266 -5.52353,9.56705 -17.75589,12.84549 -27.32174,7.32266 -9.56586,-5.52282 -12.84281,-17.75561 -7.31928,-27.32266 5.52353,-9.56705 17.75589,-12.84552 27.32175,-7.32266 z m 111.22095,-18.15485 c 11.41522,-19.7717 4.64294,-45.05249 -15.12635,-56.46628 -19.76922,-11.41378 -45.04919,-4.63833 -56.46438,15.13334 -11.4152,19.77169 -4.64292,45.05252 15.12634,56.4663 19.76926,11.41379 45.04922,4.63834 56.46439,-15.13336 z m -17.56495,-10.90835 c 5.5235,-9.56705 2.24659,-21.79981 -7.31927,-27.32267 -9.56586,-5.52282 -21.79822,-2.24438 -27.32175,7.32267 -5.52353,9.56704 -2.24658,21.7998 7.31928,27.32266 9.56582,5.52286 21.79818,2.24438 27.32174,-7.32266 z m 2.70441,60.82791 c 19.76923,11.41379 26.5415,36.69461 15.12628,56.46631 -11.41516,19.7717 -36.69516,26.54712 -56.46438,15.13336 -19.76926,-11.41379 -26.54154,-36.69458 -15.12635,-56.46631 11.41519,-19.7717 36.69516,-26.54712 56.46445,-15.13336 z m -10.62396,17.73529 c 9.56586,5.52283 12.84283,17.75561 7.31927,27.32266 -5.52356,9.56705 -17.75589,12.84549 -27.32174,7.32266 -9.56586,-5.52282 -12.84281,-17.75561 -7.31928,-27.32266 5.52353,-9.56705 17.75589,-12.84552 27.32175,-7.32266 z M 540.30255,570.586 c 11.41516,-19.77167 4.64288,-45.05249 -15.12634,-56.46631 -19.76926,-11.41376 -45.04926,-4.63831 -56.46445,15.13336 -11.41519,19.77173 -4.64291,45.05255 15.12634,56.46631 19.76926,11.41376 45.04923,4.63837 56.46445,-15.13336 z m -17.565,-10.90839 c 5.52356,-9.56701 2.24658,-21.7998 -7.31928,-27.32263 -9.56585,-5.52283 -21.79821,-2.24438 -27.32174,7.32263 -5.52353,9.56708 -2.24658,21.79987 7.31927,27.3227 9.56586,5.52282 21.79819,2.24438 27.32175,-7.3227 z"
         style="fill:#000000;fill-opacity:1;fill-rule:evenodd;stroke:none"
         id="path12" /></g></g></svg>
