<svg xmlns="http://www.w3.org/2000/svg" width="229.715" height="411.398" viewBox="0 0 229.715 411.398"><defs><style>.a{fill:#679a71;}.b{fill:#1f4a29;}.c{fill:#3a8b2e;}.d{fill:#54765e;}.e{fill:#346d30;}.f{fill:#204a29;}.g{fill:#3a8b2d;}.h{fill:#3b8b2e;}.i{fill:#336e31;}.j{fill:#33542c;}.k{fill:#376428;}.l{fill:#3b8b2f;}.m{fill:#366228;}.n{fill:#346e30;}.o{fill:#204b2a;}.p{fill:#25452f;}.q{fill:#6b9e76;}.r{fill:#26452f;}.s{fill:#355d2a;}.t{fill:#24462e;}.u{fill:#24452e;}.v{fill:#22482b;}.w{fill:#9fada2;}.x{fill:#54765d;}.y{fill:#234a2e;}.z{fill:#254630;}.aa{fill:#24442e;}.ab{fill:#345b2a;}.ac{fill:#53755d;}.ad{fill:#fbfcfc;}.ae{fill:#fbfdfc;}.af{fill:#fafbfb;}.ag{fill:#8bb394;}.ah{fill:#608f6a;}.ai{fill:#396f41;}.aj{fill:#448547;}.ak{fill:#669a72;}.al{fill:#2f4c2a;}.am{fill:#324f2e;}.an{fill:#33512c;}.ao{fill:#274930;}.ap{fill:#25442e;}.aq{fill:#f8ccad;}.ar{fill:#32542e;}.as{fill:#356329;}.at{fill:#659971;}.au{fill:#e7eae8;}.av{fill:#b9babc;}.aw{fill:#1b4422;}.ax{fill:#cacecc;}.ay{fill:#1a4422;}.az{fill:#294833;}.ba{fill:#1c4623;}.bb{fill:#2b5637;}.bc{fill:#2f5626;}.bd{fill:#2e5425;}.be{fill:#366328;}.bf{fill:#24452d;}.bg{fill:#25462e;}.bh{fill:#2d4e2f;}.bi{fill:#24472e;}.bj{fill:#78a683;}.bk{fill:#70a07b;}.bl{fill:#345130;}.bm{fill:#597f62;}.bn{fill:#fafcfa;}.bo{fill:#2f5525;}.bp{fill:#f8faf9;}.bq{fill:#f7faf8;}.br{fill:#f6f9f7;}.bs{fill:#f5f8f5;}.bt{fill:#713427;}.bu{fill:#fefefe;}.bv{fill:#fefefd;}.bw{fill:#cf6a43;}.bx{fill:#ac9481;}.by{fill:#ab927f;}.bz{fill:#a9907e;}.ca{fill:#92301f;}.cb{fill:#31532c;}.cc{fill:#346028;}.cd{fill:#76a581;}.ce{fill:#378729;}.cf{fill:#903024;}</style></defs><g transform="translate(-278.103 -980.302) rotate(22)"><path class="a" d="M715.57,904.589c-5.859-24.273-.5-46.141,14.659-65.613,11.108-14.264,25.215-24.347,43.268-27.946,31.2-6.222,63.042,11.277,74.778,40.879a68.772,68.772,0,0,1,.28,51.66c-.359.937-1.43,2.122.469,2.724-1.191,7.47-5.578,12.612-11.877,16.39-10.887,6.528-22.718,10.68-34.844,14.2a206.515,206.515,0,0,1-24.575,5.3c-9.985,1.62-20.062,2.513-30.176.871a13.861,13.861,0,0,1-7.347-3.023c-2.867-2.206-5.751-4.393-8.594-6.63a8.1,8.1,0,0,1-2.57-2.813,70.126,70.126,0,0,1-6.209-9.362c-.575-1.068-1.717-2.087-.753-3.515a11.547,11.547,0,0,0,9.028-.493,4.433,4.433,0,0,1,1.255-.3c12.99-2.069,25.7-5.472,38.531-8.282,14.612-3.2,29.242-6.346,43.831-9.664,2.819-.641,3.89-2.252,3.99-5,.512-13.955-4.768-25.505-14.912-34.766-12.013-10.968-26.623-14.636-42.336-12.449-25.34,3.527-44.874,24.553-44.279,49.31.081,3.378.993,6.6,1.5,9.894.21,1.361.74,2.743-.1,4.086-1.612.134-1.471-1.2-1.738-2.134-.6-2.119-.4-4.34-.871-6.311C715.48,902.4,717.259,903.782,715.57,904.589Z" transform="translate(0 -21.496)"/><path class="a" d="M870.446,1225.865c-5.459,1.176-10.788,2.871-16.367,3.616-2.645.353-5.793.3-7.517,3.168a1.672,1.672,0,0,1-1.795-.324,190.1,190.1,0,0,1-20.126-14.983q-12.445-10.253-25.028-20.335a21.753,21.753,0,0,1-2.307-2.252c-4.46-4.84-4.485-4.853-1.405-10.681a16.608,16.608,0,0,0,1.66-6.508c.157-1.811-.267-3.664.386-5.443a1.613,1.613,0,0,1,2.481-.6c3.48,1.964,7.19,1.477,10.722.652,10.706-2.5,21.55-4.271,32.314-6.459a48.565,48.565,0,0,0,8.023-2.44c1.447-.567,2.8-1.3,2.46-3.259a12.819,12.819,0,0,1-.084-2.279c-.392-5.085-1.906-10.02-2-15.147-.021-1.16-.375-2.32.184-3.445a27.49,27.49,0,0,1,15.785-3.766c1.429,1.511.092,2.806-.386,4.123-3.3,9.091-2.239,17.543,3.658,25.285,4.436,5.823,13.212,9.228,20.648,2.628a4.655,4.655,0,0,1,1.655-.985,6.918,6.918,0,0,1,5.923,3.8c-.842,3.3-3.538,5.354-5.463,7.891a139.431,139.431,0,0,0-19,34.738,59.546,59.546,0,0,0-3.08,10.536A3.438,3.438,0,0,1,870.446,1225.865Z" transform="translate(-28.296 -133.909)"/><path class="b" d="M753.64,993.837c16.621,5.686,33.1,2.229,49.489-1.05,15.307-3.061,30.105-7.823,43.9-15.306,6.645-3.605,12.724-7.8,14.16-16.047.129-.741.688-1.041,1.273-1.332,3.5,1.375,4.744,3.215,4.422,6.764-.1,1.047-.6,2.1.7,2.744a8.952,8.952,0,0,0,3.642,5.305c3.194,2.423,3.348,3.509,1.44,7.251a1.95,1.95,0,0,1-1.1.88,3.126,3.126,0,0,1-1.366-.369c-2.024-.885-3.523.372-5.043,1.313-8.2,5.073-15.236,11.522-21.8,18.524a30.344,30.344,0,0,1-5.974,5.374,63.9,63.9,0,0,1-5.573,3.25c-8.017,3.875-16.079,7.638-24.621,10.245a5.734,5.734,0,0,1-3.117.556,1.506,1.506,0,0,1-.879-1.2c.265-3.293,1-6.544-.2-9.875-2.35-6.519-8.7-10.55-14.524-8.991a13.644,13.644,0,0,0-9.732,15.407c.47,2.976,2.171,5.344,3.139,8.06a1.461,1.461,0,0,1-.336.953c-5.148,1.791-10.318.856-15.488.131-1.56-.554-3.2-.964-4.385-2.25a9.515,9.515,0,0,0-7.181-4.746c-3.727-2.558-4.756-6.379-2.524-9.954a16.183,16.183,0,0,0,2-13.409A17.144,17.144,0,0,1,753.64,993.837Z" transform="translate(-13.436 -73.605)"/><path class="c" d="M970.313,1271.854c3.044,9.064,6.109,18.122,9.119,27.2.81,2.444-.416,3.454-2.749,4.006-13.927,3.3-27.829,6.7-41.74,10.067q-7.058,1.709-14.119,3.411c-4.015.961-5.332-.168-4.475-4.269a37.143,37.143,0,0,1,9.323-18.123c3.816-.627,7.582-1.509,11.377-2.244a42.771,42.771,0,0,1,21.015,1.166c1.254.385,3.192,1.266,3.716-.381.625-1.965-1.637-2.159-2.936-2.583a39.235,39.235,0,0,0-20.022-1.374c-4.281.834-8.489,2.133-12.892,2.288l-2.767-7.9a65.134,65.134,0,0,0,20.594-1.784c1.823-.249,3.615-.665,5.421-1,1.542-.334,3.156-.408,4.546-1.283a93.691,93.691,0,0,0,14.448-6.823A2.52,2.52,0,0,1,970.313,1271.854Z" transform="translate(-71.593 -182.752)"/><path class="c" d="M847.758,1297.42c1.751,5.972,3.477,11.952,5.263,17.912.833,2.781,1.746,5.54,2.69,8.286,1.2,3.5.216,5.477-3.341,6.079q-28.809,4.877-57.636,9.647c-3.118.517-4.066-.728-3.52-3.775,1.743-9.73,7.484-16.967,14.363-23.532a1.507,1.507,0,0,1,.912-.272,6.856,6.856,0,0,0,2.882.162c10.015-2.4,19.119,1.192,28.3,4.286.306.1.585.281.889.385,1.162.4,2.634,1.484,3.316-.271.6-1.547-.992-2.178-2.134-2.743a56.7,56.7,0,0,0-10.381-3.537,13.125,13.125,0,0,1-3.348-1.159c-.736-.437-1.217-.967-.329-1.739,4.058-1.321,8.153-2.5,12.307-3.474,1.456-.34,2.923-.618,4.363-1.047C845.073,1301.817,847.066,1300.309,847.758,1297.42Z" transform="translate(-27.497 -191.941)"/><path class="c" d="M937.623,974c8.47-1.589,15.827-.033,22.029,6.579,5.386,5.741,8.109,12.618,10.061,19.937,4.442,16.653,10.026,32.924,16.059,49.052a10.552,10.552,0,0,0-.829,4.376c.37,3.851-2.581,8.261-6.141,9.593-1.956.733-2.5-.706-3.088-1.936a57.612,57.612,0,0,1-3.592-11.043c-4.776-19.146-13.56-36.471-23.675-53.221a27.606,27.606,0,0,0-2.433-3.422c-2.216-2.655-3.645-5.177-2.026-8.978,1.294-3.039-.989-5.457-3.27-7.473C939.56,976.438,937.764,975.943,937.623,974Z" transform="translate(-79.297 -78.129)"/><path class="a" d="M748.212,1154.3a7.784,7.784,0,0,0-2.051-4.581,17.033,17.033,0,0,1-3.773-7.738,129.635,129.635,0,0,1,0-60.027c1.3-5.7,2.173-11.655,5.55-16.713,1.17.941,1.041,2.333,1.11,3.576.785,14.306,2.883,28.476,4.522,42.687a173.7,173.7,0,0,0,6.648,30.246c1.339,4.435,1.86,9.074,3.551,13.415a2,2,0,0,1-.821,2.794A18.167,18.167,0,0,1,748.212,1154.3Z" transform="translate(-9.17 -110.171)"/><path class="d" d="M766.982,1156.892c2.51-.329.991-1.923.738-2.83-3.646-13.126-7.623-26.194-9.54-39.706q-2.206-15.56-3.685-31.24c-.592-6.177-1.148-12.347-1.5-18.539l.417-.665c1.636-1.31,2.8.2,4.143.682,7.306,6.257,12.22,14.322,16.912,22.538a23.277,23.277,0,0,1,2.205,4.654,87.178,87.178,0,0,0,1.5,9.032,6.915,6.915,0,0,1,.049,3.742,3.436,3.436,0,0,1-3.028,1.33,2.658,2.658,0,0,1-1.025-.263c-1.324-1.636-1.14-3.727-1.186-5.545-.143-5.591-2.932-9.965-6.235-14.913-.037,7.742.033,14.893,1.348,21.988-.869,1.985-.513,4.053-.4,6.1.054,3.908-.137,7.845,1.394,11.573a1.975,1.975,0,0,1,.692,1.174c-.659,1.83.349,3.566.311,5.365-.188.46-.493.858-.67,1.325,1.612,6.015,2.581,12.174,4.277,18.155.591,2.083.9,3.987-.6,5.786a6.989,6.989,0,0,1-3.761,1.3C768.409,1157.914,767.337,1158.208,766.982,1156.892Z" transform="translate(-14.229 -109.511)"/><path class="a" d="M802.141,1283.123c-2.214-2.758-3.045-6.078-3.769-9.425-.731-3.375-1.663-6.537-4.417-9.01-3.129-2.81-4.44-6.8-5.7-10.662s-2.115-7.857-3.147-11.793c.736-2.105,1.246-4.28,1.945-6.4,1.938-.728,3.348.476,4.675,1.475,6.343,4.777,12.9,9.247,19.545,13.581A149.475,149.475,0,0,1,832,1266.631c1.07,1,2.466,1.862,2.1,3.7a4.835,4.835,0,0,1-3.163,2.073c-9.238,2.441-18.467,3.1-27.672-.2-.966-.347-2.1-1.2-2.992-.222-.8.874-.216,2.073.081,3.089.546,1.865,1.477,3.592,2.071,5.434C802.7,1281.334,803.784,1282.439,802.141,1283.123Z" transform="translate(-25.426 -169.816)"/><path class="d" d="M922.4,1257.616c-.446-1.083-.979-2.139-1.323-3.255-1.41-4.572-1.389-4.578-6.059-3.972.413-2.2,2.286-1.82,3.691-1.882,1.143-.05,2.286.219,3.361-.4,13.295-.708,25.425-5.18,37.026-11.388a4.036,4.036,0,0,0,2.468-4.132,14.178,14.178,0,0,1,1.6-6.862c.86-1.868.75-3.26-1.458-4.09-2.739-1.029-4.512-3.255-6.232-5.479a4.809,4.809,0,0,0-4.019-2.279c-3.522.026-5.87-1.783-7.223-4.977a2.5,2.5,0,0,1,.646-2.337c1.046-.893,1.581-2.589,3.441-2.226.918,2.429,2.24,4.277,5.217,4.349,1.642.04,2.6,1.333,3.406,2.647a25.746,25.746,0,0,0,4.437,5.466c2.532,2.338,5.327,3.5,8.717,1.889a9.572,9.572,0,0,1-1.035,6.834c-3.279,6.134-2.367,12.088-.062,18.144a8.992,8.992,0,0,1,.3,1.563c-1.755-.709-2.916.685-4.322,1.233-5.475,3.436-11.724,5-17.831,6.38-7.095,1.607-13.954,4.578-21.424,4.425a8.365,8.365,0,0,0-2.211.455A1.742,1.742,0,0,1,922.4,1257.616Z" transform="translate(-71.207 -158.604)"/><path class="e" d="M936.337,974.318c1.461,1.594,3.545,2.371,5.019,4.006,2.905,3.222,3.427,5.725,1.408,9.58a1.958,1.958,0,0,0,.169,2.562c6.263,7.446,10.316,16.249,15.063,24.625,5.622,9.919,9.249,20.666,12.63,31.469,1.465,4.68,2.666,9.457,4.188,14.132,1.059,3.255,1.377,3.37,3.927,1.351,2.858-2.263,5.482-4.566,3.886-8.876-.553-1.495.349-2.685,1.857-3.28l.782.532c.82,1.978,1.21,4.1,2,6.09a5.993,5.993,0,0,1-.826,5.793c-.818,1.352-2.275,1.973-3.4,2.971-2.859,1.654-5.157,4.4-8.8,4.539-1.821-1.03-2.582-2.825-3.3-4.632-3.4-8.508-6.123-17.253-8.957-25.954-5.115-15.711-12.852-30.07-22.053-43.7a7.673,7.673,0,0,1-.942-1.734c.019-2.168-1.961-3.666-1.97-5.829l.5-.743c3.172-3.78,3.1-4.666-.959-7.255-2.065-1.319-3.161-2.858-2.119-5.332Z" transform="translate(-78.011 -78.407)"/><path class="f" d="M921.084,1242.885c-.578.472-.013,2.641-2.08.994-1.142-.91-3.235-.125-4.632,1.009l-1.167.17c4.166-19.421,13.354-36.352,25.638-51.749,1-1.26,1.985-2.538,2.977-3.808a1.593,1.593,0,0,1,.909-.582c2.571.165,3.025,2.091,3.041,4.038a31.706,31.706,0,0,1-.948,8.472l-1.036,1.554a3.631,3.631,0,0,1-1.118,2.588c-8.555,10.569-15.587,22.011-20.127,34.9C922.231,1241.353,922.03,1242.36,921.084,1242.885Z" transform="translate(-70.824 -153.103)"/><path class="g" d="M989.824,1187.988c3.438,4.744,4.034,10.173,4,15.823-.023,3.68-1.276,6.419-4.756,7.925-5.626,0-9.816-2.306-12.48-7.4a3.9,3.9,0,0,0-4.562-2.125c-2.733.514-3.895-.583-3.937-3.554-.043-2.991.173-5.986.388-8.98a1.831,1.831,0,0,1,.616-.9,6.147,6.147,0,0,1,3.393-.862,92.068,92.068,0,0,0,10.917-.984C985.571,1186.572,987.924,1186.213,989.824,1187.988Z" transform="translate(-90.2 -153.266)"/><path class="g" d="M811.156,752.73c-.278,6.72-1.563,13.78-5.807,19.909a75.375,75.375,0,0,1-12.2,13.292c-1.139,1.011-2.281,1.6-3.787.905a3.082,3.082,0,0,1-1.735-3.489,45.36,45.36,0,0,1,10.9-24.706,55.478,55.478,0,0,1,8.283-8.132C808.807,748.953,810.6,749.724,811.156,752.73Z" transform="translate(-26.348)"/><path class="h" d="M767.318,794.89c.455,2.422-.691,3.694-3.273,3.347a20.037,20.037,0,0,1-8.959-3.481,40.515,40.515,0,0,1-14.279-18.742,3.484,3.484,0,0,1,.691-3.894c.985-1.079,2.106-.465,3.283-.213C755.09,774.112,765.969,789.052,767.318,794.89Z" transform="translate(-9.754 -7.796)"/><path class="d" d="M809.7,1302.037c-.122-3.373-2.715-5.941-3.016-9.246-.1-1.089-1.1-2.352.229-3.243,1.09-.731,2.164-.2,3.314.3a34.923,34.923,0,0,0,19.8,2.188c3.895-.627,8.239-.32,11.437-3.459a1.266,1.266,0,0,1,1.263.12,32.239,32.239,0,0,1,4.91,4.035,4.988,4.988,0,0,1,.991,1.231c.76,1.576,0,2.515-1.414,2.951-2.144.661-4.209,1.529-6.426,2.018a219.849,219.849,0,0,1-30.177,4.3A1.5,1.5,0,0,1,809.7,1302.037Z" transform="translate(-32.913 -188.73)"/><path class="i" d="M931.267,1299.6c11.488-3.906,23.069-5.7,34.849-1.293,1.3.486,3.183,1.04,2.622,3.048-.605,2.17-2.372,2.236-4.182,1.569-10.251-3.785-20.463-2.4-30.644.265-1.156.3-2.052.466-2.9-.46C931.6,1301.727,931.219,1300.646,931.267,1299.6Z" transform="translate(-76.93 -191.337)"/><path class="h" d="M774.219,1233.166a10.068,10.068,0,0,1-11.8-6.86,21.1,21.1,0,0,1-.907-10.4c3.309-2.285,6.534-.875,9.77.219a5.593,5.593,0,0,1,1.181,3.581,38.048,38.048,0,0,0,1.838,10.683A3.129,3.129,0,0,1,774.219,1233.166Z" transform="translate(-17.162 -163.161)"/><path class="b" d="M988.481,1182.9c-7.05-.675-13.951,1.036-20.942,1.317-1.884-1.251-3.453-2.694-3.18-5.255a3.112,3.112,0,0,1,2.742-1.448c5.841-.1,11.079-2.391,16.408-4.374a8.093,8.093,0,0,1,4.094-.658c2.128,1.959,2.721,6.495,1.316,10.047A.607.607,0,0,1,988.481,1182.9Z" transform="translate(-88.856 -148.384)"/><path class="b" d="M926.519,1279.823a3.976,3.976,0,0,1,.5-.179c3.779-.752,7.642-.7,11.45-1.4,9.428-1.733,18.4-4.878,27.335-8.187a10.286,10.286,0,0,0,3.746-2.469c1.271-.491,2.48-2.491,3.865-.156q.315,1.237.629,2.476a62.985,62.985,0,0,1-16.319,7.793c-1.278.924-2.862.717-4.271,1.151-1.929.541-4.019.43-5.832,1.441-5.965,1.544-12.081,1.828-18.182,2.333-1.475.122-1.766-.88-2.548-1.461Q926.706,1280.5,926.519,1279.823Z" transform="translate(-75.322 -180.811)"/><path class="i" d="M1001.776,1171.488a30.268,30.268,0,0,0-1.214-9.583,1.653,1.653,0,0,1-.071-1.822c1.922-2.808,2.2-6.137,3.065-9.278,5.827-.823,9.31-4.932,12.749-9.107a.932.932,0,0,1,.892-.016l-.037,3.91c-1.323,3.258-2.479,6.579-5.963,8.365-1.72.882-2.181,2.774-2.8,4.51-1.222,3.406-1.063,7.228-3.147,10.367A7.552,7.552,0,0,1,1001.776,1171.488Z" transform="translate(-101.715 -137.423)"/><path class="f" d="M850.457,1294.284l-.679-.546c.43-2.415,2.718-2.544,4.283-2.79s.622,2.159,1.633,2.944q.2.6.408,1.2c1.065,2.98-.442,4.422-3.074,5.286a181.835,181.835,0,0,1-19.43,5.054,2.646,2.646,0,0,1-2.5,1.016,25.731,25.731,0,0,0-12.036.029c-1.507.35-3.168.957-4.439-.65a.371.371,0,0,1-.236-.454c.2-2.744,2.45-1.917,3.863-1.971,10.707-.411,21.048-2.888,31.379-5.4C852.242,1297.365,852.335,1296.525,850.457,1294.284Z" transform="translate(-35.799 -189.617)"/><path class="j" d="M1013.991,1104.634a6.42,6.42,0,0,0,.143-7.191,4.907,4.907,0,0,1-.513-4.6l1.482.494c.39.364,1.064.645,1.165,1.06,1.542,6.327,7.36,10.4,8.788,16.812.42,1.888,1.01,3.671.5,5.6-.191,1.959-.653,3.8-2.259,5.133-1.85,1.154-2.5-.261-3.039-1.538a21.565,21.565,0,0,1-1.141-4.974A20.028,20.028,0,0,0,1013.991,1104.634Z" transform="translate(-106.364 -120.336)"/><path class="k" d="M1026.595,1117.091c-1.363-6.372-3.322-12.467-8.437-16.943-.953-.835-.66-1.7-.651-2.62.014-1.468-.783-2.653-1.364-3.913a14.812,14.812,0,0,1,12.284,15.7A18.927,18.927,0,0,1,1026.595,1117.091Z" transform="translate(-107.403 -120.646)"/><path class="l" d="M1008.033,1171.073c.925-3.949,1.8-7.912,2.81-11.838.258-1,.742-2.417,1.5-2.728,4.033-1.658,4.907-5.947,7.605-8.674.6,7.574-2.631,13.721-7.331,19.243A39.6,39.6,0,0,1,1008.033,1171.073Z" transform="translate(-104.5 -139.669)"/><path class="m" d="M1012.444,1111.206c4.143.98,4.2,4.9,5.385,7.847.894,2.233,1.038,4.771,1.477,7.179.254,1.394.74,2.473,2.443,2.288a4.691,4.691,0,0,1-1.45,2.291l-.714.1c-2.35.3-3.514-.917-4.182-3.044-1.258-4-2.81-7.873-5.646-11.087-.849-.961-1.314-2-.117-3.073C1010.129,1112.377,1011.8,1112.369,1012.444,1111.206Z" transform="translate(-104.816 -126.843)"/><path class="n" d="M779.628,1233.706c-2.469-5.4-2.315-11.31-3.325-16.993a1.2,1.2,0,0,1,.832-.523c4.716.222,5.269.6,5.416,5.035a20.065,20.065,0,0,0,1.661,6.385,1.879,1.879,0,0,1-.179,1.472c.22,2.371,0,4.6-2.074,6.2C781.332,1234.533,780.832,1233.6,779.628,1233.706Z" transform="translate(-22.363 -163.688)"/><path class="n" d="M968.419,1191.74c.534,2.775-.087,5.529-.153,8.293-.079,3.312.631,3.882,3.752,2.97,2.2-.644,3.413.783,4.54,2.227s2.029,3.018,3.14,4.453a5.886,5.886,0,0,0,5.572,2.529c1.316-.151,2.611-.177,3.24,1.351a1.158,1.158,0,0,1,.022.634c-2.123,3.3-4.748,1.565-6.98.414-3.009-1.551-5.02-4.313-6.7-7.18a4.786,4.786,0,0,0-4.266-2.763c-2.9-.116-4.106-1.832-3.879-4.652C966.474,1197.091,966.09,1194.135,968.419,1191.74Z" transform="translate(-89.644 -155.063)"/><path class="o" d="M768.765,1212.152l-.652.177c-3.139.263-6.227-1.25-9.385-.265a2.147,2.147,0,0,0-1.468-1.552c-2.842-1.268-3.645-3.74-3.838-6.564,4.461,1.548,8.772,3.727,13.712,3.256.615.557,1.349.351,2.055.319C770.269,1209.179,769.406,1210.656,768.765,1212.152Z" transform="translate(-14.38 -159.481)"/><path class="p" d="M849.984,1296.154a1.927,1.927,0,0,1,1.651,2.619c-.337,1.432-1.476,1.959-2.86,2.219-5.822,1.092-11.644,2.192-17.446,3.386a60.493,60.493,0,0,1-14.347,1.579c-1.128-.039-2.435-.061-3.064,1.289l-.859-1.256c1.307-1.712,3.317-1.388,5.029-1.494a142.52,142.52,0,0,0,31.331-5.578C851.86,1298.2,850.387,1297.187,849.984,1296.154Z" transform="translate(-35.339 -191.488)"/><path class="q" d="M716.864,955.215c1.048-1.244-.489-2.666.245-4,1.495,3.007.593,6.635,2.743,9.37a8.8,8.8,0,0,1,3.523,7.771c.72,3.573,2.96,6.353,4.851,9.317.739,1.158,1.965,2.026,2.106,3.541C723.692,973.661,718.819,965.195,716.864,955.215Z" transform="translate(-1.294 -70.661)"/><path class="r" d="M872.874,1291.972c-1.072-.447-.657-1.719-1.516-2.6-.993,1.674-3.247.93-4.4,2.448l-4.582-3.742c1.938-2.724,4.621-2.844,7.535-2.151l1.216.514A16.585,16.585,0,0,1,872.874,1291.972Z" transform="translate(-52.884 -187.698)"/><path class="s" d="M757.36,1061.555c-1.3-.213-2.2-1.639-3.71-1.236a21.376,21.376,0,0,1,2.124-6.957c2.652-.161,4.258,1.345,5.5,3.443C760.489,1058.816,758.473,1059.814,757.36,1061.555Z" transform="translate(-14.462 -106.606)"/><path class="t" d="M814.765,1313.564c2.426.734,4.664-.406,6.98-.722,3.219-.441,6.387-.569,9.448.776a3.041,3.041,0,0,1-2.747,1.339c-4.041.231-8.058.788-12.11.872a1.652,1.652,0,0,1-1.317-1.013Z" transform="translate(-35.989 -197.352)"/><path class="u" d="M933.763,974.808c.207,2.3.883,4.06,3.228,5.331,4.067,2.2,3.9,4.344-.15,7.256,1.992-4.1,1.951-4.048-1.716-7.015-1.694-1.371-3.8-2.7-2.618-5.506Z" transform="translate(-77.642 -79.011)"/><path class="v" d="M762.117,1056.533a20.093,20.093,0,0,0-5.31-3.565,1.292,1.292,0,0,1-.27-.556c3.375-.7,6.112.884,7.594,4.4C763.331,1057.651,762.693,1057.314,762.117,1056.533Z" transform="translate(-15.496 -106.236)"/><path class="w" d="M814.617,1316.085l.811.485c.754,1.3.114,1.838-1.124,2.045l-.646.1C813.618,1317.71,813.579,1316.7,814.617,1316.085Z" transform="translate(-35.616 -198.622)"/><path class="b" d="M723.744,937.373l-3.523-7.771c-1.942-7.779-3.256-15.6-1.518-23.614,3.692-17.023,13.76-29.07,29.45-36.057,18.725-8.339,37.095-6.861,53.871,5.029,13.334,9.45,19.863,22.818,19.31,39.4-.1,2.93-1.276,4.427-4.25,5.039-12.437,2.562-24.869,5.167-37.24,8.023-15.515,3.582-31.028,7.161-46.633,10.327-1.361.276-2.674.8-4.006,1.209A4.588,4.588,0,0,1,723.744,937.373Z" transform="translate(-1.662 -40.192)"/><path class="b" d="M885.016,871.591c2.445-2.1,5.6-2.611,8.514-3.488,2.431-.731,3.854.808,3.872,3.341a64.008,64.008,0,0,1-.207,6.405c-.146,1.565.418,1.747,1.813,1.615,4.439-.421,5.318.462,5.25,4.839-.06,3.952-.087,7.9-.128,11.856-.072.32-.251.806-.469.778-2.952-.381-5.3,1.413-7.936,2.154a4.469,4.469,0,0,1-.988,0,3.93,3.93,0,0,1-3.315-1.981c-.776-1.992-.04-4-.022-5.995.03-3.5-.412-4.033-3.794-4.177-.748-.031-1.511,0-1.922-.813.539-1.246,1.7-.734,2.618-1.056-1,.189-2.03.44-2.941-.236a2.758,2.758,0,0,1-.7-1.231,4.58,4.58,0,0,1-.124-1.423c.16-1.366.379-2.728.492-4.1a25.718,25.718,0,0,0,.062-3.083C885.349,873.853,884.726,872.731,885.016,871.591Z" transform="translate(-60.711 -41.448)"/><path class="x" d="M895.031,907.6a16.132,16.132,0,0,1-8.108,4.2c-3.373.721-5.57-.9-6.4-4.241a13.282,13.282,0,0,1-.159-4.483c.193-2.11.313-4.051-1.865-5.373-1-.607-1.031-1.907-1.063-2.943-.136-4.388-.172-8.784,1.282-13.023,1.606,1,1.061,2.608,1.061,4.015,0,1.79-.373,3.562-.409,5.352-.109,1.2-.357,2.422.718,3.367a2.056,2.056,0,0,0,.845.422c4.615.475,4.615.471,4.368,5.266-.027.526-.014,1.055-.048,1.582-.192,6.881-.193,6.872,6.367,5.678C892.759,907.216,893.933,906.824,895.031,907.6Z" transform="translate(-58.182 -46.297)"/><path class="y" d="M879.4,888.725c-.752-3.293.99-6.591-.024-9.884.644-2.167.249-5.079,3.736-5.2.7,1.008,1.634,1.988.385,3.229-1.227,2.73-1.1,5.694-1.47,8.573a4.526,4.526,0,0,0,.456,3.333,2.471,2.471,0,0,0,1.018.577c.284.035.559.081.841.117,1.215.076,2.514-.506,3.6.485a16.69,16.69,0,0,1-.587,10.582c-.706.11-.654-.61-.987-.909.063.333.3.627.247.985-.089.61-.353.97-1.038.667a3.8,3.8,0,0,1-.271-2.494c-.075-.634-.2-1.267-.214-1.9-.051-2.053,2.082-5.914-3.124-3.6a1.586,1.586,0,0,1-1.958-1.235A4.585,4.585,0,0,1,879.4,888.725Z" transform="translate(-58.855 -43.461)"/><path class="z" d="M888.462,912.4l.516,2.578c.731.406,1.192,1.256,2.143,1.3a7,7,0,0,0,5.007-.51c.849-.371.765-.86.423-1.494,2.84-1.193,5.472-3.132,8.831-2.453.447,3.078-.859,4.827-3.926,5.4a13.069,13.069,0,0,0-2.612,1.1c-1.978.463-3.983.835-5.929,1.409-3.419,1.008-4.989-.033-4.773-3.567C888.218,914.919,887.663,913.585,888.462,912.4Z" transform="translate(-61.958 -56.864)"/><path class="f" d="M840.029,1244.191c-2.53.654-5.228.719-7.535,2.151l-.81-.532a88.141,88.141,0,0,0-12.089-10.536c-9.539-7.267-20.054-13.138-29.525-20.519a10.36,10.36,0,0,0-5.11-2.574l-.3-1.341c-1.573-3.359-.971-6.975-1.242-10.485,2.172-2.135,4.361-4.159,5.6-7.15,2.4-5.812.571-10.435-3.385-14.668a7.525,7.525,0,0,1-.643-.654,19.725,19.725,0,0,0-4.727-4.206,3.674,3.674,0,0,1-.95-1.118c-.452-1.156-.79-2.3.362-3.276,1.753-.853,3.08.258,4.381,1.076a19.173,19.173,0,0,1,7.027,7.612c.948,2.2,2.463,4.253,1.782,6.874.768,5.2.009,10.153-3.142,14.408-1.424,1.923-.728,3.011.451,4.435,3.877,4.684,8.857,8.114,13.5,11.913,9.226,7.544,18.637,14.865,27.777,22.51C834.18,1240.389,838.006,1241.011,840.029,1244.191Z" transform="translate(-23.204 -145.965)"/><path class="aa" d="M790.676,1119.975c-.617-4.47-2.339-8.781-1.935-13.4a1.066,1.066,0,0,1,1.136-.133c4.435,2.275,5.927,6.144,6.717,10.878,1.825,10.937,4.116,21.8,6.252,32.682.734,3.742.8,3.712,4.67,3.585a53.546,53.546,0,0,0,8.928-1.36c9.592-1.953,19.3-3.372,28.73-6.067,1.474-.051,2.955.011,4.429-.151a3.2,3.2,0,0,1,3.245,1.57q.117.934.234,1.867c-.467,1.974-1.984,2.6-3.737,3.072-14.641,3.976-29.616,6.344-44.477,9.251-5.371,1.051-6.9-.192-8.166-5.477-1.307-5.441-2.047-10.981-3.124-16.461-1.125-5.131-2.057-10.3-3.055-15.456C790.239,1122.905,789.9,1121.417,790.676,1119.975Z" transform="translate(-26.655 -124.867)"/><path class="ab" d="M897.755,1124.137c-3.787-.733-7.206,1.045-10.8,1.629a45.714,45.714,0,0,0-5.183,1.452,3.925,3.925,0,0,1-1.5-2.724c-1.615-6.635-2.159-13.476-3.854-20.1a3.658,3.658,0,0,1,.152-2.2c1.031-1.04,1.64-.038,1.778.634.763,3.718,3.191,3.321,5.841,2.535a6.155,6.155,0,0,1,.953-.15c4.817-.871,9.606-1.866,14.414-2.761a7.464,7.464,0,0,1,3.467-.2c1.513.742,2.026,2.227,2.4,3.651.79,3.008,1.65,6,2.279,9.05a2.9,2.9,0,0,1-.473,1.506C903.811,1118.684,901.241,1121.976,897.755,1124.137Z" transform="translate(-57.763 -123.484)"/><path class="b" d="M907.715,1132.347c2.473-3.152,5.165-6.05,8.952-7.668,2.424.338,1.847,2.489,2.4,3.963a2.2,2.2,0,0,1-.67,1.349c-10.374,4.329-11.5,22.289-1.647,30.329,3.708,3.025,7.791,2.447,12.793-1.54a2.388,2.388,0,0,1,.951-.275c1.878.431,2.687,1.816,3.136,3.522a1.687,1.687,0,0,1-.317.93c-8.813,9.013-19.534,5.157-24.725-3.219C903.084,1150.861,902.571,1141.65,907.715,1132.347Z" transform="translate(-67.627 -131.392)"/><path class="d" d="M792.761,1157.8c1.174,6,2.414,11.983,3.491,18,.516,2.883,2.235,3.863,4.824,3.319,13.573-2.851,27.353-4.686,40.764-8.336a45.279,45.279,0,0,1,5.7-1.135,5.34,5.34,0,0,0,3.784-2.161c.627,2.276-.767,3.575-2.5,4.292a38.537,38.537,0,0,1-7.051,2.139c-9.917,2.01-19.855,3.906-29.79,5.824-2.7.522-5.289,1.491-8.1,1.631-2.53.126-4.96.179-7.1-1.337-.993-.7-1.661-.8-2.172.43-.416-2.441-1.788-4.512-2.625-6.791-.818-3.979-2.394-7.723-3.59-11.585a2.773,2.773,0,0,0-2.834-2.156c-.771-.017-1.839.078-1.8-1.249,1.131-1.208,2.686-1.28,4.16-1.568C789.6,1156.888,791.361,1156.065,792.761,1157.8Z" transform="translate(-24.907 -142.775)"/><path class="ac" d="M942.191,1159.81q-.022-.272-.046-.542c1.169-1.886.733-3.6-.36-5.4-1.994-3.273-4.212-6.431-5.6-10.047-.905-1.81-1.259-3.843-2.308-5.593-1.991-3.875-2.953-8.118-4.4-12.187a11.983,11.983,0,0,1-.447-4.363,7.165,7.165,0,0,0,.365-3.132c-.1-.98-.451-2.209,1.009-2.662,1.482.986,1.118,2.933,2.168,4.144,2.376,5.174,3.371,10.8,5.255,16.141a106.238,106.238,0,0,0,5.774,13.913c1.922,3.692,5.33,5.77,7.886,8.734.6,2.823-1.932,3.23-3.43,4.436l-.3.06-.3.044A19.614,19.614,0,0,0,942.191,1159.81Z" transform="translate(-76.444 -128.28)"/><path class="b" d="M875.355,1100q2.426,12.739,4.851,25.479,1.265,8.1,2.529,16.21a3.439,3.439,0,0,1-.087,2.507c-1-.155-1.783-1.112-2.914-.812a4.623,4.623,0,0,1-.819-2.067c-2.875-13.083-4.2-26.436-6.894-39.551a6.016,6.016,0,0,1-.064-1.6c.363-1.587.8-3.119,2.82-3.287A2.409,2.409,0,0,1,875.355,1100Z" transform="translate(-56.272 -121.619)"/><path class="ad" d="M858.227,1204.489c.26,1.587.548,3.168.769,4.76.111.8-.082,1.556-1.036,1.685a1.27,1.27,0,0,1-1.407-1.055c-.88-3.43-1.8-6.89-1.67-10.444.08-2.207,1.493-2.386,3.09-1.129a19.639,19.639,0,0,1,1.742,1.745c.29-.2.521-.267.606-.42.63-1.142.4-3.133,2.271-3.081,1.969.056,1.977,2.021,2.338,3.384.6,2.277,1.029,4.6,1.455,6.925.155.844.18,1.87-1,2-.926.1-1.21-.743-1.365-1.5-.4-1.959-.769-3.926-1.224-6.274-1.509,1.11-1.262,3.466-3.352,3.093C858.983,1204.06,858.2,1202.692,858.227,1204.489Z" transform="translate(-50.219 -156.834)"/><path class="ae" d="M847.05,1208.779c.2,1.045.329,1.465.358,1.891.069,1,.892,2.463-.464,2.833-1.564.428-1.312-1.3-1.6-2.214-.385-1.232-.422-2.565-2.427-2.145-1.708.357-2,1.35-1.9,2.774.049.644.137,1.286.177,1.931.042.673-.049,1.431-.763,1.6-.854.209-1.007-.605-1.147-1.219a27.66,27.66,0,0,1-.528-9.929c.2-1.469.8-3.082,2.656-3.222a3.661,3.661,0,0,1,3.773,2.51C845.966,1205.482,846.576,1207.437,847.05,1208.779Z" transform="translate(-44.43 -158.422)"/><path class="ae" d="M875.787,1200.091a19.829,19.829,0,0,1-.575-3.166c-.035-1.4-1.564-3.4,1-3.983,2.359-.531,5.061-1.328,6.5,1.67.975,2.024.925,4.157-1.339,5.3-2.024,1.024-2.946,2.187-2.159,4.5.329.966.447,2.41-1.035,2.561-1.258.128-1.255-1.258-1.465-2.142C876.351,1203.266,876.091,1201.672,875.787,1200.091Z" transform="translate(-57.269 -155.388)"/><path class="af" d="M823.057,1211.941c-.439-2.561-.528-4.795.835-6.814a3.136,3.136,0,0,1,3.888-1.422,1.632,1.632,0,0,1,1.182,1.737c-.191,1.327-.932.739-1.6.378-.765-.415-1.176.1-1.56.648-1.288,1.85-.524,7.253,1.249,8.768,1.376,1.176,1.519-.1,1.85-.952.34-.874.518-2.159,1.831-1.61,1.07.446.881,1.621.548,2.555-.516,1.447-1.222,2.833-2.933,3.1-1.593.249-2.618-.82-3.464-1.944A9.4,9.4,0,0,1,823.057,1211.941Z" transform="translate(-38.841 -159.266)"/><path class="ag" d="M859.867,1207.726l-.414-2.132c1.045.3,1.269,1.124,1.633,1.823Z" transform="translate(-51.869 -160.108)"/><path class="ab" d="M876.578,1018.909c5.09-4.894,10.122-9.85,15.289-14.661a72.988,72.988,0,0,1,14.011-10.21c1.249-.7,2.794-2.081,4.118.071.587.886-.2,1.349-.62,1.882-2.289,2.918-2.286,2.983.849,5.346-.623,2.659-2.961,3.8-4.831,5.287-11.368,9.028-21.423,19.272-29.365,31.481a89.259,89.259,0,0,0-7.707,14.881c-.4.984-.551,2.1-1.527,2.776a7.78,7.78,0,0,1-5.046.823c-1.942-2.177-.5-4.633-.441-6.928.067-2.751,1.237-5.364,1.635-8.1a7.6,7.6,0,0,1,.515-2.321q1.261-3.108,2.741-6.121C869.428,1028.215,872.926,1023.506,876.578,1018.909Z" transform="translate(-52.181 -85.119)"/><path class="g" d="M796.448,1047.978c-6.815-8.386-4.512-19.25,5-23.57,6.121-2.78,14.494.946,16.858,7.54,1.318,3.676,1.984,7.39.213,11.138a14.949,14.949,0,0,1-18.888,6.432A16.093,16.093,0,0,1,796.448,1047.978Z" transform="translate(-28.088 -96.02)"/><path class="d" d="M773.517,1053.63a57.615,57.615,0,0,0,15.909.3c1.348-.566,2.232.484,3.215,1.005,6,3.187,11.371,2.275,15.949-2.758.905-1,1.435-2.448,3.052-2.622a176.446,176.446,0,0,0,26.317-10.638,15.426,15.426,0,0,1,1.794-.635c.338,2.815-2.168,4.236-3.133,6.415a12.124,12.124,0,0,1-3.315,2.867,80.22,80.22,0,0,1-15.377,5.64,16.909,16.909,0,0,0-7.444,3.507,15.334,15.334,0,0,1-5.569,3.152,3.168,3.168,0,0,1-1.949-.026c-1.1-.27-2.248-.989-3.168.4-.779,1.176-.353,2.266.174,3.347a14.417,14.417,0,0,0,8.473,7.461,1.02,1.02,0,0,1,.4.815c-1.888,2.458-3.878,2.777-6.5.844a26.289,26.289,0,0,1-6.23-7.247,3.519,3.519,0,0,1,.033-2.512c.231-1.252.173-2.42-1.137-3.045-1.328-.633-2.224.238-3.123,1.043a12.507,12.507,0,0,0-3.1,4.849c-.425,1.052-.511,2.383-1.9,2.8-4.453-2.33-4.746-3.949-1.455-9-3.173.06-6.211-.05-9.251-.225-1.471-.758-2.144-2.216-2.973-3.5C772.767,1055.158,772.091,1054.191,773.517,1053.63Z" transform="translate(-20.988 -101.163)"/><path class="m" d="M768.781,1061.019c-.332,2.566,2.082,3.628,3.012,5.5a2.054,2.054,0,0,1,1.3.874c4.053,6.444,7.78,13.033,9.076,20.689-.724,1.285-1.992,1.3-3.232,1.387l-.67.134c-1.952-3.288-3.848-6.61-5.868-9.856-3.678-5.911-7.717-11.547-12.974-16.2-.1-2.625,2.3-3.234,3.723-4.628l2.015.279Z" transform="translate(-16.529 -108.431)"/><path class="i" d="M820.94,1055.187c-1.648,1.789-2.836,3.935-4.909,5.412-4.837,3.445-9.872,3.678-14.838.423-.8-.523-1.644-.975-2.469-1.46l-.089-.651c1.5-.49,2.706.417,3.945.928,5.444,2.245,10.169.885,14.494-2.709,1.226-1.018,2.422-2.073,3.631-3.111Q820.823,1054.6,820.94,1055.187Z" transform="translate(-30.262 -106.834)"/><path class="ah" d="M870.554,1042.459l3.467-5.933,5.3-3.145c.832.711,0,1.061-.331,1.519q-4.715,6.485-9.428,12.971c-1.854-.064-1.01-1.281-.731-2C869.284,1044.686,870.132,1043.677,870.554,1042.459Z" transform="translate(-55.016 -99.562)"/><path class="j" d="M935.642,1002.007c-2.169.728-2.678-1.33-3.5-2.392-.729-.944.528-1.8,1.253-2.543s1.389-1.543,2.08-2.318l.778.524c1.023,1.707,3,3,2.35,5.429C937.938,1001.876,937.116,1002.684,935.642,1002.007Z" transform="translate(-77.56 -86.035)"/><path class="ai" d="M959.385,1287.146c1.6-1.5,3.765-1.146,5.656-1.69q.337.156.263.371c-.047.139-.106.216-.177.23Z" transform="translate(-87.304 -187.658)"/><path class="aj" d="M968.281,1285.554c-.033-.2-.062-.4-.087-.6l4.447-.9C971.519,1285.51,969.734,1285.049,968.281,1285.554Z" transform="translate(-90.434 -187.155)"/><path class="i" d="M814.672,1317.7c.421-.656,1.327-1.045,1.124-2.045,5.054-1.187,10.292-.68,15.366-1.682l2.542-.448c4.69,2.127,9.98,2.492,14.558,4.953.657.353,1.369.611,2,1,1.388.851,1.883,2,1.025,3.531-.842,1.508-2.138,1.344-3.347.752-6.128-3-12.7-4.421-19.333-5.727a24.489,24.489,0,0,0-10.164.413C817.1,1318.74,815.672,1319.242,814.672,1317.7Z" transform="translate(-35.914 -197.705)"/><path class="ab" d="M784.722,1147.976l-4.431.947a2.182,2.182,0,0,1-3.149.486l-.8-.418c-1.363-1.793-1.148-4.027-1.363-6.031a42.456,42.456,0,0,1-.374-6.24c-.044-2.065-1.786-4.362.822-6.068,1.788-1.659,3.974-1.921,6.273-1.787q.285.014.571.017c.692,5.482,1.9,10.874,2.848,16.312A3.864,3.864,0,0,1,784.722,1147.976Z" transform="translate(-21.543 -133.02)"/><path class="ak" d="M781.345,1116.533c-1.906,1.247-4.15,1.305-6.273,1.787a2.351,2.351,0,0,1-1.145-2.036,161.973,161.973,0,0,1-.9-19.134,24.418,24.418,0,0,1,.41-2.767C778.994,1101.027,781.76,1108.213,781.345,1116.533Z" transform="translate(-21.19 -120.912)"/><path class="al" d="M779.209,1173.046l.756.517c.917,2.2,2.232,3.962,4.8,4.336h0a31.226,31.226,0,0,1,3.215,6.3,9.98,9.98,0,0,1-1.122,10.419c-1.328,1.718-1.882,4.157-4.26,4.992-1.877-1.407-2.064-3.211-1.242-5.253a7.9,7.9,0,0,0-.093-5.579c-1.906-5.91-2.352-12.2-4.405-18.1-.109-.311.221-.776.347-1.168C778.572,1170.289,777.823,1172.272,779.209,1173.046Z" transform="translate(-22.548 -147.215)"/><path class="am" d="M789.029,1147.527c-.892-4.6-1.735-9.206-2.7-13.789a8.579,8.579,0,0,1,.256-5.307q1.572-.424,3.145-.852,1.923,9.893,3.848,19.786C792.033,1146.624,790.544,1147.432,789.029,1147.527Z" transform="translate(-25.814 -132.587)"/><path class="ak" d="M778.259,1160.609l3.149-.487c4.889.564,4.825.584,6.507,6.19.846,2.817,2.409,5.461,1.693,8.575-2.426-4.019-5.454-7.325-10.192-8.6-.344-.043-.727-.014-.838-.471C777.646,1164.128,775.992,1162.488,778.259,1160.609Z" transform="translate(-22.647 -144.045)"/><path class="aa" d="M781.37,1208.209c.621,1.633.047,3.659,1.637,4.973.243.1.341.223.3.377s-.1.238-.175.252c1.144,3.626,0,7.421.813,11.072-1.935-2.107-2.047-4.793-2.035-7.376.012-2.424-.892-3.463-3.268-3.4a5.07,5.07,0,0,1-1.478-.431c-.838-1.633.452-3.071.424-4.629Z" transform="translate(-22.568 -160.908)"/><path class="an" d="M774.787,1141.116c1.051,4.024.5,8.273,1.737,12.271-.552.024-1.265-.035-1.26-.652C775.3,1148.852,773.911,1145.028,774.787,1141.116Z" transform="translate(-21.924 -137.392)"/><path class="ao" d="M778.682,1168.983l.837.472c-1,1.1-.173,2.266-.1,3.4-2.423-.187-1.335-2.362-2.005-3.542Z" transform="translate(-22.762 -147.237)"/><path class="a" d="M925.477,1250.726c2.95-9.218,6.757-18.033,12.381-25.97,3.341-4.715,6.324-9.7,10.322-13.931,2.137,2.984,4.451,5.45,8.724,4.446,1.285-.3,1.837,1.281,2.556,2.178,2.152,2.679,4.142,5.5,7.849,6.3,1.815.391,1.581,1.863,1.039,3.1-1.387,3.163-2.767,6.274-2.031,9.9.257,1.264-.929,1.891-1.839,2.4a91.54,91.54,0,0,1-21.83,9.125c-3.836.994-7.643,2.071-11.54,2.8A9.028,9.028,0,0,1,925.477,1250.726Z" transform="translate(-74.949 -160.944)"/><path class="u" d="M969.829,1268.3c-1.545,2.824-4.528,3.544-7.157,4.513-6.206,2.287-12.426,4.724-18.85,6.174-5.348,1.208-10.924,2.039-16.523,1.365a2.587,2.587,0,0,1,2.256-1.011c11.476-1.014,22.331-4.67,33.28-7.885A53.631,53.631,0,0,0,969.829,1268.3Z" transform="translate(-75.602 -181.517)"/><path class="ap" d="M958.7,1187.355c.5-1.8,2.874-2.01,3.278-3.886a.362.362,0,0,1,.633-.12l2.911,4.73c.026.2.057.406.092.608q-.855,4.137-1.711,8.277c-1.422.243-1.689,1.82-2.8,2.424-1.024-2.722.2-5.4.173-8.1C961.261,1189.423,961.153,1187.625,958.7,1187.355Z" transform="translate(-87.058 -152.138)"/><path class="a" d="M948.645,1119.863l-.318.052-.315.068c-8.6-5.508-11.653-14.418-14.453-23.5-1.6-5.2-3.316-10.374-4.979-15.559-1.057-2.057-.836-4.6-2.446-6.444a6.968,6.968,0,0,1-.685-3.012,6.265,6.265,0,0,0-.6-3.8,4.862,4.862,0,0,1-.258-1.028,85.313,85.313,0,0,0-2.693-13.564c-1.217-4.258-1.02-8.727-1.255-13.1-.322-6-1.059-11.979-.959-18a15.3,15.3,0,0,1,.41-2.573c.836-2.233,2.749-3.58,4.514-4.868,3.678-2.685,6.9-5.888,10.474-8.684a155.885,155.885,0,0,1,19.252,35.245c4.416,11.61,8.181,23.466,12.267,35.2a11.374,11.374,0,0,0,2.943,4.572,3.123,3.123,0,0,1,.587.867c2.189,6.37,4.381,12.741,4.948,19.525a1.606,1.606,0,0,1-.179,1.018c.7,4.191-1.732,7.477-3.181,11.047-3.852.519-7.166,2.645-10.892,3.616-3.2.834-6.282,1.956-9.658,1.844A2.572,2.572,0,0,0,948.645,1119.863Z" transform="translate(-72.873 -89.264)"/><path class="d" d="M902.78,1020.6c.544,7.572,1.481,15.142,1.51,22.716.025,6.346,2.259,12.159,3.149,18.271a21.464,21.464,0,0,1,.4,5.433,7.97,7.97,0,0,1-6.48.647l-18.436,3.484c.2-1.948,1.89-1.781,3.124-2.058,3.776-.846,7.593-1.5,11.388-2.258,1.551-.311,2.617-.949,2.282-2.808-1.961-10.874-5.355-21.425-6.8-32.06-.793-.42-1.112-.334-1.326-.094-6.439,7.215-13.1,14.265-17.147,23.249a9.748,9.748,0,0,1-2.765,3.915,1.145,1.145,0,0,1-1.014.08c.993-5.846,4.166-10.772,7.138-15.655,7.708-12.658,17.846-23.212,29.387-32.458,2.249-1.8,4.355-3.783,6.528-5.682l2.963-1.3.864,1.17c-2.792,4.942-8.148,7.1-11.92,10.981-.818.841-1.728,1.592-2.6,2.385-2.3,2.773-5.183,4.962-7.285,7.285,2.185-1.557,3.778-4.471,6.679-5.906.058-.029.191.062.273.119C902.852,1020.177,902.878,1020.364,902.78,1020.6Z" transform="translate(-55.702 -88.974)"/><path class="j" d="M997.394,1120.65q-.025-.336-.048-.673l8.151-4.871c-.128.709-.5,1.41.22,2.067,3.1,2.814,4.69,6.568,5.9,10.4.7,2.231,1.525,3.978,3.829,4.734-1.211,4.65-8.22,9.643-12.74,9.076l-.243-.61c.49-.857,1.417-.861,2.209-1.129a3.277,3.277,0,0,0,2.51-3.645c-.53-4.013-1.133-8-2.855-11.777C1002.867,1121.021,1000.413,1120.459,997.394,1120.65Z" transform="translate(-100.675 -128.165)"/><path class="aq" d="M814.924,926.169c-15.326,2.835-30.444,6.632-45.677,9.9-3.465.742-6.9,1.621-10.349,2.437-2.825,1.066-5.841,1.262-8.755,1.927-1.83.417-2.837-.561-3.361-2.175a36.151,36.151,0,0,1-1.218-5.651c-.885-5.71-1.716-11.429-2.1-17.2a8.945,8.945,0,0,1,.417-4.119c.925-1.6,2.55-1.3,4.009-1.483,4.821-.616,9.681-1.145,13.176-5.152a2.46,2.46,0,0,1,3.468-.313,9.463,9.463,0,0,0,8.075.833q6.481-1.89,12.831-4.206a5.537,5.537,0,0,0,3.606-2.98,11.192,11.192,0,0,0,1.084-4.662c.014-1.062-.069-2.371,1.21-2.7,1.244-.316,1.818.921,2.465,1.723,1.466,1.816,2.395,4.114,4.715,5.148,2.611,1.326,5.179.27,7.759-.123,1.956-.3,3.936-1.1,5.838.217a8.5,8.5,0,0,1,2.244,3.5c2.749,6.327,5.438,12.679,6.61,19.54.216,1.263.593,2.54-.039,3.8C819.1,925.586,816.779,925.074,814.924,926.169Z" transform="translate(-10.797 -49.337)"/><path class="ak" d="M742.472,889.792c12.047-14.944,35.306-20.951,54.029-13.961.9.338,1.828.624,2.742.935a3.28,3.28,0,0,1,1.279.577c1.6,1.975,3.7,3.482,5.272,5.467.6.763,2.247,1.973-.044,2.878-3.249-.918-5.77-3.262-8.907-4.454-14.866-5.649-29.114-4.057-42.944,3.354-3.145,1.686-5.893,3.951-8.876,5.876a3.505,3.505,0,0,1-1,.293C743.32,890.73,742.561,890.8,742.472,889.792Z" transform="translate(-10.461 -43.236)"/><path class="d" d="M838.243,887.7c-.1-1.9-1.617-2.733-2.79-3.877-1.274-1.244-2.815-2.3-3.438-4.1,2.16-.719,3.644.813,5.205,1.735a37.3,37.3,0,0,1,13.6,13.734,30.3,30.3,0,0,0,3.139,5.9,41.735,41.735,0,0,1,3.944,14.1c.514,4.682-.577,5.653-5.4,5.323a86.256,86.256,0,0,0-9.111-26.628,14.331,14.331,0,0,1-1.406-1.488,10.28,10.28,0,0,0-2.492-2.676C838.917,889.155,837.982,888.8,838.243,887.7Z" transform="translate(-42.084 -45.495)"/><path class="ar" d="M741.611,914.6c-.227,9.276,1.674,18.283,3.429,27.311.327,1.685,1.06,2.318,2.883,1.852,2.685-.686,5.441-1.094,8.168-1.621-1.316,1.386-3.168,1.113-4.788,1.471-3.637.8-7.314,1.43-10.974,2.128a14.8,14.8,0,0,1-2.961-7.994c-.893-7.411-2.263-14.792-1.641-22.358.265-3.215.831-6.347,1.313-9.508.869-2.007.848-4.679,3.8-5.141,1.329,1.61.32,3.3.026,4.885a7.615,7.615,0,0,0,1.07,6.117A3.3,3.3,0,0,1,741.611,914.6Z" transform="translate(-7.99 -52.913)"/><path class="as" d="M734.691,907.874c.356,3.437-1.042,6.662-1.07,10.119a155.887,155.887,0,0,0,1.025,17.524c.46,4.41,2.048,8.467,2.641,12.777l-4.545.828c-3.065-3.649-4.406-8.119-5.118-12.609a40.643,40.643,0,0,1,3.611-24.714C731.992,910.26,732.6,908.343,734.691,907.874Z" transform="translate(-4.95 -55.426)"/><path class="at" d="M734.166,904.767c-5.346,6.777-6.571,14.715-6.75,23.046-.141,6.582,2.722,12.265,4.8,18.2-1.847.652-2.248-.88-2.727-1.97-5.882-13.355-5.114-26.356,2.524-38.779,1.287-2.092,1.73-4.955,4.421-6.072a1.365,1.365,0,0,0,1.389.363c.251.512.067.752-.478.766C735.42,901.184,734.961,903.1,734.166,904.767Z" transform="translate(-4.424 -52.366)"/><path class="aa" d="M850.421,893.911c-3.635-4.335-7.238-8.69-12.062-11.83a39.334,39.334,0,0,0-6.745-3.641l-.721-.591c1.8-2.252,3.821-2.548,6.017-.6C842.323,882.067,847.534,887.048,850.421,893.911Z" transform="translate(-41.7 -44.299)"/><path class="p" d="M860.661,932.543c5.33-1.147,4.833.121,4.493-6.622a44.284,44.284,0,0,0-3.038-12.8c3.578,5.222,4.39,11.321,5.157,17.342.27,2.122-.535,4.266-3.9,3-2.813-1.06-5.7.562-8.577.782C856.6,933.143,858.743,933.238,860.661,932.543Z" transform="translate(-50.191 -57.329)"/><path class="au" d="M894.79,907.2l1.841.406c-2.335,2.8-4.984,3.423-7.751,1.9a1.485,1.485,0,0,1-.374-2.306c.19-3.592,1.143-7.165.273-10.785-1.278-.578-2.473.487-3.737.189l-.664-.187c-.959-1.592-2.48-3.23.379-4.5l.343,1.258a1.205,1.205,0,0,1,.33,1.229,10.264,10.264,0,0,0,1.53.052c3.783-.417,5.041.785,4.837,4.648-.117,2.223-.224,4.446-.336,6.67.2,1.985,1.66,1.514,2.894,1.476A.261.261,0,0,0,894.79,907.2Z" transform="translate(-60.226 -49.897)"/><path class="av" d="M884.575,887.171c-1.671,1.37-.535,2.976-.379,4.5l-.835-.332a5.739,5.739,0,0,1-.667-3.815c.174-2.67.323-5.341.536-8.007.071-.883.945-.632,1.479-.851.293,1.063.771,2.112.234,3.234a8.562,8.562,0,0,0-.507,4.018Q884.506,886.544,884.575,887.171Z" transform="translate(-60.076 -45.261)"/><path class="aw" d="M898.944,914.972c-1.54.637-3.545,2.186-2.894-1.476Z" transform="translate(-64.803 -57.518)"/><path class="ax" d="M885.2,887.646c-1.066-1.34.02-2.708-.041-4.061,0-.029.18-.1.272-.09a.854.854,0,0,1,.277.133A7.461,7.461,0,0,1,885.2,887.646Z" transform="translate(-60.837 -46.977)"/><path class="ay" d="M886.492,895.1c-.526-.3-.456-.756-.33-1.229l3.331.344.043.3Z" transform="translate(-61.307 -50.629)"/><path class="az" d="M879.289,897.136l.611,3.317A2.441,2.441,0,0,1,879.289,897.136Z" transform="translate(-58.768 -51.77)"/><path class="ba" d="M890.8,914.78l.374,2.306c-2.074,1.044-1.178-1-1.662-1.6.69-.541.226-1.359.611-2.388Z" transform="translate(-62.531 -57.372)"/><path class="bb" d="M886.122,898.96c1.248-.025,2.453-.876,3.737-.189C888.614,898.852,887.408,899.694,886.122,898.96Z" transform="translate(-61.324 -52.257)"/><path class="az" d="M882.519,892.463l.666,3.815A2.988,2.988,0,0,1,882.519,892.463Z" transform="translate(-59.906 -50.127)"/><path class="bc" d="M786.547,1204.636q-.063-.314-.123-.629a12.036,12.036,0,0,1,2.135-3.737c3.66-4.179,3.893-8.335.939-13.129-.885-1.435-.891-3.04-1.3-4.565a12.847,12.847,0,0,1,3.686,16.942C790.634,1201.694,790.136,1204.831,786.547,1204.636Z" transform="translate(-25.954 -151.868)"/><path class="bd" d="M786.509,1180.161a.819.819,0,0,0-.3-.061c-3.621.8-4.437-1.335-4.495-4.275A9.2,9.2,0,0,1,786.509,1180.161Z" transform="translate(-24.284 -149.636)"/><path class="b" d="M841.722,1089.668l.661-.128c.986-.532,1.33.3,1.809.846.34.979.191,1.721-1.038,1.626a3.044,3.044,0,0,0-2.754,1.156,7.048,7.048,0,0,0-1.223,1.569,14.434,14.434,0,0,0,.451,5.732c2.271,11.781,4.58,23.555,6.826,35.341.313,1.641,1,3.335-.037,4.988-9.978,3.144-20.375,4.347-30.542,6.612-3.582.8-7.221.941-10.826,1.434-2.262.309-2.116-1.307-2.368-2.6q-3.812-19.5-7.577-39c-.144-.74-.283-1.481-.45-2.216-.119-.525-.3-1.274-.87-1.2-2.715.371-2.878-2.053-3.964-3.464.688-1.221,2.021-.878,3.054-1.26a4.109,4.109,0,0,1,3.043-1.6c12.546-2.43,25.057-5.052,37.656-7.212a3.73,3.73,0,0,1,2.474.424Z" transform="translate(-27.074 -118.896)"/><path class="be" d="M873.139,1143.054q-4.156-21.425-8.3-42.85c-.318-1.647-.993-3.43,1.079-4.53,2.056-.107,1.991,2.495,3.67,2.871.085.114.168.23.251.347q3.635,20.443,7.282,40.884a6.12,6.12,0,0,1-.054,3.174A6.441,6.441,0,0,1,873.139,1143.054Z" transform="translate(-53.621 -121.195)"/><path class="a" d="M873.233,1074.289l-1.545-1.132c4.7-11.061,12.589-19.865,20.289-28.81.977-1.135,1.554-.973,1.881.444.049.21.1.42.131.632,1.721,10.955,4.786,21.62,7.029,32.464.555,2.681-.132,3.624-2.761,4-4.046.58-8.046,1.49-12.055,2.306-1.021.207-2.2.1-2.915,1.125-.2.05-.407.107-.613.151-5.2,1.118-5.192,1.116-6.849-3.794a3.091,3.091,0,0,0-.557-.75q-.372-1.522-.745-3.043C872.97,1077.088,874.242,1075.28,873.233,1074.289Z" transform="translate(-56.129 -102.986)"/><path class="am" d="M918.467,1102.655c2.147-.345,4.228-1.353,6.48-.647l.012.015a4.423,4.423,0,0,1,.641,3.193q.276,1.588.553,3.176a2.232,2.232,0,0,1,.438,2.458c-.631,1-.139,2,0,3s.576,2.081-.813,2.6c-.987-1.05-2.423.049-3.468-.725Z" transform="translate(-72.782 -123.562)"/><path class="bf" d="M924.166,1122.942c1.058.708,3.063-3.116,3.468.725l.79,4.363a2.059,2.059,0,0,1-2.637-.128c-1.379-1.064-.63-3.209-2.137-4.208Z" transform="translate(-74.633 -130.695)"/><path class="j" d="M923.3,1131.151a4.441,4.441,0,0,1,2.637.128q2.19,6.178,4.381,12.356a25.978,25.978,0,0,0,2.2,6.4c.6,2.388,2.166,4.336,3.01,6.608.579,1.562,1.513,3.208-.491,4.506l-.632.133c-8.338,5.484-18.02-2.565-17.7-10.925a17.474,17.474,0,0,1,3.788-10.425c1.89-2.393,2.959-4.953,2.281-8.044Z" transform="translate(-72.113 -133.698)"/><path class="m" d="M921.095,1132.387c1.766,2,1.6,3.958.092,6.074-2.617,3.666-5.216,7.263-5.3,12.171-.128,7.428,6.125,13.148,13.357,11.823,1.165-.214,2.325-.45,3.488-.676-4.886,5.674-11.166,5.323-16.041-.352-6.022-7.009-6.069-18.944-1.056-25.409A8.393,8.393,0,0,1,921.095,1132.387Z" transform="translate(-70.45 -134.173)"/><path class="bg" d="M943.575,1171.251c1.126-1.845.065-3.455-.632-5.043-.894-2.036-2-3.983-2.217-6.254-.4-.611-.094-.76.48-.733,1.469,3.929,3.973,7.284,6.1,10.838,1.248,2.083,1.254,3.556-1.013,4.719A7.77,7.77,0,0,0,943.575,1171.251Z" transform="translate(-80.615 -143.722)"/><path class="bh" d="M940.181,1156.164l-.48.733c-.989-1.963-2.5-3.769-1.872-6.219C939.107,1152.295,939.2,1154.421,940.181,1156.164Z" transform="translate(-79.617 -140.792)"/><path class="d" d="M930.877,1114.545q-.22-1.229-.438-2.458c1.765,1.968,1.213,4.609,1.993,6.862C930.932,1117.828,931.5,1115.977,930.877,1114.545Z" transform="translate(-77.05 -127.237)"/><path class="bi" d="M872.1,1091.4c1.389.854.955,2.363,1.289,3.6q-1.052,1.184-2.1,2.368l-.017.006a10.687,10.687,0,0,1-2.747-4.083c.362-1.207,1.036-1.891,2.378-1.363C871.5,1092.16,872.154,1092.621,872.1,1091.4Z" transform="translate(-55.077 -119.978)"/><path class="bj" d="M843.166,1205.008a2.532,2.532,0,0,1,1.781,2.18c.236.983-.436,1.3-1.215,1.47-1.3.276-1.338-.657-1.4-1.518A2.27,2.27,0,0,1,843.166,1205.008Z" transform="translate(-45.787 -159.89)"/><path class="bk" d="M880.226,1196.538c1.444-.128,2.155.451,2.277,1.528.116,1.012-.648,1.475-1.528,1.708-1.321.349-1.3-.7-1.474-1.477C879.307,1197.423,879.2,1196.545,880.226,1196.538Z" transform="translate(-58.932 -156.912)"/><path class="x" d="M862.829,1063.706l-.3,1.958c-1.1,3.542-2.433,7.018-2.777,10.765-.076.83,0,2.063-1.472,1.988a3.591,3.591,0,0,1-.925-3.266,34.911,34.911,0,0,1,3.953-13.759C863.976,1060.731,862.268,1062.969,862.829,1063.706Z" transform="translate(-51.098 -109.336)"/><path class="bl" d="M858.682,1080.856c1.091-4.334,1.621-8.847,4.081-12.743-.884,4.983-2.117,9.913-2.322,15l-2,.36A1.8,1.8,0,0,1,858.682,1080.856Z" transform="translate(-51.336 -111.748)"/><path class="bm" d="M865.18,1058.784c-1.361-.347.258-2.068-1.111-2.411-.848-2.611,1.32-4.242,2.058-6.337l2.809-2.516c.709,2-2.162,3.334-.994,5.413Q866.56,1055.858,865.18,1058.784Z" transform="translate(-53.429 -104.542)"/><path class="bn" d="M816,1036.738a4.457,4.457,0,0,1-2.185,3.122c-2.065,1.5-2.337,3.009-.687,5.005.719.87,1.668,2.226.445,3.108-1.364.983-1.956-.669-2.671-1.513-.344-.406-.614-.874-.939-1.346-1.336.163-1.368,1.5-2.049,2.233-.626.669-1.031,1.882-2.257,1.125-1.151-.711-.427-1.7-.148-2.584a.992.992,0,0,1,.137-.292c1.768-2.375,2.094-4.511-.825-6.33a1.464,1.464,0,0,1-.474-2.241,1.159,1.159,0,0,1,1.738-.083c2.6,3.232,5.121,2.115,7.766.089C814.283,1036.7,815.074,1036.848,816,1036.738Z" transform="translate(-32.181 -100.701)"/><path class="a" d="M835.635,1051.438c.5,2.5-1.99,4.024-2.058,6.337-1.212,4.312-3.133,8.424-3.479,12.982a12.139,12.139,0,0,0,.2,4.13l-.245,2.62-41.169,8.025c-2.171-5.447-4-11.042-7.021-16.122-1.091-1.836-2.121-3.71-3.179-5.567,1.2-1.4,2.576-.188,3.865-.258,2.225-.121,4.454-.187,6.069-.251a27.441,27.441,0,0,0-2.537,4.941c-.735,2.443,1.865,3.215,3.011,4.718,1.7,4.184,2.9,4.295,6.021.638,1.088-1.274,1.6-3.059,3.308-3.785,2.318,1.4,3.233,4.027,5.107,5.843,2.891,2.8,5,3,7.227.381a11.605,11.605,0,0,0-3.346-9.882c-.49-.523-1.166-.988-.914-1.885,7.441-6.512,17.129-7.992,25.884-11.559C833.465,1052.3,834.551,1051.873,835.635,1051.438Z" transform="translate(-23.139 -105.786)"/><path class="g" d="M804.125,1076.495a14.9,14.9,0,0,1-4.159,5.678c-1.188.887-2.094,2.762-4.085,1.783s-1.025-2.8-1.085-4.314c1.346-2.719,1.957-5.794,4.415-7.969,1.377-1.219,2.537-2.325,4.395-1.175,1.819,1.126,1.547,2.821,1.084,4.517A15.4,15.4,0,0,1,804.125,1076.495Z" transform="translate(-28.853 -112.422)"/><path class="g" d="M819.606,1071.255a14.69,14.69,0,0,1,5.062,7.8c.507,1.649.444,2.835-.8,3.964l-.03-.162c-3.369-1.859-6.278-4.243-7.956-7.773-1.264-2.659-.441-3.934,2.4-4.226Z" transform="translate(-36.193 -112.731)"/><path class="i" d="M817.37,1070.441c-2.412.379-2.715,1.882-1.823,3.764a15.61,15.61,0,0,0,5.308,5.907,4.839,4.839,0,0,1,2.066,2.329c-5.177-.158-7.338-3.943-9.545-7.788a3.1,3.1,0,0,1,.276-4.074C814.867,1069.188,816.1,1069.647,817.37,1070.441Z" transform="translate(-35.286 -112.315)"/><path class="bo" d="M785.683,1194.711a4.152,4.152,0,0,1,.848,3.01C785.55,1197.1,785.86,1196.166,785.683,1194.711Z" transform="translate(-25.698 -156.279)"/><path class="be" d="M997.318,1123.43c4.509-1.689,7.508.442,9.113,6.6.54,2.072.845,4.2,1.253,6.31,1.034,5.343-.061,6.831-5.3,7.21a2.411,2.411,0,0,1-.916-2.279c-.045-5.347-2.094-10.187-3.785-15.113C997.369,1125.244,996.857,1124.424,997.318,1123.43Z" transform="translate(-100.599 -130.93)"/><path class="bp" d="M976.389,1108.29c-.784-.216-1.391-.353-1.977-.553s-1.362-.422-1.256-1.2c.137-1.018,1.01-.916,1.769-.833q1.276.138,2.547.311c3.1.428,3.4,1.04,1.49,3.5-1.587,2.037-1.924,3.4,1.329,3.586a4.414,4.414,0,0,1,1.821.573c.428.239.993.722,1,1.111a1.154,1.154,0,0,1-1.352,1.072c-2.184-.159-4.643.451-6.289-1.57C973.807,1112.23,975.543,1110.477,976.389,1108.29Z" transform="translate(-92.012 -124.956)"/><path class="bq" d="M945.874,1035.209c-.045,1.96.956,4.505-2.392,4.388-2.34-.081-5.45-3.517-5.212-5.7.059-.541.189-1.113.839-1.177.738-.073,1.163.464,1.471,1.04.713,1.335,1,3.025,3.128,3.57-.021-.639-.051-1.022-.042-1.4.034-1.375-1.526-3.392,1.313-3.677,1.726-.173,4.91,2.656,4.806,4.125-.082,1.153-.732,1.2-1.506.59C947.55,1036.393,947.078,1035.472,945.874,1035.209Z" transform="translate(-79.789 -99.197)"/><path class="ad" d="M974.792,1093.1c.662,2.358-.909,3.094-2.682,3.49-2.979.667-5.565-.81-6.037-3.282-.423-2.219.688-3.525,2.642-4.11C971.283,1088.434,974.223,1090.4,974.792,1093.1Z" transform="translate(-89.632 -119.138)"/><path class="br" d="M951.973,1046.953c-.2-.545-.41-1.274.327-1.615,1-.462,1.25.527,1.607,1.111a27.73,27.73,0,0,1,1.508,2.826c.37.8,1.618,1.568.679,2.51-.864.866-1.412-.543-2.128-.7-1.472-.321-3.056.009-3.6,1.526-.674,1.866-1.3,1.392-1.954.191-.811-1.5-1.431-3.109-2.121-4.677-.265-.6-.519-1.319.18-1.721.953-.549,1.209.442,1.7.94.711.723.392,2.44,1.822,2.33C951.391,1049.567,953.35,1049.438,951.973,1046.953Z" transform="translate(-82.545 -103.748)"/><path class="bs" d="M964.5,1065.864c-.017.869-.907,1.423-1.407.786-1.759-2.24-3.408-.788-5.143-.181a12.54,12.54,0,0,1-1.888.406c-.589.107-1.176-.089-1.3-.647s.327-.968.88-1.186a18.989,18.989,0,0,1,2.39-.959c1.786-.438,3.115-1.009,1.863-3.21-.241-.426-.311-1.143.431-1.272a1.276,1.276,0,0,1,1.076.458C962.454,1061.923,963.427,1063.835,964.5,1065.864Z" transform="translate(-85.64 -108.802)"/><path class="br" d="M969.727,1078.989c.154.759.209,1.474-.431,1.831-.838.468-.936-.421-1.344-.848-1.888-1.978-3.483-1.656-4.3.937-.424,1.343-1.064.759-1.54.288a2.541,2.541,0,0,1-.526-3.215c.925-1.659,2.581-1.784,4.2-1.633A4.294,4.294,0,0,1,969.727,1078.989Z" transform="translate(-87.946 -114.68)"/><path class="bm" d="M916.458,1028.708c-2.256-.008-2.807,2.232-4.284,3.253-1.115.771-1.771,2.113-3.3,2.418a43.935,43.935,0,0,1,7.83-7.71C916.817,1027.372,917.086,1028.094,916.458,1028.708Z" transform="translate(-69.38 -97.24)"/><path class="d" d="M929.219,1105.361q-.321-1.6-.642-3.193A2.352,2.352,0,0,1,929.219,1105.361Z" transform="translate(-76.393 -123.777)"/><path class="bt" d="M743.206,895.047l.478-.766q.305-.04.611-.067c2.415,1.242,1.861,3.346,1.561,5.378-.551,3.719-.333,3.878,3.426,3.265,4.342-.707,7.84-2.335,8.862-7.158a6.1,6.1,0,0,1,1.531-2.817,3.505,3.505,0,0,1,6.245,1.443c1.264,4.358,1.438,4.5,5.744,3.494a87.51,87.51,0,0,0,10.442-3.384,5.273,5.273,0,0,0,3.409-4.35c.533-2.719,1.762-4.947,4.715-5.516s5,1.025,6.451,3.35a6.133,6.133,0,0,0,7.44,2.993,5.132,5.132,0,0,1,3.485.191,4.038,4.038,0,0,1,2.522,2.781c-4.042,2.225-8.4,2.378-12.848,1.97-3.423-1.159-3.51-5.333-6.5-7.091-.657,2.358.205,5.008-1.371,7.131a5.511,5.511,0,0,1-3.106,2.171c-6.078,1.333-12.011,3.262-18.121,4.447-2.795.542-4.412-.761-5.415-4.119a7.157,7.157,0,0,1-1.962,4.288,5.477,5.477,0,0,1-3.344,1.778c-3.464.735-6.938,1.423-10.43,2.01a3.807,3.807,0,0,1-3.1-.38c-2.322-1.124-2.044-3.189-1.779-5.169S742.848,897,743.206,895.047Z" transform="translate(-10.284 -47.27)"/><path class="bu" d="M824.473,932.954a7.608,7.608,0,0,1-9.012-5.721c-.887-3.209-1.844-6.378-.74-9.694.965-2.9,2.578-5.108,5.9-5.687,3.184-.553,5.432.85,7.263,3.138,3.032,3.79,3.445,8.222,2.456,12.745C829.694,930.71,827.526,932.449,824.473,932.954Z" transform="translate(-35.797 -56.843)"/><path class="bv" d="M774.791,934.341c.245,1.263.414,2,.527,2.741.611,3.993-.938,7.381-3.79,8.325-4.571,1.513-8.382.11-10.212-4.025a15.819,15.819,0,0,1-.866-11.316c.822-2.6,2.591-4.866,5.587-5.212,3.282-.379,5.455,1.592,6.994,4.23A11.942,11.942,0,0,1,774.791,934.341Z" transform="translate(-16.654 -61.431)"/><path class="bw" d="M794.608,941.591c-4.067.93-5.163.129-5.027-3.929.119-3.531.36-7.06.614-10.586.094-1.315.4-2.646,2.025-2.893a2.788,2.788,0,0,1,3.069,1.868q2.337,5.285,4.484,10.655c.738,1.836-.078,3.179-1.768,3.917A25.081,25.081,0,0,1,794.608,941.591Z" transform="translate(-27.065 -61.21)"/><path class="bx" d="M771.521,908.182c.548-2.13,1.1-4.26,1.752-6.806,2.257,6.852,2.26,6.863,9.012,5.35,5.951-1.333,11.938-2.542,17.647-4.774a4.474,4.474,0,0,1-3.236,3.3c-4.854,1.67-9.708,3.365-14.641,4.772-2.942.839-6,.888-8.476-1.486-.865-.828-1.317-.046-1.891.359q-.351-.168-.308-.428C771.408,908.29,771.455,908.2,771.521,908.182Z" transform="translate(-20.593 -53.243)"/><path class="by" d="M762.073,911.977q.083.355.166.711c-3.558,5.017-9.114,5.054-14.394,5.761-.946.127-1.911.118-2.867.171q.013-1.34.026-2.679c4.626-.863,9.25-1.737,13.88-2.582A6.35,6.35,0,0,0,762.073,911.977Z" transform="translate(-11.358 -56.972)"/><path class="bz" d="M828.112,901.113l12.848-1.97a2.071,2.071,0,0,1,1.038,1.77c-2.82-.581-5.421.659-8.132.989C831.864,902.146,829.878,902.5,828.112,901.113Z" transform="translate(-40.726 -52.476)"/><path class="ca" d="M808.9,889.215l-4.749.915a5.5,5.5,0,0,1-6.268-2.769,8.561,8.561,0,0,0-3.2-3.538c-2.736-1.385-6.291-.148-6.566,2.92-.424,4.752-3.176,6.773-7.181,7.74-3.228.779-6.234,2.25-9.565,2.718-3.55.5-4.83-.166-4.925-3.732-.05-1.885-.623-2.9-2.339-3.185-1.631-.273-2.54.831-3.223,2.129a3.11,3.11,0,0,0-.326.907c-1.114,6.623-6.051,8.135-11.673,8.88-2.362.313-3.414-.141-2.924-2.819.426-2.333,1.568-4.808-.368-7.058,17.066-13.45,35.547-17.318,55.894-8.148a62.049,62.049,0,0,1,5.824,3.4Z" transform="translate(-11.576 -45.416)"/><path class="be" d="M816.9,1130.9c-.7-3.6-1.37-7.2-2.1-10.789-.443-2.171.207-3.58,2.5-4.032,5.267-1.04,10.5-2.155,15.694-3.594,4.494-1.246,5.986.01,6.919,4.661,1.124,5.6,2.184,11.213,3.262,16.822.9,4.674-.014,6.387-4.572,7.575-4.669,1.217-9.472,1.811-14.094,3.357-3.2,1.072-4.959-.4-5.646-3.841-.674-3.382-1.316-6.771-1.973-10.156Z" transform="translate(-35.93 -127.039)"/><path class="cb" d="M867.876,1094.337a4.676,4.676,0,0,1,2.747,4.083c-2.5.376-2.617-2.131-3.9-3.222A1.366,1.366,0,0,1,867.876,1094.337Z" transform="translate(-54.441 -121.021)"/><path class="cc" d="M926.751,1155.005l1.8,9.271C925.6,1162.229,924.786,1158.742,926.751,1155.005Z" transform="translate(-75.358 -142.29)"/><path class="cc" d="M935.987,1157.336l3.443,8.643C935.877,1163.683,936.2,1160.371,935.987,1157.336Z" transform="translate(-79.013 -143.113)"/><path class="cd" d="M970.921,1092.913c1.18.039,2.405.252,2.952,1.474.469,1.048-.5,1.25-1.23,1.38-1.247.224-2.462.05-2.956-1.284C969.365,1093.613,970.037,1093.118,970.921,1092.913Z" transform="translate(-90.935 -120.528)"/><path class="h" d="M818.566,926.1c-.4-2.991-.332-5.551.9-7.929,1.278-2.476,3.4-3.054,5.56-1.295,2.956,2.412,4.753,5.507,4.333,9.508-.248,2.36-.98,4.612-3.637,5.079a5.634,5.634,0,0,1-6.331-3.352A20.858,20.858,0,0,1,818.566,926.1Z" transform="translate(-37.269 -58.308)"/><path class="h" d="M773.574,938.952c.1,3.013-1.191,5.1-4.284,5.334s-4.232-2.033-4.84-4.631a11.647,11.647,0,0,1,.411-7.59,4.385,4.385,0,0,1,3.924-2.911c1.866-.067,2.91,1.114,3.387,2.84C772.535,934.334,773.177,936.618,773.574,938.952Z" transform="translate(-18.003 -62.976)"/><path class="ce" d="M778.02,940.537a8.812,8.812,0,0,1-1.4-6.957A10.828,10.828,0,0,1,778.02,940.537Z" transform="translate(-22.416 -64.557)"/><path class="cf" d="M761.261,889.559l6.476-3.179.377.637-6.408,3.28Z" transform="translate(-17.186 -47.991)"/><path class="ad" d="M831.334,1130.835c.9-2.1,1.612-3.768,2.333-5.428.256-.589.51-1.27,1.35-1.015a1.165,1.165,0,0,1,.75,1.56,29.26,29.26,0,0,1-1.509,4.9c-.779,1.658-.86,2.8,1.093,3.476a2.888,2.888,0,0,1,.817.512c.943.757,2.806,1.253,1.942,2.8-.9,1.61-2.379.341-3.327-.289-1.94-1.287-3.431-1.366-4.672.84a4.449,4.449,0,0,1-1.137,1.131c-.917.746-2.075,1.805-3.09.843-.973-.923.156-2.134.89-2.727,2.831-2.289,2.7-4.636.541-7.239a6.839,6.839,0,0,1-.734-1.428c-.45-.93-.743-1.953.38-2.518.987-.5,1.558.417,2.053,1.1C829.7,1128.3,830.318,1129.3,831.334,1130.835Z" transform="translate(-39.804 -131.475)"/></g></svg>