<svg xmlns="http://www.w3.org/2000/svg" width="332.181" height="131.824" viewBox="0 0 332.181 131.824"><defs><style>.a{fill:#fff;}</style></defs><g transform="translate(-417 -187.594)"><g transform="translate(-7290 -7730.088)"><g transform="translate(7707 7971.264)"><path class="a" d="M180.357,796.748c1.9-2.942,3.707-5.63,5.392-8.392a2.094,2.094,0,0,1,2.1-1.148c4.542.05,9.084.005,13.626.02,1.132,0,1.871-.3,1.9-1.618.04-1.68-.15-1.937-1.856-1.938q-22.383-.006-44.768,0c-1.112,0-2.225-.037-3.336.011a2.91,2.91,0,0,0-2.92,2.314,19.633,19.633,0,0,0-.376,3.99c-.029,9.592,0,19.184-.021,28.777a75.548,75.548,0,0,1-2.374,19.661,52.086,52.086,0,0,1-6.739,15,1.755,1.755,0,0,0,.259,2.585,1.815,1.815,0,0,0,2.624-.205c.134-.128.269-.255.4-.388a47.383,47.383,0,0,0,9.256-13.431,58.124,58.124,0,0,0,4.921-24.447c.028-8.666,0-17.331.008-26,0-3.66.651-4.308,4.273-4.313q5.284-.006,10.567,0h2.343c-.982,3.173-1.856,6.079-2.813,8.958-.091.274-.7.519-1.079.529-1.806.054-3.614.005-5.421.026-3.156.038-3.958.854-3.948,3.969.013,4.68.038,9.361.042,14.04,0,3.243-.054,6.487-.026,9.73.02,2.348.8,3.161,3.16,3.295,1.479.085,2.965.042,4.448.046,2.164.007,4.33,0,6.55,0,.046.508.1.819.1,1.132,0,6.859.015,13.716-.008,20.574-.009,2.74-.822,3.535-3.584,3.6q-2.43.06-4.865.044c-1.659-.011-1.45,1.181-1.518,2.239-.071,1.1.349,1.627,1.514,1.6,4.031-.079,8.065-.049,12.093-.184,3.771-.125,4.6-1.064,4.645-4.811q.135-11.4.283-22.8c.005-.4.056-.806.093-1.309.573-.026,1.07-.065,1.567-.069,2.967-.018,5.933,0,8.9-.05,2.932-.046,3.842-.953,3.847-3.85q.026-11.676,0-23.353c-.007-2.87-.956-3.822-3.871-3.846-4.448-.038-8.9-.009-13.347-.009Zm-53.495,55.139c.056,1.811,1.235,2.679,2.491,3.4a3.122,3.122,0,0,0,4.011-.92,24.733,24.733,0,0,0,4.016-5.757c3.065-7.176,5.853-14.47,8.7-21.738a9.273,9.273,0,0,0,.672-3.084,2.09,2.09,0,0,0-.958-1.6,2.427,2.427,0,0,0-3.393,1.341,195.133,195.133,0,0,1-14.526,26A13.348,13.348,0,0,0,126.862,851.887Zm44.674-15.937a6.632,6.632,0,0,0-.719-1.735,4.318,4.318,0,0,0-6.945.314c-.519.762-.964,1.578-1.434,2.374-2.256,3.824-4.5,7.658-6.771,11.471a16.422,16.422,0,0,0-1.549,2.285,2.5,2.5,0,0,0,.138,2.127c.373.42,1.4.441,2.1.331a3.986,3.986,0,0,0,1.659-.964,63.888,63.888,0,0,0,12.225-13.2A15.673,15.673,0,0,0,171.536,835.95Zm27.4,15.642a12.485,12.485,0,0,0,1.986-.533,4.281,4.281,0,0,0,1.82-6.5c-2.99-4.406-6.939-7.918-11.006-11.293-.8-.665-1.745-1.037-2.64-.242s-.551,1.77-.114,2.678c1.483,3.082,2.993,6.15,4.456,9.243.651,1.377,1.141,2.833,1.836,4.185A4.146,4.146,0,0,0,198.935,851.592Zm-52.249-60.925a5.138,5.138,0,0,0-1.007-1.542q-4.41-3.584-8.948-7.011a10.278,10.278,0,0,0-2.562-1.348,3.081,3.081,0,0,0-3.425,1.471c-.651,1.206.062,2.006.859,2.771,1.232,1.186,2.453,2.385,3.7,3.553q3.09,2.887,6.217,5.735a2.255,2.255,0,0,0,2.93.367A4.9,4.9,0,0,0,146.686,790.666Zm-18.48,12.747c-.556.45-1.332.813-1.675,1.419a1.817,1.817,0,0,0,.649,2.55c.8.556,1.532,1.2,2.327,1.761,3.065,2.16,6.087,4.387,9.236,6.418,1.773,1.144,2.915.727,4.106-1.021a2.86,2.86,0,0,0-.612-4.179,7.225,7.225,0,0,0-1.345-.978c-3.066-1.623-6.131-3.254-9.236-4.8A28.185,28.185,0,0,0,128.206,803.413Z" transform="translate(-126.253 -780.64)"/><path class="a" d="M176.862,796.01H178.9c4.449,0,8.9-.029,13.347.009,2.915.024,3.864.976,3.871,3.846q.032,11.676,0,23.353c-.005,2.9-.915,3.8-3.847,3.85-2.965.048-5.932.032-8.9.05-.5,0-.994.042-1.567.069-.037.5-.087.906-.093,1.309q-.147,11.4-.283,22.8c-.044,3.746-.874,4.686-4.645,4.811-4.028.135-8.062.1-12.093.184-1.165.024-1.586-.5-1.514-1.6.069-1.058-.14-2.249,1.518-2.239q2.433.018,4.865-.044c2.761-.07,3.574-.865,3.584-3.6.022-6.859.011-13.716.008-20.574,0-.312-.053-.624-.1-1.132-2.22,0-4.386.005-6.55,0-1.483,0-2.969.038-4.448-.046-2.356-.134-3.14-.947-3.16-3.295-.028-3.243.028-6.487.026-9.73,0-4.68-.029-9.361-.042-14.04-.011-3.115.792-3.93,3.948-3.969,1.807-.021,3.615.028,5.421-.026.377-.011.988-.255,1.079-.529.957-2.879,1.831-5.785,2.813-8.958h-2.343q-5.284,0-10.567,0c-3.622.005-4.271.653-4.273,4.313-.007,8.666.02,17.331-.008,26a58.124,58.124,0,0,1-4.921,24.447,47.383,47.383,0,0,1-9.256,13.431c-.13.132-.265.259-.4.388a1.815,1.815,0,0,1-2.624.205,1.755,1.755,0,0,1-.259-2.585,52.086,52.086,0,0,0,6.739-15,75.548,75.548,0,0,0,2.374-19.661c.021-9.592-.008-19.185.021-28.777a19.633,19.633,0,0,1,.376-3.99,2.91,2.91,0,0,1,2.92-2.314c1.111-.048,2.224-.011,3.336-.011q22.385,0,44.768,0c1.706,0,1.9.258,1.856,1.938-.032,1.317-.77,1.622-1.9,1.618-4.542-.015-9.084.03-13.626-.02a2.094,2.094,0,0,0-2.1,1.148C180.569,790.38,178.766,793.068,176.862,796.01Zm-9.58,13.662h20.352c0-.526,0-.937,0-1.349-.012-1.991.036-3.985-.058-5.972-.073-1.568-.753-2.223-2.427-2.239q-7.708-.077-15.418,0c-1.61.016-2.351.7-2.421,2.278C167.2,804.787,167.282,807.192,167.282,809.672Z" transform="translate(-122.758 -779.902)"/><path class="a" d="M126.713,841.793a13.348,13.348,0,0,1,1.014-2.362,195.133,195.133,0,0,0,14.526-26,2.427,2.427,0,0,1,3.393-1.341,2.09,2.09,0,0,1,.958,1.6,9.273,9.273,0,0,1-.672,3.084c-2.847,7.268-5.635,14.562-8.7,21.738a24.733,24.733,0,0,1-4.016,5.757,3.122,3.122,0,0,1-4.011.92C127.948,844.472,126.769,843.6,126.713,841.793Z" transform="translate(-126.103 -770.546)"/><path class="a" d="M164.761,823.237a15.673,15.673,0,0,1-1.3,3,63.888,63.888,0,0,1-12.225,13.2,3.986,3.986,0,0,1-1.659.964c-.694.11-1.722.089-2.1-.331a2.5,2.5,0,0,1-.138-2.127,16.422,16.422,0,0,1,1.549-2.285c2.276-3.812,4.515-7.646,6.771-11.471.47-.8.915-1.611,1.434-2.374a4.318,4.318,0,0,1,6.945-.314A6.632,6.632,0,0,1,164.761,823.237Z" transform="translate(-119.477 -767.927)"/><path class="a" d="M183.7,838.889a4.146,4.146,0,0,1-3.662-2.465c-.7-1.352-1.185-2.808-1.836-4.185-1.463-3.092-2.973-6.161-4.456-9.243-.437-.908-.781-1.885.114-2.678s1.839-.422,2.64.242c4.067,3.376,8.016,6.888,11.006,11.293a4.281,4.281,0,0,1-1.82,6.5A12.485,12.485,0,0,1,183.7,838.889Z" transform="translate(-111.018 -767.938)"/><path class="a" d="M145.649,790.666a4.9,4.9,0,0,1-2.233,4,2.255,2.255,0,0,1-2.93-.367q-3.131-2.842-6.217-5.735c-1.25-1.167-2.47-2.367-3.7-3.553-.8-.765-1.51-1.565-.859-2.771a3.081,3.081,0,0,1,3.425-1.471,10.278,10.278,0,0,1,2.562,1.348q4.529,3.433,8.948,7.011A5.138,5.138,0,0,1,145.649,790.666Z" transform="translate(-125.216 -780.64)"/><path class="a" d="M128.206,797.843a28.185,28.185,0,0,1,3.451,1.17c3.106,1.545,6.17,3.176,9.236,4.8a7.225,7.225,0,0,1,1.345.978,2.86,2.86,0,0,1,.612,4.179c-1.191,1.747-2.334,2.164-4.106,1.021-3.149-2.031-6.172-4.257-9.236-6.418-.8-.56-1.53-1.2-2.327-1.761a1.817,1.817,0,0,1-.649-2.55C126.874,798.656,127.65,798.293,128.206,797.843Z" transform="translate(-126.253 -775.07)"/></g><g transform="translate(7791.732 7970.755)"><path class="a" d="M227.11,802.015c-.24,3.7-.416,7.262-.708,10.814a57.627,57.627,0,0,1-5.784,21.74,30.543,30.543,0,0,1-8.214,10.21,55.488,55.488,0,0,1-14.312,8.425,17.631,17.631,0,0,1-2.514.777c-.81.184-1.778.729-2.351-.351a2.614,2.614,0,0,1,1.169-3.21c2.423-1.448,4.9-2.822,7.253-4.372,7.727-5.083,11.794-12.612,13.922-21.346,1.765-7.24,2.22-14.643,2.424-22.064a4.389,4.389,0,0,0-.114-.7h-1.639q-11.956-.012-23.914-.025c-1.7,0-2.01-.27-2.06-1.708-.057-1.644.116-1.835,1.783-1.84,8.157-.028,16.313-.075,24.47-.042,1.248.005,1.57-.377,1.559-1.577-.038-4.4.019-8.81.052-13.214.021-2.723.568-3.266,3.25-3.274.927,0,1.855-.009,2.781.012,2.088.047,2.767.72,2.788,2.926.04,4.173.025,8.347.033,12.519,0,.784,0,1.567,0,2.58h1.71q13.9-.01,27.808-.02c5.106,0,6.255,1.042,6.333,6.153.177,11.687.049,23.373-1.457,34.984a49.541,49.541,0,0,1-2.145,9.308,10.61,10.61,0,0,1-10.458,7.706c-6.015.148-12.04-.034-18.061-.093-2.039-.02-4.077-.11-6.116-.151-2.1-.041-2.342-.221-2.314-1.825.026-1.519.349-1.709,2.444-1.744,3.8-.063,7.6-.041,11.385-.315,2.9-.21,5.764-.826,8.646-1.251a4.115,4.115,0,0,0,3.626-3.368,83.566,83.566,0,0,0,1.683-8.852c1.325-11.3,1.406-22.662,1.431-34.023,0-2.205-.58-2.84-2.795-2.849-6.951-.03-13.9-.013-20.856-.011C227.624,801.944,227.4,801.986,227.11,802.015Z" transform="translate(-190.259 -780.256)"/></g><g transform="translate(7877.322 7972.355)"><path class="a" d="M314.551,829.3c2.812,0,5.447.026,8.083-.007,3.033-.038,3.991-1,4.011-4.023.029-4.4.019-8.8.021-13.2,0-3.872-.183-4.048-4.1-3.948-2.06.052-2.491.479-2.5,2.588-.021,3.614.007,7.228-.029,10.842-.04,3.994.854,4.112-4.158,4.106-1.062,0-1.438-.266-1.427-1.4.048-5.049-.005-10.1-.015-15.148-.008-4.223-.128-4.346-4.382-4.331-2.889.011-3.339.462-3.34,3.429,0,5.282.012,10.564.012,15.846,0,.487-.045.974-.074,1.553-1.2,0-2.262.045-3.317-.009-1.749-.091-1.987-.335-1.992-2.1-.013-3.892.012-7.784.022-11.675.011-3.54-.21-3.757-3.782-3.711-2.407.032-2.855.453-2.82,2.85.062,4.169.184,8.337.25,12.506.082,5.269.723,5.906,5.968,5.846,1.881-.021,3.764,0,5.666,0v3.934c-.577,0-1.076.009-1.573,0-3.1-.073-6.206-.2-9.309-.208-1.912-.007-2.638.661-2.65,2.442-.036,5-.081,10.009.049,15.009.091,3.521,2.114,5.522,5.669,5.8,2.074.163,4.166.136,6.248.134,5.606-.008,11.217.081,16.815-.119,4.028-.144,5.907-2.313,5.929-6.362.026-4.726-.012-9.452-.052-14.177-.019-2.086-.661-2.687-2.78-2.752-3.623-.11-4.1.351-4.1,3.973q0,6.811.011,13.622c0,.793.054,1.741-1,1.848-1.766.177-3.546.2-5.347.282Zm-50.466,16.284c-2.568.4-3.046,0-3.046-2.33q0-23.076,0-46.154c0-.463,0-.927-.013-1.39a1.6,1.6,0,0,0-1.829-1.767c-.879.018-1.761.018-2.64.02a1.413,1.413,0,0,0-1.524,1.455c-.056.552-.045,1.111-.046,1.667q-.038,24.12-.072,48.239c-.005,3.174.744,3.979,3.9,3.993q8.62.038,17.24,0c3.172-.01,3.918-.793,3.917-3.963q-.01-24.051-.018-48.1c0-3.327,0-3.327-3.284-3.319-2.335.007-2.478.144-2.491,2.411q-.141,23.493-.279,46.986c-.013,2.28-.474,2.661-2.873,2.233v-1.33q.014-29.819.027-59.64a11.261,11.261,0,0,0-.056-1.525,1.593,1.593,0,0,0-1.753-1.577c-1.019.016-2.04.028-3.058-.018-1.357-.062-1.959.615-2,1.9-.017.556-.019,1.112-.02,1.668l-.075,56.442C264.084,842.859,264.085,844.237,264.085,845.579Zm28.027-42.73H294q12.645,0,25.291-.008a21.107,21.107,0,0,0,2.906-.191c3.52-.5,5.369-2.354,5.465-5.871s-.1-7.036-.172-10.555a1.4,1.4,0,0,0-1.333-1.5,12.421,12.421,0,0,0-1.657-.12q-18.066-.012-36.132,0c-3.307,0-4.145.888-4.183,4.244,0,.185,0,.371,0,.556-.025,10.747-.009,21.492-.087,32.237-.082,11.381-1.46,22.526-6.279,33.024a1.548,1.548,0,0,0,2.448,1.859,17.792,17.792,0,0,0,2.746-3.283c6.063-8.957,8.331-19.092,8.851-29.676.31-6.285.183-12.593.25-18.891C292.118,804.124,292.113,803.579,292.113,802.85Z" transform="translate(-254.914 -781.465)"/><path class="a" d="M305.217,823.594v23.44c1.8-.086,3.581-.1,5.347-.282,1.058-.107,1-1.055,1-1.848q0-6.811-.011-13.622c0-3.622.475-4.083,4.1-3.973,2.119.065,2.761.666,2.78,2.752.04,4.725.078,9.451.052,14.177-.022,4.049-1.9,6.218-5.929,6.362-5.6.2-11.209.111-16.815.119-2.082,0-4.174.029-6.248-.134-3.554-.279-5.577-2.28-5.669-5.8-.13-5-.085-10.007-.049-15.009.012-1.782.739-2.449,2.65-2.442,3.1.011,6.206.135,9.309.208.5.012,1,0,1.573,0V823.61c-1.9,0-3.785-.019-5.666,0-5.245.06-5.886-.577-5.968-5.846-.066-4.169-.188-8.337-.25-12.506-.036-2.4.413-2.818,2.82-2.85,3.572-.046,3.793.171,3.782,3.711-.011,3.891-.036,7.783-.023,11.675.005,1.761.244,2,1.992,2.1,1.055.054,2.115.009,3.317.009.029-.578.074-1.066.074-1.553,0-5.282-.013-10.564-.012-15.846,0-2.967.451-3.418,3.34-3.429,4.253-.015,4.374.109,4.382,4.331.009,5.049.062,10.1.015,15.148-.011,1.13.365,1.4,1.427,1.4,5.012.005,4.118-.113,4.158-4.106.036-3.614.008-7.228.029-10.842.012-2.109.443-2.536,2.5-2.588,3.92-.1,4.105.075,4.1,3.948,0,4.4.008,8.8-.021,13.2-.02,3.026-.978,3.985-4.011,4.023C310.665,823.62,308.029,823.594,305.217,823.594Z" transform="translate(-245.58 -775.764)"/><path class="a" d="M264.085,845.579c0-1.342,0-2.72,0-4.1l.075-56.442c0-.556,0-1.112.02-1.668.041-1.287.643-1.965,2-1.9,1.018.046,2.039.034,3.058.018a1.593,1.593,0,0,1,1.753,1.577,11.256,11.256,0,0,1,.056,1.525q-.01,29.821-.027,59.64v1.33c2.4.428,2.859.046,2.873-2.233q.139-23.493.279-46.986c.013-2.266.156-2.4,2.491-2.411,3.284-.008,3.283-.008,3.284,3.319q.008,24.049.018,48.1c0,3.17-.745,3.953-3.917,3.963q-8.62.032-17.24,0c-3.152-.013-3.9-.818-3.9-3.993q.036-24.12.072-48.239c0-.556-.009-1.115.046-1.667a1.413,1.413,0,0,1,1.524-1.455c.879,0,1.761,0,2.64-.02a1.6,1.6,0,0,1,1.829,1.767c.016.463.013.927.013,1.39q0,23.078,0,46.154C261.039,845.583,261.517,845.978,264.085,845.579Z" transform="translate(-254.914 -781.465)"/><path class="a" d="M286.536,802.084c0,.729.005,1.275,0,1.82-.068,6.3.06,12.605-.25,18.891-.52,10.584-2.788,20.719-8.851,29.676a17.792,17.792,0,0,1-2.746,3.283,1.548,1.548,0,0,1-2.448-1.859c4.819-10.5,6.2-21.643,6.279-33.024.078-10.745.062-21.49.087-32.237,0-.185,0-.371,0-.556.038-3.356.876-4.24,4.183-4.244q18.066-.02,36.132,0a12.421,12.421,0,0,1,1.657.12,1.4,1.4,0,0,1,1.333,1.5c.071,3.519.267,7.041.172,10.555s-1.945,5.376-5.465,5.871a21.107,21.107,0,0,1-2.906.191q-12.645.022-25.291.008Zm.068-3.884a7.2,7.2,0,0,0,.741.082c8.337,0,16.675-.011,25.012.012,1.28,0,1.874-.5,1.86-1.8-.028-2.408,0-4.816-.012-7.224-.008-1.69-.218-1.892-1.955-1.889q-9.656.018-19.313.048c-1.62.007-3.241.036-4.858.1-.815.034-1.464.395-1.469,1.333C286.593,791.96,286.6,795.048,286.6,798.2Z" transform="translate(-249.337 -780.7)"/></g><g transform="translate(7960.283 7972.256)"><path class="a" d="M336.193,793.36c0-2.922.005-5.69,0-8.458-.008-2.972.52-3.516,3.441-3.512.834,0,1.668-.007,2.5.007,2.219.032,2.878.68,2.882,2.944,0,2.548-.052,5.1-.071,7.646,0,.405.038.811.066,1.358h5.864c.973,0,1.946-.008,2.919-.008a2.064,2.064,0,0,1,1.9,3.234,1.888,1.888,0,0,1-1.412.569c-2.595.04-5.189-.005-7.784-.02-.457,0-.915,0-1.487,0v13.745c2.448,0,4.848,0,7.247,0,1.112,0,2.225-.008,3.337-.008,2.1,0,2.183.143,2.11,2.188-.046,1.273-.625,1.676-1.83,1.656-3.1-.05-6.209-.021-9.314-.025h-1.571v13.7c3.513,0,6.934-.008,10.356,0,1.623.007,1.818.289,1.941,1.822.111,1.4-.482,1.767-1.773,1.746-3.466-.057-6.934-.02-10.522-.02-.04.64-.091,1.088-.093,1.537-.005,5.7.037,11.4-.036,17.1-.015,1.215.422,1.668,1.528,1.749,4.288.314,8.573.886,12.861.916,11.815.085,23.631-.058,35.446-.1,1.577-.005,1.712.218,1.774,1.927.044,1.177-.109,1.925-1.6,1.921-15.057-.04-30.116.07-45.172-.072-6.867-.065-13.286-1.824-18.562-6.6-1.236-1.117-2.532-2.168-3.8-3.25l.192-.4c-.2.443-.359.908-.6,1.328q-2.432,4.275-4.9,8.528a5.481,5.481,0,0,1-.793.964c-.8.841-1.673,1.624-2.888.83-1.2-.784-.755-1.818-.248-2.816,3.926-7.726,4.73-16.089,5-24.56.1-3.009.1-6.022.246-9.028.079-1.678.777-2.3,2.441-2.4.969-.061,1.946-.048,2.918-.02,1.735.05,2.462.643,2.382,2.352-.233,4.9-.59,9.793-.9,14.689-.024.367-.22.773-.114,1.088a21.736,21.736,0,0,0,6.138,9.674V814.676h-1.493c-4.587,0-9.175-.013-13.762.024-1.117.008-1.746-.249-1.7-1.545.06-1.873.289-2.288,1.781-2.292,4.588-.012,9.175.007,13.762.013h1.44V797.116c-.5,0-.937,0-1.379,0q-5.7.024-11.4.046c-1.791.005-1.966-.151-1.972-1.684-.008-1.789.318-2.141,2.07-2.141,3.708,0,7.415.013,11.121.021C335.17,793.361,335.665,793.36,336.193,793.36Z" transform="translate(-317.583 -781.389)"/><path class="a" d="M362.967,784.107c4.721,0,9.448-.132,14.161.052,2.773.107,3.7,1.13,3.8,3.962.177,4.812.144,9.632.16,14.448.007,1.99-.007,3.987-.158,5.969-.228,2.964-1.32,4.055-4.286,4.2-2.912.138-5.834.142-8.75.132-3.72-.011-3.952.179-3.954,3.865q-.006,10.981,0,21.962c0,2.841.428,3.344,3.253,3.464,1.8.078,3.609-.06,5.412-.12a3.007,3.007,0,0,0,3.059-2.354c.6-2.232,1.127-4.482,1.642-6.734.623-2.732.769-2.871,3.617-2.89.833-.005,1.668-.016,2.5.021a1.469,1.469,0,0,1,1.587,1.577,71.036,71.036,0,0,1-.72,9.379c-.65,3.5-2.322,4.7-6.3,4.762-7.825.128-15.654.115-23.48.026-3.54-.04-4.77-1.407-4.938-4.975-.07-1.479-.038-2.964-.04-4.447,0-6.44-.029-12.879.023-19.32a17.477,17.477,0,0,1,.51-4.112c.686-2.713,1.947-3.712,4.746-3.76,4.631-.079,9.264-.058,13.9-.07,3.928-.009,3.911,0,3.892-3.859-.021-4.541,0-9.081-.011-13.622-.009-3.214-.721-3.932-3.922-3.934-6.115-.007-12.229-.02-18.343.025-1.243.009-1.9-.24-1.826-1.685.1-1.982.143-2.154,1.819-2.159,4.215-.013,8.431-.005,12.646-.005Z" transform="translate(-307.573 -780.576)"/></g></g><g transform="translate(146.691 -595.256)"><g transform="translate(280.347 802.637)"><path class="a" d="M465.106,819.237c0,2.531-.009,5.062.006,7.593,0,.606-.139.945-.922.655v-6.72c0-.677.006-1.353,0-2.029s-.043-1.331.851-1.484a1.636,1.636,0,0,1,1.951,1.036c.81,2.068,1.6,4.145,2.4,6.217.192.5.4.987.687,1.691.252-.526.412-.831.548-1.145q1.4-3.239,2.784-6.48a1.65,1.65,0,0,1,2.3-1.139,1.262,1.262,0,0,1,.713.934c.056,2.833.021,5.668.042,8.5,0,.64-.326.735-.854.742-.58.007-1.023-.041-1.023-.793,0-2.222-.031-4.445-.049-6.667a1.847,1.847,0,0,0-.212-1c-.134.295-.284.584-.4.886-.846,2.227-1.718,4.445-2.509,6.691-.28.8-.807.89-1.505.882s-1.324-.013-1.628-.864c-.8-2.243-1.671-4.461-2.517-6.688-.112-.294-.239-.582-.359-.872Z" transform="translate(-435.287 -817.216)"/><path class="a" d="M419.429,817.337c1.063.1,2.133.15,3.185.314a1.856,1.856,0,0,1,1.626,1.583,1.256,1.256,0,0,1-.362,1.077.881.881,0,0,1-1.408-.487,1.874,1.874,0,0,0-1.94-1.3c-3.565-.246-4.523.642-4.456,4.169,0,.257.02.514.038.771.127,1.788.816,2.769,2.148,3.062,1.943.427,3.341-.131,4.173-1.738.431-.833,1.128-.52,1.688-.379.2.051.4.745.327,1.091a2.311,2.311,0,0,1-1.846,1.91,10.957,10.957,0,0,1-5.768-.192,3.829,3.829,0,0,1-2.8-3.675,23.316,23.316,0,0,1,.012-2.892,3.19,3.19,0,0,1,3.33-3.2c.68-.037,1.363-.006,2.045-.006Z" transform="translate(-413.995 -817.267)"/><path class="a" d="M495.883,823.2c0,1.262-.044,2.413.015,3.559.042.811-.325.974-1.043.969s-1.075-.164-1.054-.974c.072-2.734.1-5.469.111-8.2,0-.8.364-1.083,1.129-1.073,1.883.025,3.767,0,5.65.033a2.348,2.348,0,0,1,2.384,1.182,3.589,3.589,0,0,1-.047,3.513,2.43,2.43,0,0,1-1.633.835c-1.415.152-2.85.12-4.277.157C496.738,823.206,496.357,823.2,495.883,823.2Zm-.024-.692c1.256,0,2.422.083,3.569-.024a2.258,2.258,0,0,0,1.714-2.561c-.082-1.13-.66-1.656-1.933-1.7a23.556,23.556,0,0,0-2.628.01c-.253.019-.678.35-.689.556C495.826,820,495.859,821.212,495.859,822.506Z" transform="translate(-447.851 -817.326)"/><path class="a" d="M437.771,827.463c.274-.62.534-1.234.814-1.839,1.149-2.48,2.308-4.956,3.455-7.438.234-.5.408-1.018,1.147-.954s1.414.075,1.787.879c1.285,2.772,2.615,5.523,3.877,8.305.13.286-.084.725-.139,1.093-.461-.1-1.081-.058-1.348-.341a5.942,5.942,0,0,1-.981-1.76,1.09,1.09,0,0,0-1.208-.709q-2.14.06-4.283,0a1.033,1.033,0,0,0-1.178.732c-.2.542-.5,1.045-.719,1.58C438.767,827.565,438.416,827.748,437.771,827.463Zm7.9-3.422L443.186,819l-.344.016-2.479,5.022Z" transform="translate(-424.082 -817.221)"/></g><g transform="translate(270.309 787.259)"><path class="a" d="M483.024,801.3c-.422,0-.844,0-1.266,0-2.091.007-2.913-.576-3.568-2.557a8.636,8.636,0,0,1-.21-4.752A3.316,3.316,0,0,1,481,791.15a43.41,43.41,0,0,1,5.433-.058,2.4,2.4,0,0,1,2.3,1.908,10.024,10.024,0,0,1,.039,5.609c-.51,1.757-1.552,2.516-3.509,2.639-.744.047-1.493.008-2.24.008Zm3.687-5.211.091-.008c-.089-.667-.134-1.342-.277-2a2.148,2.148,0,0,0-1.9-1.816,9.452,9.452,0,0,0-2.419.01,2.033,2.033,0,0,0-1.895,1.81,20.9,20.9,0,0,0,.047,4.192,2.129,2.129,0,0,0,1.788,1.836c2.59.519,4.295-.181,4.562-3.062C486.737,796.737,486.711,796.413,486.711,796.092Z" transform="translate(-431.001 -790.731)"/><path class="a" d="M400.786,801.752c-2.45-.077-3.37-.636-4.075-2.586-.157-.432-.336-.933.3-1.116a.89.89,0,0,1,1.221.571,3.021,3.021,0,0,0,1.439,1.518,7.77,7.77,0,0,0,2.851.319,1.282,1.282,0,0,0,1.382-1.226c.06-.875-.084-1.619-1.072-1.9-1.464-.423-2.926-.851-4.393-1.258-1.377-.381-1.717-.784-1.752-2.149-.058-2.265.273-2.68,2.6-2.835a31.1,31.1,0,0,1,4.277.02,2.035,2.035,0,0,1,2.132,1.743c.023.332-.252.964-.427.978-.517.039-1.3.015-1.536-.3a3.913,3.913,0,0,0-4.433-1.192c-.322.172-.726.616-.7.9a1.578,1.578,0,0,0,.69,1.13,22.721,22.721,0,0,0,2.643.959,27.846,27.846,0,0,1,2.644.97,2.9,2.9,0,0,1,1.26,4.034,2.208,2.208,0,0,1-1.3.885C403.305,801.477,402.038,801.582,400.786,801.752Z" transform="translate(-396.561 -790.726)"/><path class="a" d="M458.153,801.056c-.2,0-.39,0-.586,0-3.122-.029-4.382-1.194-4.5-4.287a21.967,21.967,0,0,1,.164-3.362,2.621,2.621,0,0,1,1.79-2.233,7.963,7.963,0,0,1,7.13.36,4.228,4.228,0,0,1,.978.786c.385.426.665.936.124,1.441-.391.365-1.26.113-1.6-.422a3.271,3.271,0,0,0-4.075-1.606,2.351,2.351,0,0,0-1.84,1.551,6.739,6.739,0,0,0,.016,4.727,2.987,2.987,0,0,0,2.916,2.036,2.713,2.713,0,0,0,2.832-1.787,1.2,1.2,0,0,1,1.733-.409c.633.367.406.883.148,1.34-.753,1.338-2.083,1.66-3.467,1.819a15.494,15.494,0,0,1-1.754.011Z" transform="translate(-420.526 -790.508)"/><path class="a" d="M513.744,799.685c.026-.462.058-.766.058-1.071,0-2.315-.013-4.631.025-6.945,0-.259.306-.513.47-.77.168.255.477.507.481.764.036,2.669.02,5.338.025,8.007,0,.587.061,1.2-.68,1.425a1.891,1.891,0,0,1-2.07-.4,5.31,5.31,0,0,1-.466-.618q-2.492-3.452-4.986-6.9c-.18-.248-.375-.485-.734-.948-.049.548-.093.814-.093,1.079-.006,2.347.013,4.7-.025,7.042,0,.291-.306.576-.47.865-.174-.281-.5-.559-.5-.842-.039-2.6-.021-5.209-.026-7.814,0-.656-.051-1.32.791-1.552a1.832,1.832,0,0,1,2.171.626c1.16,1.59,2.309,3.187,3.463,4.781.681.941,1.356,1.886,2.044,2.821A3.95,3.95,0,0,0,513.744,799.685Z" transform="translate(-442.459 -790.669)"/><path class="a" d="M439.852,791.2c.208.769-.067,1.032-.764,1.013-1.037-.028-2.076-.007-3.263-.007v1.1c0,2.381-.018,4.763.012,7.145.007.65-.172.921-.875.917s-.994-.221-.986-.943c.028-2.318.01-4.635.009-6.952v-1.27c-1.1,0-2.1-.01-3.1,0-.664.009-.977-.263-.854-1.009Z" transform="translate(-410.749 -790.802)"/><path class="a" d="M420.451,796.059c0-1.411.024-2.823-.011-4.233-.016-.654.233-.96.889-.955.609.005.986.231.984.9-.006,2.886-.011,5.773,0,8.659,0,.753-.456.775-1.027.791-.624.017-.865-.2-.85-.835C420.475,798.946,420.451,797.5,420.451,796.059Z" transform="translate(-406.691 -790.662)"/></g><g transform="translate(356.532 782.85)"><path class="a" d="M616.164,798.731c-.142,2.316-.221,4.638-.452,6.944a17.873,17.873,0,0,1-.8,3.654,7.414,7.414,0,0,1-6.02,5.244A24.409,24.409,0,0,1,603,814.9a18.575,18.575,0,0,1-3.258-.367,6.638,6.638,0,0,1-4.674-4.3,20.074,20.074,0,0,1-1.336-5.569,47.838,47.838,0,0,1-.233-8.556,24.621,24.621,0,0,1,1.564-8.139,7.093,7.093,0,0,1,4.424-4.409,13.752,13.752,0,0,1,3.07-.539,21.245,21.245,0,0,1,6.352.362,8.14,8.14,0,0,1,6.523,6.742,33.239,33.239,0,0,1,.617,6.414c.014.73,0,1.461,0,2.192Zm-5.757.182-.076,0c0-1.317.024-2.635-.006-3.952a25.186,25.186,0,0,0-.531-5.477c-.941-3.829-3.926-5.063-7.043-4.185a5.04,5.04,0,0,0-3.381,3.617,19.339,19.339,0,0,0-.864,4.954,71.737,71.737,0,0,0,.067,11.256,13.7,13.7,0,0,0,1.061,4.505,5.318,5.318,0,0,0,9.684.195,11.037,11.037,0,0,0,.86-4.07C610.289,803.475,610.334,801.194,610.407,798.914Z" transform="translate(-566.292 -782.885)"/><path class="a" d="M558.07,814.234q-4.821,0-9.642,0a5.79,5.79,0,0,1-.973-.082,1.2,1.2,0,0,1-1.136-1.338,8.889,8.889,0,0,1,1.656-5.326,20.683,20.683,0,0,1,5.822-5.789c1.863-1.228,3.76-2.4,5.65-3.59a10.355,10.355,0,0,0,2.842-2.43,7.349,7.349,0,0,0,.82-7.793,4.366,4.366,0,0,0-3.5-2.641,9.645,9.645,0,0,0-3.7.05,5.3,5.3,0,0,0-4.2,4.648c-.161,1.306-.218,2.624-.322,3.937-.012.143-.007.288-.031.429-.09.545-.276.727-.837.725-.888,0-1.776-.018-2.663-.067a1.2,1.2,0,0,1-1.305-1.412,12.106,12.106,0,0,1,2.238-6.842,8.269,8.269,0,0,1,6.709-3.814,30.83,30.83,0,0,1,8.141.575c.14.032.278.073.417.106a5.394,5.394,0,0,1,4.091,3.913,12.963,12.963,0,0,1,.333,6.57,7.564,7.564,0,0,1-2.366,3.971,39.287,39.287,0,0,1-7.208,5.237,19.652,19.652,0,0,0-4.74,3.69,8.44,8.44,0,0,0-2.108,3.656c0,.013-.008.025-.011.037-.236,1.071.152,1.556,1.261,1.557q7.29,0,14.581,0c.144,0,.288,0,.431.006a.524.524,0,0,1,.549.542c.012.286.018.574.009.86-.014.466-.151.6-.622.607-.953.008-1.907,0-2.861,0H558.07Z" transform="translate(-546.315 -782.85)"/><path class="a" d="M652.585,814.361q-4.84,0-9.681,0a5.585,5.585,0,0,1-.934-.078c-.844-.146-1.14-.53-1.162-1.394a8.866,8.866,0,0,1,1.623-5.219,20.656,20.656,0,0,1,5.867-5.853c1.862-1.229,3.761-2.4,5.65-3.589a10.209,10.209,0,0,0,2.863-2.465,7.351,7.351,0,0,0,.731-7.868,4.319,4.319,0,0,0-3.379-2.513,9.678,9.678,0,0,0-3.738.032,5.308,5.308,0,0,0-4.224,4.669c-.16,1.319-.236,2.65-.316,3.977-.055.922-.227,1.121-1.16,1.105-.8-.013-1.594-.024-2.388-.073a1.194,1.194,0,0,1-1.291-1.386,11.744,11.744,0,0,1,4.363-9.12,7.01,7.01,0,0,1,4.011-1.506,29.258,29.258,0,0,1,8.726.521l.039.008a5.684,5.684,0,0,1,4.639,4.622,13.617,13.617,0,0,1,.21,5.7,7.63,7.63,0,0,1-2.435,4.234,38.955,38.955,0,0,1-7.076,5.153,20.17,20.17,0,0,0-4.845,3.745,8.445,8.445,0,0,0-2.117,3.65c0,.013-.009.025-.011.037-.249,1.1.135,1.581,1.268,1.581q7.31,0,14.619,0c.829,0,.938.111.943.953.005,1.049-.011,1.065-1.072,1.065h-9.721Z" transform="translate(-586.401 -782.898)"/><path class="a" d="M705.409,799.145q0,7.124,0,14.249c0,1.262-.273,1.534-1.542,1.545-.64.005-1.28.017-1.92.017-.853,0-1.137-.269-1.14-1.12-.009-1.983,0-3.967,0-5.951q.008-9.512.017-19.025c0-.066,0-.131,0-.2-.011-.621-.15-.75-.734-.554a10.233,10.233,0,0,1-4.762.305c-.617-.086-.714-.193-.668-.8.063-.838.13-.99.921-1.178a11.9,11.9,0,0,0,5.078-2.826,2.352,2.352,0,0,1,1.849-.668c.609.057,1.226.032,1.835.093a1.063,1.063,0,0,1,.982.966,6.049,6.049,0,0,1,.082,1.01Q705.414,792.079,705.409,799.145Z" transform="translate(-609.243 -782.885)"/></g></g></g></svg>