<svg xmlns="http://www.w3.org/2000/svg" width="140.385" height="174.689" viewBox="0 0 140.385 174.689"><defs><style>.a{fill:#8a2d1c;stroke-linecap:round;stroke-linejoin:round;}.a,.b,.c,.d{stroke:#fff;}.a,.b,.c{stroke-width:3px;}.b{fill:#62956f;}.b,.c,.d{stroke-miterlimit:10;}.c{fill:#fff;}.d{fill:#bc7d3f;stroke-width:0.5px;}</style></defs><g transform="translate(-619.538 -602.483)"><g transform="translate(621.64 603.983)"><path class="a" d="M637.872,642.171l-8.418,25.4,42.968,62.654,13.937-25.409Z" transform="translate(-616.754 -580.107)"/><path class="a" d="M657.267,624.884,684,623.612l48.779,58.245-28.222,6.584Z" transform="translate(-599.365 -591.711)"/><rect class="b" width="37.391" height="31.476" rx="4.025" transform="matrix(0.797, -0.605, 0.605, 0.797, 67.124, 117.024)"/><rect class="c" width="57.559" height="112.646" rx="10.612" transform="matrix(0.797, -0.605, 0.605, 0.797, 0, 43.436)"/><circle class="b" cx="20.429" cy="20.429" r="20.429" transform="translate(33.188 46.053)"/><path class="a" d="M627.978,655.56c10.792-.985,18.584-5.719,26.088-11.414,7.2-5.461,13.748-13.771,18.014-22.054l-48.492-18.108Z" transform="translate(-620.422 -603.983)"/></g><path class="d" d="M699.041,684.707a10.839,10.839,0,0,1,6.122,2.244,37.826,37.826,0,0,1,15.724,22.565l-11.962-4.536a87.946,87.946,0,0,0,2.891,17.1,141.26,141.26,0,0,1-16.507-10.109l.959,14.445c-5.451-.746-9.179-6.091-10.546-11.42s-1.074-10.956-2.21-16.34" transform="translate(38.684 50.469)"/></g></svg>