<svg xmlns="http://www.w3.org/2000/svg" width="486.7" height="275.727" viewBox="0 0 486.7 275.727"><defs><style>.a{fill:#cf992d;}.a,.e,.f{stroke:#fff;stroke-width:3px;}.a,.d,.e,.f{stroke-miterlimit:10;}.b{fill:#fff;}.c,.e{fill:#9bb7db;}.d{fill:#8a2d1c;stroke:#8a2d1c;}.f{fill:#bc7d3f;}</style></defs><g transform="translate(1896.407 -703.976)"><circle class="a" cx="136.364" cy="136.364" r="136.364" transform="translate(-1774.538 705.476)"/><ellipse class="b" cx="12.781" cy="17.268" rx="12.781" ry="17.268" transform="translate(-1639.586 769.804) rotate(-22.394)"/><ellipse class="c" cx="6.265" cy="10.057" rx="6.265" ry="10.057" transform="translate(-1628.565 771.388) rotate(-22.394)"/><ellipse class="b" cx="12.781" cy="17.268" rx="12.781" ry="17.268" transform="translate(-1594.82 748.827) rotate(-22.394)"/><ellipse class="c" cx="6.265" cy="10.057" rx="6.265" ry="10.057" transform="translate(-1583.792 750.428) rotate(-22.394)"/><path class="d" d="M-1439.98,798.748c1.65,6.835,2.083,14.149,3.177,21.156l10.045-5.1c.351-.178.742-.4.85-.685a.633.633,0,0,0-.181-.613c-4.045-5.326-8.078-9.269-13.89-14.754" transform="translate(-160.853 -32.98)"/><path class="e" d="M-1411.789,758.778c-5.487-15.333-59.752-10.924-126.034,6.229,1.074.979,3.494,3.968,4.441,5.061,1.7,1.961,2.263,2.087,3.5,4.381,38.445-9.536,70.964-12.745,73.775-4.891,5.471,15.289-76.557,62.078-183.214,104.5s-197.558,64.422-203.03,49.132c-3.177-8.88,24.941-29.184,68.472-52.286-.56-4.027.242-9.419-.69-13.541-74.383,38.123-126,76.135-119.831,93.377,8.844,24.714,124.049,1.776,257.318-51.234S-1402.945,783.492-1411.789,758.778Z" transform="translate(0 -15.527)"/><path class="f" d="M-1427.493,778.1c-2.846-7.953-34.515-4.957-73.775,4.891,1.536,2.279,4.324,5.844,5.8,8.171,10.762-2.02,21.952-4.33,22.8-1.951,2.856,7.979-58.7,39.853-137.486,71.192s-144.971,50.275-147.827,42.3c-.817-2.283,5.639-6.688,14.266-12.312-.73-3.366-1.16-7.484-1.553-10.939-43.471,23.079-71.647,43.414-68.472,52.286,5.472,15.29,96.371-6.707,203.03-49.132S-1422.022,793.393-1427.493,778.1Z" transform="translate(-28.611 -24.071)"/></g></svg>