<svg xmlns="http://www.w3.org/2000/svg" width="72.345" height="25.816" viewBox="0 0 72.345 25.816"><defs><style>.a{fill:#b6d2e4;}</style></defs><g transform="translate(-77 -15.236)"><g transform="translate(77 30.614)"><path class="a" d="M465.106,819.237c0,2.531-.009,5.062.006,7.593,0,.606-.139.945-.922.655v-6.72c0-.677.006-1.353,0-2.029s-.043-1.331.851-1.484a1.636,1.636,0,0,1,1.951,1.036c.81,2.068,1.6,4.145,2.4,6.217.192.5.4.987.687,1.691.252-.526.412-.831.548-1.145q1.4-3.239,2.784-6.48a1.65,1.65,0,0,1,2.3-1.139,1.262,1.262,0,0,1,.713.934c.056,2.833.021,5.668.042,8.5,0,.64-.326.735-.854.742-.58.007-1.023-.041-1.023-.793,0-2.222-.031-4.445-.049-6.667a1.847,1.847,0,0,0-.212-1c-.134.295-.284.584-.4.886-.846,2.227-1.718,4.445-2.509,6.691-.28.8-.807.89-1.505.882s-1.324-.013-1.628-.864c-.8-2.243-1.671-4.461-2.517-6.688-.112-.294-.239-.582-.359-.872Z" transform="translate(-435.287 -817.216)"/><path class="a" d="M419.429,817.337c1.063.1,2.133.15,3.185.314a1.856,1.856,0,0,1,1.626,1.583,1.256,1.256,0,0,1-.362,1.077.881.881,0,0,1-1.408-.487,1.874,1.874,0,0,0-1.94-1.3c-3.565-.246-4.523.642-4.456,4.169,0,.257.02.514.038.771.127,1.788.816,2.769,2.148,3.062,1.943.427,3.341-.131,4.173-1.738.431-.833,1.128-.52,1.688-.379.2.051.4.745.327,1.091a2.311,2.311,0,0,1-1.846,1.91,10.957,10.957,0,0,1-5.768-.192,3.829,3.829,0,0,1-2.8-3.675,23.316,23.316,0,0,1,.012-2.892,3.19,3.19,0,0,1,3.33-3.2c.68-.037,1.363-.006,2.045-.006Z" transform="translate(-413.995 -817.267)"/><path class="a" d="M495.883,823.2c0,1.262-.044,2.413.015,3.559.042.811-.325.974-1.043.969s-1.075-.164-1.054-.974c.072-2.734.1-5.469.111-8.2,0-.8.364-1.083,1.129-1.073,1.883.025,3.767,0,5.65.033a2.348,2.348,0,0,1,2.384,1.182,3.589,3.589,0,0,1-.047,3.513,2.43,2.43,0,0,1-1.633.835c-1.415.152-2.85.12-4.277.157C496.738,823.206,496.357,823.2,495.883,823.2Zm-.024-.692c1.256,0,2.422.083,3.569-.024a2.258,2.258,0,0,0,1.714-2.561c-.082-1.13-.66-1.656-1.933-1.7a23.556,23.556,0,0,0-2.628.01c-.253.019-.678.35-.689.556C495.826,820,495.859,821.212,495.859,822.506Z" transform="translate(-447.851 -817.326)"/><path class="a" d="M437.771,827.463c.274-.62.534-1.234.814-1.839,1.149-2.48,2.308-4.956,3.455-7.438.234-.5.408-1.018,1.147-.954s1.414.075,1.787.879c1.285,2.772,2.615,5.523,3.877,8.305.13.286-.084.725-.139,1.093-.461-.1-1.081-.058-1.348-.341a5.942,5.942,0,0,1-.981-1.76,1.09,1.09,0,0,0-1.208-.709q-2.14.06-4.283,0a1.033,1.033,0,0,0-1.178.732c-.2.542-.5,1.045-.719,1.58C438.767,827.565,438.416,827.748,437.771,827.463Zm7.9-3.422L443.186,819l-.344.016-2.479,5.022Z" transform="translate(-424.082 -817.221)"/></g><g transform="translate(77 15.236)"><path class="a" d="M483.024,801.3c-.422,0-.844,0-1.266,0-2.091.007-2.913-.576-3.568-2.557a8.636,8.636,0,0,1-.21-4.752A3.316,3.316,0,0,1,481,791.15a43.41,43.41,0,0,1,5.433-.058,2.4,2.4,0,0,1,2.3,1.908,10.024,10.024,0,0,1,.039,5.609c-.51,1.757-1.552,2.516-3.509,2.639-.744.047-1.493.008-2.24.008Zm3.687-5.211.091-.008c-.089-.667-.134-1.342-.277-2a2.148,2.148,0,0,0-1.9-1.816,9.452,9.452,0,0,0-2.419.01,2.033,2.033,0,0,0-1.895,1.81,20.9,20.9,0,0,0,.047,4.192,2.129,2.129,0,0,0,1.788,1.836c2.59.519,4.295-.181,4.562-3.062C486.737,796.737,486.711,796.413,486.711,796.092Z" transform="translate(-431.001 -790.731)"/><path class="a" d="M400.786,801.752c-2.45-.077-3.37-.636-4.075-2.586-.157-.432-.336-.933.3-1.116a.89.89,0,0,1,1.221.571,3.021,3.021,0,0,0,1.439,1.518,7.77,7.77,0,0,0,2.851.319,1.282,1.282,0,0,0,1.382-1.226c.06-.875-.084-1.619-1.072-1.9-1.464-.423-2.926-.851-4.393-1.258-1.377-.381-1.717-.784-1.752-2.149-.058-2.265.273-2.68,2.6-2.835a31.1,31.1,0,0,1,4.277.02,2.035,2.035,0,0,1,2.132,1.743c.023.332-.252.964-.427.978-.517.039-1.3.015-1.536-.3a3.913,3.913,0,0,0-4.433-1.192c-.322.172-.726.616-.7.9a1.578,1.578,0,0,0,.69,1.13,22.721,22.721,0,0,0,2.643.959,27.846,27.846,0,0,1,2.644.97,2.9,2.9,0,0,1,1.26,4.034,2.208,2.208,0,0,1-1.3.885C403.305,801.477,402.038,801.582,400.786,801.752Z" transform="translate(-396.561 -790.726)"/><path class="a" d="M458.153,801.056c-.2,0-.39,0-.586,0-3.122-.029-4.382-1.194-4.5-4.287a21.967,21.967,0,0,1,.164-3.362,2.621,2.621,0,0,1,1.79-2.233,7.963,7.963,0,0,1,7.13.36,4.228,4.228,0,0,1,.978.786c.385.426.665.936.124,1.441-.391.365-1.26.113-1.6-.422a3.271,3.271,0,0,0-4.075-1.606,2.351,2.351,0,0,0-1.84,1.551,6.739,6.739,0,0,0,.016,4.727,2.987,2.987,0,0,0,2.916,2.036,2.713,2.713,0,0,0,2.832-1.787,1.2,1.2,0,0,1,1.733-.409c.633.367.406.883.148,1.34-.753,1.338-2.083,1.66-3.467,1.819a15.494,15.494,0,0,1-1.754.011Z" transform="translate(-420.526 -790.508)"/><path class="a" d="M513.744,799.685c.026-.462.058-.766.058-1.071,0-2.315-.013-4.631.025-6.945,0-.259.306-.513.47-.77.168.255.477.507.481.764.036,2.669.02,5.338.025,8.007,0,.587.061,1.2-.68,1.425a1.891,1.891,0,0,1-2.07-.4,5.31,5.31,0,0,1-.466-.618q-2.492-3.452-4.986-6.9c-.18-.248-.375-.485-.734-.948-.049.548-.093.814-.093,1.079-.006,2.347.013,4.7-.025,7.042,0,.291-.306.576-.47.865-.174-.281-.5-.559-.5-.842-.039-2.6-.021-5.209-.026-7.814,0-.656-.051-1.32.791-1.552a1.832,1.832,0,0,1,2.171.626c1.16,1.59,2.309,3.187,3.463,4.781.681.941,1.356,1.886,2.044,2.821A3.95,3.95,0,0,0,513.744,799.685Z" transform="translate(-442.459 -790.669)"/><path class="a" d="M439.852,791.2c.208.769-.067,1.032-.764,1.013-1.037-.028-2.076-.007-3.263-.007v1.1c0,2.381-.018,4.763.012,7.145.007.65-.172.921-.875.917s-.994-.221-.986-.943c.028-2.318.01-4.635.009-6.952v-1.27c-1.1,0-2.1-.01-3.1,0-.664.009-.977-.263-.854-1.009Z" transform="translate(-410.749 -790.802)"/><path class="a" d="M420.451,796.059c0-1.411.024-2.823-.011-4.233-.016-.654.233-.96.889-.955.609.005.986.231.984.9-.006,2.886-.011,5.773,0,8.659,0,.753-.456.775-1.027.791-.624.017-.865-.2-.85-.835C420.475,798.946,420.451,797.5,420.451,796.059Z" transform="translate(-406.691 -790.662)"/></g></g></svg>