<svg xmlns="http://www.w3.org/2000/svg" width="155.458" height="150.183" viewBox="0 0 155.458 150.183"><defs><style>.a{fill:#62956f;}.a,.c{stroke:#fff;stroke-width:3px;}.a,.c,.d{stroke-miterlimit:10;}.b{fill:#fff;}.c{fill:#1a4825;}.d{fill:none;stroke:#132229;}</style></defs><g transform="translate(-155.082 -415.729)"><ellipse class="a" cx="47.918" cy="44.102" rx="47.918" ry="44.102" transform="translate(189.078 417.229)"/><path class="b" d="M219.232,556.247c-15.112.9-29.836-5.411-42.394-13.865-5.757-3.875-11.263-8.29-15.382-13.875s-6.777-12.463-6.322-19.388c.321-4.9,2.516-10.028,6.861-12.323,5.788-3.056,14.013.992,15.121,7.443.974,5.663-2.761,11.61-.876,17.038.9,2.587,2.95,4.59,5.019,6.386A85.3,85.3,0,0,0,208.844,543.7" transform="translate(0 9.58)"/><path class="b" d="M259.467,494.707a196.6,196.6,0,0,0,29.035,1.3c3.305-.1,6.867-.209,9.614,1.631a2.479,2.479,0,0,1,1.248,1.682,2.507,2.507,0,0,1-.647,1.667c-2.243,2.937-6.061,4.1-9.622,5.087-8.072,2.246-34.152,3.824-42.441,5.042" transform="translate(11.171 9.451)"/><path class="b" d="M207.135,463.883a50.229,50.229,0,0,1-3.583-11.261c-.337-2.03-.435-4.24.6-6.016a2.8,2.8,0,0,1,1.058-1.1,3.462,3.462,0,0,1,1.674-.283A19.018,19.018,0,0,1,220,450.8" transform="translate(5.884 3.414)"/><path class="b" d="M236.236,446.59a27.223,27.223,0,0,1,7.945-10.479.968.968,0,0,1,.509-.26c.3-.021.549.233.739.47a17.443,17.443,0,0,1,3.162,15.305" transform="translate(9.9 2.271)"/><path class="b" d="M253.945,557.352c.066-1.335.221-2.673.4-3.993,2.867-21.647,4.062-43.219,14.135-62.025L247.912,487.8l-27.369-1.008a130.634,130.634,0,0,0-22.516,66.351c-.081,1.4-.136,2.8-.156,4.206Z" transform="translate(5.22 8.486)"/><path class="b" d="M261.295,482.489c-4.026,6.49-15.467,11.267-24.693,13.259s-19.628.175-25.952-6.366c-7.2-7.447-7.477-19.87-1.773-28.78s16.451-14.245,27.139-14.942a29.515,29.515,0,0,1,15.717,2.918A23.647,23.647,0,0,1,263.3,463.7c3.047,12.186,1.105,11.807-2.009,18.793" transform="translate(6.077 3.458)"/><path class="b" d="M243.783,514.661a196.671,196.671,0,0,0,22.175,6.927,11.151,11.151,0,0,1,4.932,2.095c1.342,1.207,1.954,3.438.813,4.837-.955,1.17-2.659,1.314-4.169,1.364l-10.239.346a97.825,97.825,0,0,1-17.049-.417c-5.637-.8-11.238-2.649-15.718-6.161" transform="translate(8.472 11.886)"/><path class="c" d="M263.383,497.447l-52.514,5.517a2.979,2.979,0,0,1-2.234-.677c-2.794-2.361-6.42-4.279-6.677-6.816h0c-.277-2.73,1.636-5.177,4.082-6.7a1.269,1.269,0,0,1,.548-.183l57.953-5.878a1.286,1.286,0,0,1,.534.055c2.962.973,5.349,2.991,5.627,5.734h0c.276,2.719-3.716,5.37-6.518,8.532A1.242,1.242,0,0,1,263.383,497.447Z" transform="translate(5.715 7.987)"/><path class="d" d="M226.187,464.911a1.432,1.432,0,0,0-.111.812.5.5,0,0,0,.624.378.516.516,0,0,0,.205-.191.731.731,0,0,0-.181-1.027c-.347-.183-.856.224-.675.572" transform="translate(8.653 5.808)"/><path class="d" d="M232.7,463.98a3.5,3.5,0,0,0,4.282,1.813,4.885,4.885,0,0,0,3.052-3.818" transform="translate(9.469 5.458)"/><path class="d" d="M245.8,460.179c-.159.15,0,.454.218.47a.528.528,0,0,0,.486-.37.475.475,0,0,0-.173-.613c-.218-.091-.472.263-.27.384" transform="translate(11.059 5.175)"/></g></svg>