<svg xmlns="http://www.w3.org/2000/svg" width="29.107" height="29.107" viewBox="0 0 29.107 29.107"><defs><style>.a{fill:#5687a5;}</style></defs><path class="a" d="M261.146,178.25l-12.277-8.45a1.064,1.064,0,0,0-1.2,0l-12.275,8.45a1.063,1.063,0,0,1-1.479-1.479l8.448-12.275a1.061,1.061,0,0,0,0-1.206l-8.448-12.275a1.063,1.063,0,0,1,1.479-1.479l12.275,8.448a1.058,1.058,0,0,0,1.2,0l12.277-8.448a1.063,1.063,0,0,1,1.479,1.479l-8.45,12.275a1.067,1.067,0,0,0,0,1.206l8.45,12.275A1.063,1.063,0,0,1,261.146,178.25Z" transform="translate(-233.715 -149.34)"/></svg>