<svg xmlns="http://www.w3.org/2000/svg" width="289.658" height="318.176" viewBox="0 0 289.658 318.176"><defs><style>.a{fill:#6e954f;stroke:#fff;stroke-miterlimit:10;stroke-width:3px;}.b{fill:none;stroke:#ced2d8;stroke-linecap:round;stroke-linejoin:round;stroke-width:8px;}.c{fill:#fff;}</style></defs><g transform="translate(-171.899 452.532)"><path class="a" d="M222.486-322.248c10.013-4.338,44.656-17.936,84.3-6.146,25.322,7.531,29.583,30.532,56.077,38.447,22.409,6.695,45,.5,61.063-6.131L427-299.735l32.278-117.8c-17.833,7.881-43.367,15.637-68.249,7.861-25.569-7.989-31.164-26.35-55.169-36.112-16.331-6.641-42.481-9.829-84.371,8.278"/><line class="b" x1="74.736" y2="298.302" transform="translate(176.751 -437.51)"/><path class="c" d="M294.648-394.172c.15-3.515-1.763-5.2-5.768-3.883-3.528,1.21-6.014,4.213-6.358,6.634-.291,2.1.924,2.33,4.181,1.638a28.267,28.267,0,0,1,4.14-.511c3.025-.1,4.51.465,5.606,1.462a5.246,5.246,0,0,1,1.381,4.84c-.748,4.966-5.256,7.844-11.679,10.636-6.859,3.156-10.459,3.586-10.064-3.076a46.773,46.773,0,0,1,3.925-3.025c-.233,4.312,2.191,4.606,6.751,2.638,3.806-1.6,6.782-3.823,7.18-6.489.3-1.952-.935-3.124-3.609-3.027a28.079,28.079,0,0,0-5.733.877c-4.665,1.323-6.525,1.023-5.99-2.939.694-4.993,4.98-11.249,11.046-13.151,6.066-1.772,8.895,1.382,8.837,7.048A32.6,32.6,0,0,0,294.648-394.172Z"/><path class="c" d="M305.427-376.232q-1.883-.311-3.766-.436,1.981-12.726,3.962-25.24,1.883.321,3.766.814Q307.407-388.756,305.427-376.232Z"/><path class="c" d="M321.167-370.909q-1.884-.914-3.767-1.712,1.734-10.522,3.469-20.942a69.631,69.631,0,0,0-8.247-3.374q.246-1.518.493-3.034c6.753,2.3,13.507,6.005,20.26,10.211q-.246,1.446-.493,2.893c-2.749-1.7-5.5-3.317-8.246-4.784Q322.9-381.322,321.167-370.909Z"/><path class="c" d="M353.264-368.7c-.271-3.566-2.612-7.113-6.259-9.539-5.075-3.386-9.024-1.973-9.956,3.488a15.074,15.074,0,0,0,6.682,14.8c4.124,2.752,7.394,2.207,8.678-1.44q1.9,1.232,3.806,2.423c-.709,2.1-1.553,3.191-3.181,3.955-2.631,1.239-5.91.521-9.875-2.119a23.068,23.068,0,0,1-8.6-10,17.655,17.655,0,0,1-1.487-10.065c1.206-7.115,7.169-8.782,14.426-3.915,5.629,3.748,9.158,9.008,9.506,14.424Q355.133-367.663,353.264-368.7Z"/><path class="c" d="M405.965-340.324c-2.774-3.929-5.549-8.311-8.323-13.084a39.8,39.8,0,0,1-2.053-4.032c-.1,1.173-.433,3.652-.629,4.952q-1.218,8.072-2.436,16.051a33.975,33.975,0,0,1-3.568.038q1.982-12.773,3.962-25.775a31.917,31.917,0,0,0,3.846-.527c2.658,4.685,5.318,9.017,7.976,12.941a30.55,30.55,0,0,1,2.313,4.091c.14-1.507.344-3.2.623-5.185q1.232-8.74,2.465-17.6,1.783-1.256,3.569-2.782-1.969,14.465-3.938,28.594A40.04,40.04,0,0,1,405.965-340.324Z"/><path class="c" d="M381.828-374.567a7.44,7.44,0,0,1,5.057-.275c0-.016-.944,3.208-3.447,4.507s-5.617-.079-5.618-.09a19.527,19.527,0,0,0,1.765-1.944A7.523,7.523,0,0,1,381.828-374.567Z"/><path class="c" d="M376.06-373.6a3.918,3.918,0,0,0-2.2-1.341,4.69,4.69,0,0,0,.89,2.68,4.576,4.576,0,0,0,2.431,1.487s-.246-.582-.468-1.31A4.748,4.748,0,0,0,376.06-373.6Z"/><path class="c" d="M375.119-366.191c.305.114.608.238.909.365a6.214,6.214,0,0,1,1.368-4.419,6.293,6.293,0,0,0-3.292,3.709C374.443-366.428,374.782-366.316,375.119-366.191Z"/><path class="c" d="M375.033-365.665c-7.316-2.721-14.183-.882-15.339,5.957-1.155,6.734,3.839,16.122,11.154,19.472,7.316,3.429,14.183-1.6,15.339-9.043S382.349-362.919,375.033-365.665Zm2.465,19.983q-2.412-2.688-4.824-5.61c-2,.438-4,.769-6,1.015q2.291-1.6,4.58-3.355-1.436-3.408-2.87-6.883,2.412,3.086,4.824,5.983a55.662,55.662,0,0,0,6-1.722q-2.291,2.117-4.58,4.013Q376.063-348.92,377.5-345.682Z"/></g></svg>