<?xml version="1.0" encoding="UTF-8" standalone="no"?>
<!-- Created with Inkscape (http://www.inkscape.org/) -->

<svg
   version="1.1"
   id="svg2"
   xml:space="preserve"
   width="447"
   height="255"
   viewBox="0 0 447 255"
   sodipodi:docname="hpe.svg"
   inkscape:version="1.1 (c68e22c387, 2021-05-23)"
   xmlns:inkscape="http://www.inkscape.org/namespaces/inkscape"
   xmlns:sodipodi="http://sodipodi.sourceforge.net/DTD/sodipodi-0.dtd"
   xmlns="http://www.w3.org/2000/svg"
   xmlns:svg="http://www.w3.org/2000/svg"><defs
     id="defs6"><clipPath
       clipPathUnits="userSpaceOnUse"
       id="clipPath18"><path
         d="M 0,288 H 432 V 0 H 0 Z"
         id="path16" /></clipPath></defs><sodipodi:namedview
     id="namedview4"
     pagecolor="#ffffff"
     bordercolor="#666666"
     borderopacity="1.0"
     inkscape:pageshadow="2"
     inkscape:pageopacity="0.0"
     inkscape:pagecheckerboard="0"
     showgrid="false"
     inkscape:zoom="0.98046875"
     inkscape:cx="82.103586"
     inkscape:cy="106.07171"
     inkscape:window-width="1920"
     inkscape:window-height="1131"
     inkscape:window-x="0"
     inkscape:window-y="0"
     inkscape:window-maximized="1"
     inkscape:current-layer="g8" /><g
     id="g8"
     inkscape:groupmode="layer"
     inkscape:label="hpe_pri_grn_pos_rgb"
     transform="matrix(1.3333333,0,0,-1.3333333,0,384)"><path
       d="M 107.523,236.90176 H 7.169 v 18.608 H 107.523 Z M 0,262.67776 v -32.943 h 0.001 114.691 v 32.943 z"
       style="fill:#00b388;fill-opacity:1;fill-rule:nonzero;stroke:none"
       id="path10" /><g
       id="g12"
       transform="translate(-48.492,47.999757)"><g
         id="g14"
         clip-path="url(#clipPath18)"><g
           id="g20"
           transform="translate(234.6074,97.4512)"><path
             d="M 0,0 H 11.541 C 11.385,3.424 9.697,6.059 6.114,6.059 2.793,6.059 0.632,3.583 0,0 m 6.904,-14.339 c -6.8,0 -11.437,4.535 -11.437,11.808 0,7.274 4.322,12.333 10.594,12.333 6.378,0 9.699,-4.586 9.699,-11.384 V -3.585 H -0.16 c 0.474,-4.692 3.48,-6.958 7.643,-6.958 2.584,0 4.428,0.579 6.485,2.108 h 0.157 v -3.849 C 12.229,-13.76 9.75,-14.339 6.904,-14.339 m -22.243,14.02 c 3.32,-1.052 7.01,-2.423 7.01,-6.851 0,-4.744 -3.9,-7.169 -8.906,-7.169 -3.058,0 -6.116,0.739 -7.855,2.109 v 4.164 h 0.211 c 1.951,-1.793 4.849,-2.583 7.59,-2.583 2.477,0 4.691,0.95 4.691,2.953 0,2.054 -1.843,2.529 -5.482,3.741 -3.268,1.054 -6.904,2.267 -6.904,6.642 0,4.481 3.689,7.115 8.38,7.115 2.742,0 5.165,-0.579 7.117,-1.898 V 3.688 h -0.159 c -1.896,1.528 -4.112,2.424 -6.852,2.424 -2.742,0 -4.27,-1.212 -4.27,-2.846 0,-1.844 1.686,-2.371 5.429,-3.585 m -19.976,9.646 h 4.375 v -23.19 h -4.375 z m 2.161,9.382 c 1.528,0 2.794,-1.211 2.794,-2.741 0,-1.528 -1.266,-2.74 -2.794,-2.74 -1.476,0 -2.794,1.212 -2.794,2.74 0,1.53 1.318,2.741 2.794,2.741 M -47.491,5.744 c 1.001,2.476 3.215,3.951 5.745,3.951 1.002,0 1.897,-0.157 2.267,-0.368 v -4.32 h -0.158 c -0.633,0.315 -1.686,0.472 -2.741,0.472 -2.373,0 -4.375,-1.581 -5.113,-4.216 v -15.126 h -4.375 v 23.19 h 4.375 z m -20.873,-16.129 c 4.323,0 6.853,3.426 6.853,8.117 0,4.639 -2.53,8.117 -6.853,8.117 -2.372,0 -4.586,-1.423 -5.745,-3.688 v -8.91 c 1.159,-2.265 3.373,-3.636 5.745,-3.636 m 0.738,20.187 c 6.905,0 10.594,-5.64 10.594,-12.07 0,-6.431 -3.689,-12.071 -10.594,-12.071 -2.847,0 -5.27,1.476 -6.483,3.058 v -11.492 h -4.375 v 32.1 h 4.375 V 6.693 c 1.213,1.633 3.636,3.109 6.483,3.109 M -90.502,5.744 c 1.003,2.476 3.216,3.951 5.745,3.951 1.003,0 1.898,-0.157 2.267,-0.368 v -4.32 h -0.158 c -0.632,0.315 -1.686,0.472 -2.741,0.472 -2.372,0 -4.374,-1.581 -5.113,-4.216 v -15.126 h -4.375 v 23.19 h 4.375 z M -115.801,0 h 11.543 c -0.158,3.424 -1.845,6.059 -5.429,6.059 -3.321,0 -5.482,-2.476 -6.114,-6.059 m 6.904,-14.339 c -6.799,0 -11.438,4.535 -11.438,11.808 0,7.274 4.322,12.333 10.595,12.333 6.378,0 9.698,-4.586 9.698,-11.384 v -2.003 h -15.918 c 0.475,-4.692 3.479,-6.958 7.643,-6.958 2.584,0 4.427,0.579 6.484,2.108 h 0.158 v -3.849 c -1.898,-1.476 -4.376,-2.055 -7.222,-2.055 m -20.187,23.666 h 5.955 V 5.584 h -5.955 v -12.49 c 0,-2.636 1.37,-3.532 3.847,-3.532 0.685,0 1.424,0.104 1.95,0.315 h 0.158 v -3.74 c -0.631,-0.265 -1.528,-0.476 -2.74,-0.476 -5.429,0 -7.59,2.479 -7.59,7.011 V 5.584 h -4.005 v 3.743 h 4.005 v 6.165 h 4.375 z m -19.872,0.475 c 5.219,0 8.117,-3.426 8.117,-9.066 v -14.599 h -4.374 V 0.63 c 0,3.006 -1.528,5.167 -4.849,5.167 -2.74,0 -5.061,-1.739 -5.851,-4.217 v -15.443 h -4.375 v 23.19 h 4.375 V 5.955 c 1.37,2.16 3.69,3.847 6.957,3.847 m -37.159,9.276 h 20.345 v -4.005 h -15.759 V 5.007 h 14.284 V 1.105 h -14.284 V -9.859 h 15.759 v -4.004 h -20.345 z M 142.09,37.795 v 7.538 c -1.159,1.687 -2.686,2.424 -4.427,2.424 -3.056,0 -5.111,-2.214 -5.111,-6.22 0,-4.006 2.055,-6.167 5.111,-6.167 1.741,0 3.268,0.738 4.427,2.425 m 0.21,-5.535 c -1.474,-1.898 -3.794,-2.951 -6.955,-2.951 -6.01,0 -9.858,5.48 -9.858,12.228 0,6.747 3.848,12.282 9.858,12.282 3.056,0 5.269,-0.949 6.745,-2.689 v 11.649 h 6.959 V 29.835 H 142.3 Z m -26.614,17.237 c 1.262,2.582 3.108,4.058 5.693,4.058 0.947,0 1.896,-0.21 2.263,-0.421 v -6.642 h -0.262 c -0.79,0.317 -1.739,0.528 -3.058,0.528 -2.16,0 -3.846,-1.266 -4.427,-3.69 V 29.835 h -6.957 v 23.457 h 6.748 z M 97.025,37.216 v 2.003 c -1.053,0.579 -2.424,0.79 -3.848,0.79 -2.266,0 -3.637,-0.843 -3.637,-2.74 0,-1.953 1.371,-2.795 3.426,-2.795 1.952,0 3.428,1.003 4.059,2.742 m 0.211,-5.061 c -1.528,-1.843 -3.796,-2.74 -6.22,-2.74 -4.586,0 -8.328,2.791 -8.328,7.747 0,4.586 3.742,7.644 9.12,7.644 1.686,0 3.425,-0.265 5.217,-0.791 v 0.421 c 0,2.53 -1.423,3.636 -5.165,3.636 -2.371,0 -4.64,-0.684 -6.59,-1.791 h -0.262 v 5.587 c 1.793,1.054 4.954,1.951 8.064,1.951 7.064,0 10.911,-3.373 10.911,-9.278 V 29.835 H 97.236 Z M 66.505,40.481 V 29.835 H 59.55 v 32.944 h 6.955 V 44.015 l 7.013,9.277 h 7.905 V 53.028 L 72.99,42.381 81.423,30.099 v -0.264 h -7.958 z m -30.148,1.056 c 0,7.538 5.325,12.282 12.282,12.282 2.478,0 4.797,-0.527 6.536,-1.792 V 46.07 h -0.264 c -1.529,1.16 -3.321,1.846 -5.376,1.846 -3.478,0 -6.114,-2.373 -6.114,-6.379 0,-4.006 2.636,-6.325 6.114,-6.325 2.055,0 3.847,0.685 5.376,1.846 h 0.264 v -5.956 c -1.739,-1.267 -4.058,-1.793 -6.536,-1.793 -6.957,0 -12.282,4.69 -12.282,12.228 M 25.868,37.216 v 2.003 c -1.055,0.579 -2.423,0.79 -3.847,0.79 -2.267,0 -3.636,-0.843 -3.636,-2.74 0,-1.953 1.369,-2.795 3.425,-2.795 1.95,0 3.425,1.003 4.058,2.742 m 0.21,-5.061 c -1.528,-1.843 -3.793,-2.74 -6.219,-2.74 -4.585,0 -8.328,2.791 -8.328,7.747 0,4.586 3.743,7.644 9.118,7.644 1.687,0 3.428,-0.265 5.219,-0.791 v 0.421 c 0,2.53 -1.423,3.636 -5.165,3.636 -2.374,0 -4.639,-0.684 -6.589,-1.791 h -0.262 v 5.587 c 1.791,1.054 4.954,1.951 8.062,1.951 7.065,0 10.911,-3.373 10.911,-9.278 V 29.835 H 26.078 Z M -2.068,46.597 c 3.638,0 5.378,2.055 5.378,5.008 0,3.057 -1.74,5.112 -5.378,5.112 h -4.533 v -10.12 z m 12.652,5.008 c 0,-7.169 -4.797,-11.07 -12.073,-11.07 h -5.112 v -10.7 h -7.166 v 32.944 h 12.278 c 7.276,0 12.073,-3.9 12.073,-11.174 m -41.261,1.687 h 5.166 v -5.587 h -5.166 v -9.542 c 0,-2.055 0.79,-3.004 2.899,-3.004 0.58,0 1.318,0.053 2.109,0.318 h 0.158 v -5.483 c -0.897,-0.317 -2.267,-0.685 -4.269,-0.685 -5.642,0 -7.855,2.583 -7.855,8.539 v 9.857 h -8.907 v -9.542 c 0,-2.055 0.791,-3.004 2.898,-3.004 0.581,0 1.318,0.053 2.109,0.318 h 0.159 v -5.483 c -0.897,-0.317 -2.268,-0.685 -4.27,-0.685 -5.641,0 -7.854,2.583 -7.854,8.539 v 9.857 h -3.585 v 5.587 h 3.585 v 6.43 h 6.958 v -6.43 h 8.907 v 6.43 h 6.958 z m -43.537,-9.014 h 8.539 c -0.159,2.424 -1.159,4.112 -3.953,4.112 -2.108,0 -3.954,-0.896 -4.586,-4.112 m 5.428,-14.969 c -7.273,0 -12.227,4.586 -12.227,12.122 0,7.328 4.848,12.388 11.279,12.388 7.01,0 10.489,-4.692 10.489,-11.703 V 39.48 h -14.969 c 0.843,-3.635 3.689,-4.583 6.535,-4.583 2.478,0 4.27,0.526 6.484,1.897 h 0.264 v -5.429 c -1.898,-1.371 -4.587,-2.056 -7.855,-2.056 m -16.813,0 c -5.693,0 -8.012,2.267 -8.012,7.589 v 25.881 h 6.957 V 37.373 c 0,-1.635 0.633,-2.214 2.003,-2.214 0.475,0 1.16,0.157 1.581,0.318 h 0.106 V 29.73 c -0.579,-0.21 -1.581,-0.421 -2.635,-0.421 m -28.832,14.337 -3.69,-13.811 h -6.272 l -7.169,23.193 v 0.264 h 6.852 l 3.901,-13.862 3.69,13.862 h 5.587 l 3.743,-13.862 3.953,13.862 h 6.588 v -0.264 l -7.168,-23.193 h -6.272 z m -33.681,0.632 h 8.539 c -0.157,2.424 -1.159,4.112 -3.953,4.112 -2.108,0 -3.953,-0.896 -4.586,-4.112 m 5.429,-14.969 c -7.273,0 -12.228,4.586 -12.228,12.122 0,7.328 4.849,12.388 11.28,12.388 7.01,0 10.488,-4.692 10.488,-11.703 V 39.48 h -14.969 c 0.844,-3.635 3.69,-4.583 6.537,-4.583 2.476,0 4.268,0.526 6.482,1.897 h 0.264 v -5.429 c -1.898,-1.371 -4.587,-2.056 -7.854,-2.056 m -36.264,0.526 h -7.168 v 32.944 h 7.168 V 49.76 h 12.809 v 13.019 h 7.168 V 29.835 h -7.168 v 13.652 h -12.809 z"
             style="fill:#000000;fill-opacity:1;fill-rule:nonzero;stroke:none"
             id="path22" /></g></g></g></g></svg>
