<svg xmlns="http://www.w3.org/2000/svg" width="138.556" height="134.019" viewBox="0 0 138.556 134.019"><defs><style>.a{fill:#62956f;}.b{fill:#fff;}.c{fill:#1a4825;}.d{fill:#132229;}</style></defs><g transform="translate(-1221.107 -423.979)"><ellipse class="a" cx="42.708" cy="39.307" rx="42.708" ry="39.307" transform="translate(1251.407 425.479)"/><path class="b" d="M1336.824,464.786h-1.5a36.185,36.185,0,0,1-12.025,26.691,43.867,43.867,0,0,1-58.367,0,35.633,35.633,0,0,1,0-53.381,43.864,43.864,0,0,1,58.367,0,36.185,36.185,0,0,1,12.025,26.69h3a39.186,39.186,0,0,0-12.993-28.9,46.864,46.864,0,0,0-62.43,0,38.633,38.633,0,0,0,0,57.8,46.864,46.864,0,0,0,62.43,0,39.183,39.183,0,0,0,12.993-28.9Z"/><path class="b" d="M1278.282,557.921c-13.468.8-26.592-4.824-37.784-12.358-5.131-3.455-10.038-7.389-13.711-12.366s-6.039-11.109-5.635-17.281c.287-4.37,2.243-8.938,6.116-10.982,5.159-2.724,12.489.883,13.477,6.633.868,5.048-2.462,10.348-.781,15.186.8,2.307,2.629,4.091,4.473,5.693a76.048,76.048,0,0,0,24.587,14.294"/><path class="b" d="M1324.1,502.957a175.215,175.215,0,0,0,25.878,1.162c2.946-.086,6.12-.186,8.569,1.454a2.2,2.2,0,0,1,1.111,1.5,2.226,2.226,0,0,1-.576,1.485c-2,2.619-5.4,3.652-8.577,4.535-7.194,2-30.438,3.408-37.826,4.494"/><path class="b" d="M1272.746,470.105a44.79,44.79,0,0,1-3.193-10.037,8.029,8.029,0,0,1,.537-5.362,2.507,2.507,0,0,1,.944-.985,3.094,3.094,0,0,1,1.492-.252,16.952,16.952,0,0,1,11.689,4.973"/><path class="b" d="M1302.261,453.672a24.281,24.281,0,0,1,7.082-9.34.861.861,0,0,1,.454-.231c.271-.019.489.207.659.419a15.549,15.549,0,0,1,2.818,13.641"/><path class="b" d="M1313.874,557.932c.058-1.19.2-2.383.353-3.56,2.554-19.293,3.62-38.519,12.6-55.281l-18.327-3.147-24.393-.9a116.428,116.428,0,0,0-20.068,59.137c-.072,1.246-.121,2.5-.139,3.749Z"/><path class="b" d="M1321.189,486.727c-3.588,5.783-13.785,10.041-22.008,11.816s-17.495.157-23.13-5.674c-6.413-6.636-6.664-17.709-1.58-25.651s14.661-12.7,24.187-13.316a26.3,26.3,0,0,1,14.009,2.6,21.075,21.075,0,0,1,10.313,13.473c2.716,10.861.985,10.523-1.791,16.751"/><path class="b" d="M1307.716,522.911a175.093,175.093,0,0,0,19.764,6.174,9.928,9.928,0,0,1,4.4,1.868c1.2,1.076,1.742,3.064.725,4.31-.851,1.044-2.37,1.171-3.716,1.216l-9.126.308a87.207,87.207,0,0,1-15.2-.371,29.235,29.235,0,0,1-14.008-5.491"/><path class="c" d="M1322.728,504.094l-46.8,4.917a2.654,2.654,0,0,1-1.991-.6c-2.49-2.1-5.722-3.813-5.951-6.075-.247-2.433,1.458-4.614,3.638-5.972a1.142,1.142,0,0,1,.488-.164l51.652-5.239a1.162,1.162,0,0,1,.476.049c2.639.867,4.767,2.667,5.015,5.111.246,2.424-3.312,4.786-5.809,7.6A1.112,1.112,0,0,1,1322.728,504.094Z"/><path class="b" d="M1322.728,504.094l-.157-1.491-46.8,4.916-.128.007a1.141,1.141,0,0,1-.738-.263c-1.335-1.125-2.772-2.083-3.822-2.977a7.585,7.585,0,0,1-1.21-1.231,1.828,1.828,0,0,1-.4-.873,3.159,3.159,0,0,1-.016-.319,3.91,3.91,0,0,1,.792-2.251,7.517,7.517,0,0,1,2.163-1.978l-.19-.306.036.362.154-.057-.19-.3.036.362,51.652-5.24-.029-.3v.3l.03,0-.03-.3v-.066l-.114.347.114.02v-.367l-.114.347a7.418,7.418,0,0,1,2.829,1.617,3.576,3.576,0,0,1,1.162,2.221l0,.088a1.953,1.953,0,0,1-.352.975,13.761,13.761,0,0,1-2.112,2.4c-.932.908-2.005,1.891-2.98,2.991l.292.258-.04-.383a.4.4,0,0,0-.252.124l.292.259-.04-.383.157,1.491.156,1.492a2.61,2.61,0,0,0,1.68-.868c1.115-1.263,2.55-2.5,3.779-3.786a12.278,12.278,0,0,0,1.631-2.04,4.876,4.876,0,0,0,.789-2.534c0-.129-.006-.259-.019-.39a6.576,6.576,0,0,0-2.061-4.075,10.376,10.376,0,0,0-3.979-2.311,2.64,2.64,0,0,0-.822-.13c-.093,0-.185.005-.275.014l-51.65,5.239a2.631,2.631,0,0,0-1.131.383,10.507,10.507,0,0,0-3.028,2.795,6.9,6.9,0,0,0-1.34,3.98,6.2,6.2,0,0,0,.031.623,4.784,4.784,0,0,0,.959,2.341,13.334,13.334,0,0,0,2.652,2.519c.98.753,2,1.475,2.864,2.208a4.141,4.141,0,0,0,2.675.972,4.375,4.375,0,0,0,.442-.023l46.8-4.917Z"/><path class="d" d="M1290.747,472.754c-.03.09-.061.18-.083.272l-.028.138a3.911,3.911,0,0,0-.063.517,3.059,3.059,0,0,0,.06.517l.028.121c.046.13.109.268.166.393l.024.047a2.784,2.784,0,0,0,.288.377l.07.069a2.542,2.542,0,0,0,.384.288l.218.093.213.088a1.93,1.93,0,0,0,.489.069l.049,0,.405-.054.021,0,.048-.015c.109-.039.269-.106.372-.157l.03-.016.193-.145.183-.146.04-.043c.092-.109.184-.228.266-.344l.047-.079.021-.044c.058-.129.118-.262.166-.4l.025-.086.009-.048c.024-.144.044-.294.059-.44l0-.089,0-.048c-.012-.146-.035-.3-.058-.439l-.018-.086-.014-.045c-.047-.133-.107-.266-.165-.395l-.04-.076-.026-.037a4.2,4.2,0,0,0-.259-.334l-.062-.058a4.07,4.07,0,0,0-.33-.254l-.046-.028a3.756,3.756,0,0,0-.381-.162l-.042-.015-.043-.01-.211-.028-.224-.029-.275.029-.285.046a3.007,3.007,0,0,0-.435.184l-.232.168-.222.181c-.091.1-.173.218-.254.328l-.028.04a2.134,2.134,0,0,0-.188.433l-.013.045,0,.017c-.02.111-.048.3-.056.416v.046l0,.018.055.41a1.875,1.875,0,0,0,.181.445,1.68,1.68,0,0,0,.9.69,1.148,1.148,0,0,0,.6.027,1.131,1.131,0,0,0,.558-.178l.3-.235a1.5,1.5,0,0,0,.386-.662l.054-.4a1.5,1.5,0,0,0-.205-.757l-.011-.023.151.359-.019-.07.053.4v-.081l-.054.4.025-.09-.151.359.056-.093-.234.3.089-.087-.3.234.122-.07-.359.151.122-.032-.4.053h.1l-.4-.054.1.026-.358-.151.091.054-.3-.234.091.093-.234-.3.065.113-.151-.358.046.167-.054-.4v.206l.054-.4-.051.186.151-.359-.088.15.235-.3-.083.085.3-.235-.085.051.359-.152-.069.019.4-.053h-.084l.4.053-.1-.025.358.151-.114-.066.3.234-.1-.1.235.3-.068-.118.152.359-.034-.135.053.4,0-.237-.054.4a2.32,2.32,0,0,1,.111-.41,1.127,1.127,0,0,0,.027-.6,1.112,1.112,0,0,0-.178-.558,1.669,1.669,0,0,0-.9-.689l-.4-.054a1.49,1.49,0,0,0-.757.2l-.3.234A1.5,1.5,0,0,0,1290.747,472.754Z"/><path class="d" d="M1297.28,472.411a4.3,4.3,0,0,0,2.143,2.367,4.983,4.983,0,0,0,3.227.377,5.726,5.726,0,0,0,4.058-4.531,1.5,1.5,0,0,0-2.893-.8,5.045,5.045,0,0,1-.134.557c-.028.092-.062.181-.092.273-.084.259.1-.214.023-.048s-.152.316-.242.468l-.154.243-.082.117c-.066.091-.036.052.09-.114l-.351.384-.174.16c-.223.214.245-.162.007,0-.158.106-.319.195-.484.289-.234.132.228-.076.055-.02l-.258.086-.209.052-.128.023c-.118.019-.056.011.185-.026a3.042,3.042,0,0,0-.476.009c-.057,0-.382-.024-.1,0,.263.019.007,0-.056-.019a3.064,3.064,0,0,0-.5-.152l.2.085-.154-.075-.186-.105c-.055-.034-.28-.223-.094-.05s0-.005-.044-.044l-.18-.177-.083-.1q-.108-.132.106.137c-.011-.066-.336-.671-.129-.165a1.646,1.646,0,0,0-.69-.9,1.5,1.5,0,0,0-2.2,1.694Z"/><path class="d" d="M1310.761,467.312l-.019.022-.238.307-.008.012-.012.025-.153.362-.006.018-.031.221-.029.223v.042c.012.11.033.3.055.408l.092.234.1.232.017.025c.078.1.161.222.248.319l.021.021.012.01.311.241.051.031.363.153.014.006.033.01.015,0,.4.055.035,0,.037,0c.1-.008.308-.039.405-.054l.025,0,.041-.012c.127-.044.258-.1.381-.16l.071-.038.177-.136.176-.138.058-.06c.087-.1.171-.215.251-.324l.022-.031.042-.073.088-.209.086-.206.02-.071.032-.233.03-.227,0-.074,0-.034c-.012-.134-.035-.289-.056-.421l-.017-.07-.011-.031-.153-.363-.006-.014-.036-.059-.237-.308-.01-.012-.022-.022-.012-.01-.307-.238-.031-.021a1.8,1.8,0,0,0-.409-.174l-.027-.006-.4-.054h-.017l-.221.028-.221.031-.026.008-.362.153-.016.007-.028.016-.011.007c-.09.063-.226.17-.311.24l-.046.045-.123.159-.125.163-.017.026-.087.2-.085.2-.007.032-.054.4v.027l.054.406.006.027,0,.01.154.365.13.172.134.17c.041.039.3.23.159.122l.167.128a1.121,1.121,0,0,0,.557.178,1.539,1.539,0,0,0,1.495-.716l.151-.359a1.5,1.5,0,0,0,0-.8l-.151-.358a1.511,1.511,0,0,0-.538-.539l-.015-.01.3.235-.023-.024.234.3-.016-.027.151.359-.009-.037.053.4v-.039l-.054.4.016-.056-.151.359.036-.061-.234.3.051-.051-.3.234.062-.036-.358.151.051-.013-.4.053h.044l-.4-.053.044.012-.359-.152.065.038-.3-.234.051.052-.235-.3.042.073-.151-.358.03.116c-.018-.133-.035-.265-.053-.4l0,.147.054-.4-.036.132c.05-.12.1-.239.151-.359l-.077.134.235-.3-.1.1.3-.234-.1.057.358-.151-.094.025.4-.054h-.072l.4.053-.067-.018.359.151-.06-.037.3.235-.05-.05.235.3-.046-.077.152.358-.018-.065c.017.133.035.266.053.4v-.065l-.054.4.012-.044-.151.359.023-.04-.234.3.02-.022a1.543,1.543,0,0,0,0-2.121l-.3-.234a1.491,1.491,0,0,0-.757-.205l-.4.053A1.5,1.5,0,0,0,1310.761,467.312Z"/></g></svg>