<svg xmlns="http://www.w3.org/2000/svg" width="482.035" height="259.962" viewBox="0 0 482.035 259.962"><defs><style>.a{fill:#fff;}</style></defs><g transform="translate(-138.035 -469.253)"><path class="a" d="M151.859,608.253l1.909,9.4,8.823,3.755-8.347,4.719-.845,9.551-7.067-6.48-9.345,2.148,3.979-8.724-4.931-8.223,9.526,1.089Z" transform="translate(2 -139)"/><path class="a" d="M588.884,678.816,601.021,691.9l19.049-2.286-10.3,15.249,7.43,15.9L598.7,717.1l-14.457,12.112L583.107,711.7l-16.365-8.413,17.8-7.161Z"/><path class="a" d="M231.712,685.042,237.04,697l13.763,2.919-10.755,8.149,1.4,12.793-11.976-6.918-12.9,4.988,3.354-12.425-9.369-9.71,14.049-.761Z"/><path class="a" d="M491.218,620.7l1.218,6,5.63,2.4L492.74,632.1l-.539,6.1-4.51-4.135-5.964,1.371,2.539-5.567-3.147-5.248,6.08.695Z"/></g></svg>